Regular.ufo
<glyph name="exclam" format="2">
  <advance width="636"/>
  <unicode hex="0021"/>
  <outline>
    <contour>
      <point x="232" y="469" type="line"/>
      <point x="200" y="1400" type="line"/>
      <point x="436" y="1400" type="line"/>
      <point x="404" y="469" type="line"/>
    </contour>
    <contour>
      <point x="318" y="-30" type="qcurve" smooth="yes"/>
      <point x="258" y="-30"/>
      <point x="171" y="47"/>
      <point x="171" y="109" type="qcurve" smooth="yes"/>
      <point x="171" y="151"/>
      <point x="210" y="214"/>
      <point x="277" y="249"/>
      <point x="318" y="249" type="qcurve" smooth="yes"/>
      <point x="379" y="249"/>
      <point x="465" y="172"/>
      <point x="465" y="109" type="qcurve" smooth="yes"/>
      <point x="465" y="68"/>
      <point x="426" y="5"/>
      <point x="359" y="-30"/>
    </contour>
  </outline>
</glyph>
<glyph name="numbersign" format="2">
  <advance width="1261"/>
  <unicode hex="0023"/>
  <outline>
    <contour>
      <point x="171" y="50" type="line"/>
      <point x="254" y="393" type="line"/>
      <point x="82" y="393" type="line"/>
      <point x="115" y="539" type="line"/>
      <point x="288" y="539" type="line"/>
      <point x="363" y="859" type="line"/>
      <point x="190" y="859" type="line"/>
      <point x="224" y="1005" type="line"/>
      <point x="396" y="1005" type="line"/>
      <point x="480" y="1350" type="line"/>
      <point x="630" y="1350" type="line"/>
      <point x="548" y="1005" type="line"/>
      <point x="857" y="1005" type="line"/>
      <point x="939" y="1351" type="line"/>
      <point x="1091" y="1351" type="line"/>
      <point x="1009" y="1005" type="line"/>
      <point x="1179" y="1005" type="line"/>
      <point x="1146" y="858" type="line"/>
      <point x="974" y="858" type="line"/>
      <point x="902" y="540" type="line"/>
      <point x="1073" y="540" type="line"/>
      <point x="1038" y="393" type="line"/>
      <point x="867" y="393" type="line"/>
      <point x="783" y="49" type="line"/>
      <point x="631" y="49" type="line"/>
      <point x="714" y="393" type="line"/>
      <point x="406" y="393" type="line"/>
      <point x="323" y="50" type="line"/>
    </contour>
    <contour>
      <point x="439" y="539" type="line"/>
      <point x="750" y="540" type="line"/>
      <point x="822" y="858" type="line"/>
      <point x="511" y="859" type="line"/>
    </contour>
  </outline>
</glyph>
<glyph name="dollar" format="2">
  <advance width="1296"/>
  <unicode hex="0024"/>
  <anchor x="672" y="1400" name="top"/>
  <anchor x="656" y="0" name="bottom"/>
  <outline>
    <contour>
      <point x="659" y="-30" type="qcurve" smooth="yes"/>
      <point x="525" y="-30"/>
      <point x="266" y="47"/>
      <point x="178" y="120" type="qcurve"/>
      <point x="269" y="261" type="line"/>
      <point x="319" y="218"/>
      <point x="446" y="159"/>
      <point x="588" y="127"/>
      <point x="659" y="127" type="qcurve" smooth="yes"/>
      <point x="806" y="127"/>
      <point x="983" y="246"/>
      <point x="983" y="361" type="qcurve" smooth="yes"/>
      <point x="983" y="452"/>
      <point x="857" y="568"/>
      <point x="703" y="613" type="qcurve"/>
      <point x="552" y="653" type="line"/>
      <point x="380" y="705"/>
      <point x="196" y="883"/>
      <point x="196" y="1028" type="qcurve" smooth="yes"/>
      <point x="196" y="1150"/>
      <point x="320" y="1331"/>
      <point x="536" y="1429"/>
      <point x="675" y="1429" type="qcurve" smooth="yes"/>
      <point x="804" y="1429"/>
      <point x="1027" y="1352"/>
      <point x="1100" y="1287" type="qcurve"/>
      <point x="1007" y="1153" type="line"/>
      <point x="943" y="1210"/>
      <point x="760" y="1274"/>
      <point x="662" y="1274" type="qcurve" smooth="yes"/>
      <point x="571" y="1274"/>
      <point x="435" y="1219"/>
      <point x="360" y="1114"/>
      <point x="360" y="1039" type="qcurve" smooth="yes"/>
      <point x="360" y="947"/>
      <point x="485" y="842"/>
      <point x="638" y="798" type="qcurve"/>
      <point x="801" y="755" type="line"/>
      <point x="969" y="706"/>
      <point x="1147" y="529"/>
      <point x="1147" y="377" type="qcurve" smooth="yes"/>
      <point x="1147" y="256"/>
      <point x="1033" y="73"/>
      <point x="815" y="-30"/>
    </contour>
    <contour>
      <point x="597" y="-160" type="line"/>
      <point x="597" y="1560" type="line"/>
      <point x="746" y="1560" type="line"/>
      <point x="746" y="-160" type="line"/>
    </contour>
  </outline>
</glyph>
<glyph name="percent" format="2">
  <advance width="2059"/>
  <unicode hex="0025"/>
  <outline>
    <contour>
      <point x="696" y="-33" type="line"/>
      <point x="581" y="35" type="line"/>
      <point x="1363" y="1433" type="line"/>
      <point x="1478" y="1370" type="line"/>
    </contour>
    <contour>
      <point x="458" y="678" type="qcurve" smooth="yes"/>
      <point x="353" y="678"/>
      <point x="181" y="777"/>
      <point x="78" y="946"/>
      <point x="78" y="1050" type="qcurve" smooth="yes"/>
      <point x="78" y="1152"/>
      <point x="181" y="1320"/>
      <point x="353" y="1420"/>
      <point x="458" y="1420" type="qcurve" smooth="yes"/>
      <point x="564" y="1420"/>
      <point x="735" y="1320"/>
      <point x="837" y="1152"/>
      <point x="837" y="1050" type="qcurve" smooth="yes"/>
      <point x="837" y="947"/>
      <point x="735" y="778"/>
      <point x="564" y="678"/>
    </contour>
    <contour>
      <point x="458" y="820" type="qcurve" smooth="yes"/>
      <point x="527" y="820"/>
      <point x="630" y="879"/>
      <point x="688" y="982"/>
      <point x="688" y="1050" type="qcurve" smooth="yes"/>
      <point x="688" y="1152"/>
      <point x="562" y="1277"/>
      <point x="458" y="1277" type="qcurve" smooth="yes"/>
      <point x="390" y="1277"/>
      <point x="286" y="1219"/>
      <point x="228" y="1117"/>
      <point x="228" y="1050" type="qcurve" smooth="yes"/>
      <point x="228" y="949"/>
      <point x="356" y="820"/>
    </contour>
    <contour>
      <point x="1602" y="-20" type="qcurve" smooth="yes"/>
      <point x="1497" y="-20"/>
      <point x="1325" y="80"/>
      <point x="1222" y="249"/>
      <point x="1222" y="352" type="qcurve" smooth="yes"/>
      <point x="1222" y="455"/>
      <point x="1325" y="623"/>
      <point x="1497" y="723"/>
      <point x="1602" y="723" type="qcurve" smooth="yes"/>
      <point x="1708" y="723"/>
      <point x="1879" y="623"/>
      <point x="1981" y="455"/>
      <point x="1981" y="352" type="qcurve" smooth="yes"/>
      <point x="1981" y="249"/>
      <point x="1879" y="80"/>
      <point x="1708" y="-20"/>
    </contour>
    <contour>
      <point x="1602" y="123" type="qcurve" smooth="yes"/>
      <point x="1671" y="123"/>
      <point x="1774" y="181"/>
      <point x="1832" y="284"/>
      <point x="1832" y="352" type="qcurve" smooth="yes"/>
      <point x="1832" y="454"/>
      <point x="1706" y="580"/>
      <point x="1602" y="580" type="qcurve" smooth="yes"/>
      <point x="1534" y="580"/>
      <point x="1430" y="522"/>
      <point x="1371" y="420"/>
      <point x="1371" y="352" type="qcurve" smooth="yes"/>
      <point x="1371" y="252"/>
      <point x="1500" y="123"/>
    </contour>
  </outline>
</glyph>
<glyph name="ampersand" format="2">
  <advance width="1492"/>
  <unicode hex="0026"/>
  <outline>
    <contour>
      <point x="561" y="-30" type="qcurve" smooth="yes"/>
      <point x="429" y="-30"/>
      <point x="226" y="73"/>
      <point x="110" y="254"/>
      <point x="110" y="370" type="qcurve" smooth="yes"/>
      <point x="110" y="456"/>
      <point x="190" y="609"/>
      <point x="339" y="731"/>
      <point x="443" y="770" type="qcurve"/>
      <point x="379" y="834"/>
      <point x="305" y="937"/>
      <point x="274" y="1037"/>
      <point x="274" y="1095" type="qcurve" smooth="yes"/>
      <point x="274" y="1188"/>
      <point x="376" y="1340"/>
      <point x="546" y="1430"/>
      <point x="650" y="1430" type="qcurve" smooth="yes"/>
      <point x="757" y="1430"/>
      <point x="927" y="1346"/>
      <point x="1026" y="1197"/>
      <point x="1026" y="1101" type="qcurve" smooth="yes"/>
      <point x="1026" y="988"/>
      <point x="865" y="808"/>
      <point x="712" y="737" type="qcurve"/>
      <point x="1023" y="417" type="line"/>
      <point x="1081" y="491"/>
      <point x="1179" y="682"/>
      <point x="1222" y="811" type="qcurve"/>
      <point x="1387" y="743" type="line"/>
      <point x="1360" y="663"/>
      <point x="1281" y="503"/>
      <point x="1186" y="355"/>
      <point x="1135" y="295" type="qcurve"/>
      <point x="1412" y="0" type="line"/>
      <point x="1172" y="0" type="line"/>
      <point x="1016" y="164" type="line"/>
      <point x="918" y="71"/>
      <point x="681" y="-30"/>
    </contour>
    <contour>
      <point x="573" y="143" type="qcurve" smooth="yes"/>
      <point x="664" y="143"/>
      <point x="831" y="216"/>
      <point x="902" y="288" type="qcurve"/>
      <point x="551" y="652" type="line"/>
      <point x="432" y="611"/>
      <point x="304" y="466"/>
      <point x="304" y="375" type="qcurve" smooth="yes"/>
      <point x="304" y="269"/>
      <point x="449" y="143"/>
    </contour>
    <contour>
      <point x="606" y="842" type="qcurve"/>
      <point x="725" y="886"/>
      <point x="844" y="1011"/>
      <point x="844" y="1088" type="qcurve" smooth="yes"/>
      <point x="844" y="1168"/>
      <point x="737" y="1269"/>
      <point x="652" y="1269" type="qcurve" smooth="yes"/>
      <point x="569" y="1269"/>
      <point x="458" y="1170"/>
      <point x="458" y="1093" type="qcurve" smooth="yes"/>
      <point x="458" y="1032"/>
      <point x="524" y="920"/>
    </contour>
  </outline>
</glyph>
<glyph name="quotesingle" format="2">
  <advance width="449"/>
  <unicode hex="0027"/>
  <outline>
    <contour>
      <point x="151" y="905" type="line"/>
      <point x="132" y="1400" type="line"/>
      <point x="317" y="1400" type="line"/>
      <point x="298" y="905" type="line"/>
    </contour>
  </outline>
</glyph>
<glyph name="parenleft" format="2">
  <advance width="686"/>
  <unicode hex="0028"/>
  <outline>
    <contour>
      <point x="414" y="-230" type="line"/>
      <point x="290" y="-23"/>
      <point x="166" y="450"/>
      <point x="166" y="692" type="qcurve" smooth="yes"/>
      <point x="166" y="853"/>
      <point x="221" y="1171"/>
      <point x="331" y="1473"/>
      <point x="414" y="1610" type="qcurve"/>
      <point x="564" y="1547" type="line"/>
      <point x="509" y="1460"/>
      <point x="425" y="1259"/>
      <point x="370" y="1041"/>
      <point x="342" y="811"/>
      <point x="342" y="696" type="qcurve" smooth="yes"/>
      <point x="342" y="464"/>
      <point x="454" y="14"/>
      <point x="564" y="-167" type="qcurve"/>
    </contour>
  </outline>
</glyph>
<glyph name="asterisk" format="2">
  <advance width="1088"/>
  <unicode hex="002A"/>
  <outline>
    <contour>
      <point x="383" y="607" type="line"/>
      <point x="230" y="716" type="line"/>
      <point x="419" y="948" type="line"/>
      <point x="128" y="1026" type="line"/>
      <point x="188" y="1207" type="line"/>
      <point x="468" y="1098" type="line"/>
      <point x="450" y="1400" type="line"/>
      <point x="640" y="1400" type="line"/>
      <point x="623" y="1101" type="line"/>
      <point x="904" y="1209" type="line"/>
      <point x="964" y="1028" type="line"/>
      <point x="672" y="950" type="line"/>
      <point x="864" y="716" type="line"/>
      <point x="707" y="608" type="line"/>
      <point x="546" y="860" type="line"/>
    </contour>
  </outline>
</glyph>
<glyph name="plus" format="2">
  <advance width="1296"/>
  <unicode hex="002B"/>
  <outline>
    <contour>
      <point x="571" y="187" type="line"/>
      <point x="571" y="592" type="line"/>
      <point x="146" y="592" type="line"/>
      <point x="146" y="740" type="line"/>
      <point x="571" y="740" type="line"/>
      <point x="571" y="1145" type="line"/>
      <point x="725" y="1145" type="line"/>
      <point x="725" y="740" type="line"/>
      <point x="1150" y="740" type="line"/>
      <point x="1150" y="592" type="line"/>
      <point x="725" y="592" type="line"/>
      <point x="725" y="187" type="line"/>
    </contour>
  </outline>
</glyph>
<glyph name="comma" format="2">
  <advance width="531"/>
  <unicode hex="002C"/>
  <outline>
    <contour>
      <point x="144" y="-293" type="qcurve"/>
      <point x="70" y="-196" type="line"/>
      <point x="143" y="-160"/>
      <point x="255" y="-61"/>
      <point x="273" y="-14" type="qcurve"/>
      <point x="230" y="-17"/>
      <point x="160" y="15"/>
      <point x="119" y="74"/>
      <point x="119" y="115" type="qcurve" smooth="yes"/>
      <point x="119" y="175"/>
      <point x="199" y="252"/>
      <point x="261" y="252" type="qcurve" smooth="yes"/>
      <point x="332" y="252"/>
      <point x="418" y="158"/>
      <point x="418" y="76" type="qcurve" smooth="yes"/>
      <point x="418" y="13"/>
      <point x="356" y="-117"/>
      <point x="235" y="-239"/>
    </contour>
  </outline>
</glyph>
<glyph name="hyphenminus" format="2">
  <advance width="775"/>
  <unicode hex="002D"/>
  <outline>
    <contour>
      <point x="122" y="475" type="line"/>
      <point x="122" y="650" type="line"/>
      <point x="654" y="650" type="line"/>
      <point x="654" y="475" type="line"/>
    </contour>
  </outline>
</glyph>
<glyph name="period" format="2">
  <advance width="531"/>
  <unicode hex="002E"/>
  <outline>
    <contour>
      <point x="266" y="-30" type="qcurve" smooth="yes"/>
      <point x="205" y="-30"/>
      <point x="117" y="48"/>
      <point x="117" y="111" type="qcurve" smooth="yes"/>
      <point x="117" y="153"/>
      <point x="157" y="217"/>
      <point x="225" y="252"/>
      <point x="266" y="252" type="qcurve" smooth="yes"/>
      <point x="328" y="252"/>
      <point x="414" y="175"/>
      <point x="414" y="111" type="qcurve" smooth="yes"/>
      <point x="414" y="69"/>
      <point x="374" y="5"/>
      <point x="307" y="-30"/>
    </contour>
  </outline>
</glyph>
<glyph name="slash" format="2">
  <advance width="910"/>
  <unicode hex="002F"/>
  <outline>
    <contour>
      <point x="174" y="-230" type="line"/>
      <point x="4" y="-163" type="line"/>
      <point x="736" y="1610" type="line"/>
      <point x="905" y="1543" type="line"/>
    </contour>
  </outline>
</glyph>
<glyph name="zero" format="2">
  <advance width="1356"/>
  <unicode hex="0030"/>
  <outline>
    <contour>
      <point x="678" y="-30" type="qcurve" smooth="yes"/>
      <point x="545" y="-30"/>
      <point x="334" y="84"/>
      <point x="186" y="286"/>
      <point x="108" y="550"/>
      <point x="108" y="700" type="qcurve" smooth="yes"/>
      <point x="108" y="851"/>
      <point x="186" y="1115"/>
      <point x="334" y="1316"/>
      <point x="545" y="1430"/>
      <point x="678" y="1430" type="qcurve" smooth="yes"/>
      <point x="811" y="1430"/>
      <point x="1021" y="1316"/>
      <point x="1170" y="1115"/>
      <point x="1248" y="851"/>
      <point x="1248" y="700" type="qcurve" smooth="yes"/>
      <point x="1248" y="550"/>
      <point x="1170" y="286"/>
      <point x="1021" y="84"/>
      <point x="811" y="-30"/>
    </contour>
    <contour>
      <point x="678" y="151" type="qcurve" smooth="yes"/>
      <point x="761" y="151"/>
      <point x="897" y="227"/>
      <point x="995" y="369"/>
      <point x="1048" y="572"/>
      <point x="1048" y="700" type="qcurve" smooth="yes"/>
      <point x="1048" y="870"/>
      <point x="956" y="1117"/>
      <point x="789" y="1249"/>
      <point x="678" y="1249" type="qcurve" smooth="yes"/>
      <point x="595" y="1249"/>
      <point x="459" y="1173"/>
      <point x="361" y="1031"/>
      <point x="308" y="828"/>
      <point x="308" y="700" type="qcurve" smooth="yes"/>
      <point x="308" y="530"/>
      <point x="401" y="284"/>
      <point x="568" y="151"/>
    </contour>
  </outline>
</glyph>
<glyph name="one" format="2">
  <advance width="857"/>
  <unicode hex="0031"/>
  <outline>
    <contour>
      <point x="442" y="0" type="line"/>
      <point x="442" y="1189" type="line"/>
      <point x="70" y="1052" type="line"/>
      <point x="17" y="1208" type="line"/>
      <point x="616" y="1430" type="line"/>
      <point x="630" y="1430" type="line"/>
      <point x="630" y="0" type="line"/>
    </contour>
  </outline>
</glyph>
<glyph name="two" format="2">
  <advance width="1178"/>
  <unicode hex="0032"/>
  <outline>
    <contour>
      <point x="123" y="0" type="line"/>
      <point x="123" y="148" type="line"/>
      <point x="427" y="428" type="line" smooth="yes"/>
      <point x="572" y="562"/>
      <point x="752" y="757"/>
      <point x="835" y="918"/>
      <point x="835" y="1000" type="qcurve" smooth="yes"/>
      <point x="835" y="1119"/>
      <point x="672" y="1254"/>
      <point x="526" y="1254" type="qcurve" smooth="yes"/>
      <point x="434" y="1254"/>
      <point x="263" y="1192"/>
      <point x="204" y="1132" type="qcurve"/>
      <point x="128" y="1279" type="line"/>
      <point x="212" y="1353"/>
      <point x="428" y="1430"/>
      <point x="549" y="1430" type="qcurve" smooth="yes"/>
      <point x="691" y="1430"/>
      <point x="907" y="1328"/>
      <point x="1026" y="1143"/>
      <point x="1026" y="1017" type="qcurve" smooth="yes"/>
      <point x="1026" y="930"/>
      <point x="957" y="756"/>
      <point x="779" y="538"/>
      <point x="616" y="386" type="qcurve" smooth="yes"/>
      <point x="385" y="173" type="line"/>
      <point x="1061" y="173" type="line"/>
      <point x="1061" y="0" type="line"/>
    </contour>
  </outline>
</glyph>
<glyph name="three" format="2">
  <advance width="1162"/>
  <unicode hex="0033"/>
  <outline>
    <contour>
      <point x="525" y="-30" type="qcurve" smooth="yes"/>
      <point x="439" y="-30"/>
      <point x="272" y="5"/>
      <point x="132" y="67"/>
      <point x="86" y="107" type="qcurve"/>
      <point x="157" y="278" type="line"/>
      <point x="222" y="220"/>
      <point x="417" y="151"/>
      <point x="513" y="151" type="qcurve" smooth="yes"/>
      <point x="611" y="151"/>
      <point x="756" y="218"/>
      <point x="835" y="339"/>
      <point x="835" y="421" type="qcurve" smooth="yes"/>
      <point x="835" y="546"/>
      <point x="653" y="685"/>
      <point x="502" y="685" type="qcurve" smooth="yes"/>
      <point x="463" y="685"/>
      <point x="379" y="675"/>
      <point x="336" y="665" type="qcurve"/>
      <point x="275" y="802" type="line"/>
      <point x="725" y="1225" type="line"/>
      <point x="97" y="1225" type="line"/>
      <point x="97" y="1400" type="line"/>
      <point x="973" y="1400" type="line"/>
      <point x="973" y="1239" type="line"/>
      <point x="542" y="821" type="line"/>
      <point x="672" y="824"/>
      <point x="898" y="736"/>
      <point x="1036" y="552"/>
      <point x="1036" y="411" type="qcurve" smooth="yes"/>
      <point x="1036" y="279"/>
      <point x="905" y="81"/>
      <point x="675" y="-30"/>
    </contour>
  </outline>
</glyph>
<glyph name="four" format="2">
  <advance width="1202"/>
  <unicode hex="0034"/>
  <outline>
    <contour>
      <point x="738" y="0" type="line"/>
      <point x="738" y="291" type="line"/>
      <point x="37" y="291" type="line"/>
      <point x="37" y="448" type="line"/>
      <point x="548" y="1400" type="line"/>
      <point x="760" y="1400" type="line"/>
      <point x="254" y="465" type="line"/>
      <point x="738" y="465" type="line"/>
      <point x="738" y="782" type="line"/>
      <point x="918" y="782" type="line"/>
      <point x="918" y="465" type="line"/>
      <point x="1139" y="465" type="line"/>
      <point x="1139" y="291" type="line"/>
      <point x="918" y="291" type="line"/>
      <point x="918" y="0" type="line"/>
    </contour>
  </outline>
</glyph>
<glyph name="five" format="2">
  <advance width="1166"/>
  <unicode hex="0035"/>
  <outline>
    <contour>
      <point x="526" y="-30" type="qcurve" smooth="yes"/>
      <point x="398" y="-30"/>
      <point x="163" y="43"/>
      <point x="87" y="104" type="qcurve"/>
      <point x="155" y="270" type="line"/>
      <point x="224" y="211"/>
      <point x="418" y="149"/>
      <point x="515" y="149" type="qcurve" smooth="yes"/>
      <point x="618" y="149"/>
      <point x="768" y="217"/>
      <point x="849" y="346"/>
      <point x="849" y="437" type="qcurve" smooth="yes"/>
      <point x="849" y="521"/>
      <point x="763" y="642"/>
      <point x="613" y="707"/>
      <point x="516" y="707" type="qcurve" smooth="yes"/>
      <point x="457" y="707"/>
      <point x="327" y="679"/>
      <point x="259" y="649" type="qcurve"/>
      <point x="175" y="738" type="line"/>
      <point x="248" y="1397" type="line"/>
      <point x="1012" y="1399" type="line"/>
      <point x="1012" y="1221" type="line"/>
      <point x="393" y="1221" type="line"/>
      <point x="348" y="831" type="line"/>
      <point x="403" y="850"/>
      <point x="513" y="870"/>
      <point x="566" y="870" type="qcurve" smooth="yes"/>
      <point x="703" y="870"/>
      <point x="920" y="766"/>
      <point x="1047" y="569"/>
      <point x="1047" y="431" type="qcurve" smooth="yes"/>
      <point x="1047" y="291"/>
      <point x="915" y="84"/>
      <point x="680" y="-30"/>
    </contour>
  </outline>
</glyph>
<glyph name="six" format="2">
  <advance width="1279"/>
  <unicode hex="0036"/>
  <outline>
    <contour>
      <point x="645" y="-30" type="curve" smooth="yes"/>
      <point x="945" y="-30"/>
      <point x="1166" y="179"/>
      <point x="1166" y="448" type="curve" smooth="yes"/>
      <point x="1166" y="705"/>
      <point x="948" y="899"/>
      <point x="670" y="899" type="curve" smooth="yes"/>
      <point x="598" y="899"/>
      <point x="512" y="880"/>
      <point x="418" y="832" type="curve"/>
      <point x="471" y="795" type="line"/>
      <point x="949" y="1400" type="line"/>
      <point x="720" y="1400" type="line"/>
      <point x="319" y="873" type="line" smooth="yes"/>
      <point x="220" y="744"/>
      <point x="126" y="595"/>
      <point x="126" y="438" type="curve" smooth="yes"/>
      <point x="126" y="176"/>
      <point x="351" y="-30"/>
    </contour>
    <contour>
      <point x="650" y="147" type="curve" smooth="yes"/>
      <point x="468" y="147"/>
      <point x="326" y="270"/>
      <point x="326" y="443" type="curve" smooth="yes"/>
      <point x="326" y="618"/>
      <point x="465" y="741"/>
      <point x="646" y="741" type="curve" smooth="yes"/>
      <point x="825" y="741"/>
      <point x="965" y="618"/>
      <point x="965" y="443" type="curve" smooth="yes"/>
      <point x="965" y="267"/>
      <point x="829" y="147"/>
    </contour>
  </outline>
</glyph>
<glyph name="seven" format="2">
  <advance width="1102"/>
  <unicode hex="0037"/>
  <outline>
    <contour>
      <point x="180" y="0" type="line"/>
      <point x="780" y="1217" type="line"/>
      <point x="101" y="1217" type="line"/>
      <point x="101" y="1400" type="line"/>
      <point x="1005" y="1400" type="line"/>
      <point x="1005" y="1247" type="line"/>
      <point x="398" y="0" type="line"/>
    </contour>
  </outline>
</glyph>
<glyph name="eight" format="2">
  <advance width="1228"/>
  <unicode hex="0038"/>
  <outline>
    <contour>
      <point x="611" y="-30" type="qcurve" smooth="yes"/>
      <point x="457" y="-30"/>
      <point x="233" y="82"/>
      <point x="112" y="272"/>
      <point x="112" y="390" type="qcurve" smooth="yes"/>
      <point x="112" y="474"/>
      <point x="173" y="607"/>
      <point x="289" y="706"/>
      <point x="371" y="737" type="qcurve"/>
      <point x="287" y="770"/>
      <point x="160" y="928"/>
      <point x="160" y="1047" type="qcurve" smooth="yes"/>
      <point x="160" y="1158"/>
      <point x="277" y="1331"/>
      <point x="482" y="1430"/>
      <point x="614" y="1430" type="qcurve" smooth="yes"/>
      <point x="748" y="1430"/>
      <point x="955" y="1330"/>
      <point x="1072" y="1157"/>
      <point x="1072" y="1047" type="qcurve" smooth="yes"/>
      <point x="1072" y="967"/>
      <point x="1013" y="844"/>
      <point x="916" y="759"/>
      <point x="861" y="737" type="qcurve"/>
      <point x="976" y="690"/>
      <point x="1116" y="516"/>
      <point x="1116" y="390" type="qcurve" smooth="yes"/>
      <point x="1116" y="272"/>
      <point x="990" y="82"/>
      <point x="763" y="-30"/>
    </contour>
    <contour>
      <point x="614" y="140" type="qcurve" smooth="yes"/>
      <point x="695" y="140"/>
      <point x="833" y="199"/>
      <point x="918" y="313"/>
      <point x="918" y="397" type="qcurve" smooth="yes"/>
      <point x="918" y="481"/>
      <point x="837" y="596"/>
      <point x="699" y="655"/>
      <point x="614" y="655" type="qcurve" smooth="yes"/>
      <point x="483" y="655"/>
      <point x="309" y="523"/>
      <point x="309" y="397" type="qcurve" smooth="yes"/>
      <point x="309" y="313"/>
      <point x="392" y="199"/>
      <point x="531" y="140"/>
    </contour>
    <contour>
      <point x="616" y="822" type="qcurve" smooth="yes"/>
      <point x="694" y="822"/>
      <point x="817" y="876"/>
      <point x="885" y="974"/>
      <point x="885" y="1040" type="qcurve" smooth="yes"/>
      <point x="885" y="1140"/>
      <point x="736" y="1273"/>
      <point x="616" y="1273" type="qcurve" smooth="yes"/>
      <point x="536" y="1273"/>
      <point x="414" y="1212"/>
      <point x="346" y="1106"/>
      <point x="346" y="1040" type="qcurve" smooth="yes"/>
      <point x="346" y="940"/>
      <point x="498" y="822"/>
    </contour>
  </outline>
</glyph>
<glyph name="nine" format="2">
  <advance width="1258"/>
  <unicode hex="0039"/>
  <outline>
    <contour>
      <point x="212" y="-22" type="qcurve"/>
      <point x="212" y="156" type="line"/>
      <point x="381" y="133"/>
      <point x="644" y="203"/>
      <point x="830" y="362"/>
      <point x="933" y="584"/>
      <point x="942" y="713" type="qcurve"/>
      <point x="882" y="624"/>
      <point x="682" y="520"/>
      <point x="558" y="520" type="qcurve" smooth="yes"/>
      <point x="425" y="520"/>
      <point x="216" y="634"/>
      <point x="96" y="839"/>
      <point x="96" y="970" type="qcurve" smooth="yes"/>
      <point x="96" y="1099"/>
      <point x="224" y="1307"/>
      <point x="453" y="1430"/>
      <point x="605" y="1430" type="qcurve" smooth="yes"/>
      <point x="761" y="1430"/>
      <point x="999" y="1285"/>
      <point x="1133" y="1010"/>
      <point x="1133" y="813" type="qcurve" smooth="yes"/>
      <point x="1133" y="637"/>
      <point x="1021" y="315"/>
      <point x="793" y="72"/>
      <point x="446" y="-48"/>
    </contour>
    <contour>
      <point x="605" y="691" type="qcurve" smooth="yes"/>
      <point x="693" y="691"/>
      <point x="833" y="766"/>
      <point x="915" y="894"/>
      <point x="915" y="974" type="qcurve" smooth="yes"/>
      <point x="915" y="1057"/>
      <point x="835" y="1184"/>
      <point x="695" y="1255"/>
      <point x="605" y="1255" type="qcurve" smooth="yes"/>
      <point x="515" y="1255"/>
      <point x="374" y="1184"/>
      <point x="294" y="1057"/>
      <point x="294" y="974" type="qcurve" smooth="yes"/>
      <point x="294" y="894"/>
      <point x="376" y="766"/>
      <point x="517" y="691"/>
    </contour>
  </outline>
</glyph>
<glyph name="equal" format="2">
  <advance width="1296"/>
  <unicode hex="003D"/>
  <outline>
    <contour>
      <point x="146" y="776" type="line"/>
      <point x="146" y="924" type="line"/>
      <point x="1150" y="924" type="line"/>
      <point x="1150" y="776" type="line"/>
    </contour>
    <contour>
      <point x="146" y="402" type="line"/>
      <point x="146" y="550" type="line"/>
      <point x="1150" y="550" type="line"/>
      <point x="1150" y="402" type="line"/>
    </contour>
  </outline>
</glyph>
<glyph name="greater" format="2">
  <advance width="1296"/>
  <unicode hex="003E"/>
  <outline>
    <contour>
      <point x="196" y="195" type="line"/>
      <point x="136" y="343" type="line"/>
      <point x="916" y="653" type="line"/>
      <point x="136" y="966" type="line"/>
      <point x="195" y="1115" type="line"/>
      <point x="1150" y="726" type="line"/>
      <point x="1150" y="581" type="line"/>
    </contour>
  </outline>
</glyph>
<glyph name="question" format="2">
  <advance width="982"/>
  <unicode hex="003F"/>
  <outline>
    <contour>
      <point x="336" y="424" type="line"/>
      <point x="311" y="536"/>
      <point x="323" y="679"/>
      <point x="405" y="779"/>
      <point x="483" y="829" type="qcurve" smooth="yes"/>
      <point x="589" y="897"/>
      <point x="659" y="993"/>
      <point x="659" y="1051" type="qcurve" smooth="yes"/>
      <point x="659" y="1145"/>
      <point x="527" y="1239"/>
      <point x="408" y="1239" type="qcurve" smooth="yes"/>
      <point x="325" y="1239"/>
      <point x="191" y="1192"/>
      <point x="137" y="1151" type="qcurve"/>
      <point x="81" y="1320" type="line"/>
      <point x="116" y="1350"/>
      <point x="225" y="1400"/>
      <point x="364" y="1430"/>
      <point x="445" y="1430" type="qcurve" smooth="yes"/>
      <point x="572" y="1430"/>
      <point x="772" y="1348"/>
      <point x="887" y="1193"/>
      <point x="887" y="1086" type="qcurve" smooth="yes"/>
      <point x="887" y="1025"/>
      <point x="845" y="918"/>
      <point x="741" y="810"/>
      <point x="650" y="750" type="qcurve" smooth="yes"/>
      <point x="585" y="707"/>
      <point x="523" y="629"/>
      <point x="514" y="517"/>
      <point x="530" y="424" type="qcurve"/>
    </contour>
    <contour>
      <point x="443" y="-30" type="qcurve" smooth="yes"/>
      <point x="382" y="-30"/>
      <point x="294" y="48"/>
      <point x="294" y="111" type="qcurve" smooth="yes"/>
      <point x="294" y="153"/>
      <point x="334" y="217"/>
      <point x="402" y="252"/>
      <point x="443" y="252" type="qcurve" smooth="yes"/>
      <point x="505" y="252"/>
      <point x="592" y="175"/>
      <point x="592" y="111" type="qcurve" smooth="yes"/>
      <point x="592" y="69"/>
      <point x="551" y="5"/>
      <point x="484" y="-30"/>
    </contour>
  </outline>
</glyph>
<glyph name="at" format="2">
  <advance width="1715"/>
  <unicode hex="0040"/>
  <outline>
    <contour>
      <point x="860" y="-234" type="qcurve" smooth="yes"/>
      <point x="634" y="-234"/>
      <point x="291" y="-53"/>
      <point x="99" y="270"/>
      <point x="99" y="485" type="qcurve" smooth="yes"/>
      <point x="99" y="648"/>
      <point x="217" y="924"/>
      <point x="428" y="1128"/>
      <point x="714" y="1242"/>
      <point x="882" y="1242" type="qcurve" smooth="yes"/>
      <point x="1098" y="1242"/>
      <point x="1428" y="1072"/>
      <point x="1615" y="772"/>
      <point x="1615" y="575" type="qcurve" smooth="yes"/>
      <point x="1615" y="450"/>
      <point x="1520" y="253"/>
      <point x="1360" y="139"/>
      <point x="1264" y="139" type="qcurve" smooth="yes"/>
      <point x="1177" y="139"/>
      <point x="1072" y="213"/>
      <point x="1054" y="277" type="qcurve"/>
      <point x="1010" y="210"/>
      <point x="870" y="139"/>
      <point x="782" y="139" type="qcurve" smooth="yes"/>
      <point x="692" y="139"/>
      <point x="550" y="230"/>
      <point x="468" y="389"/>
      <point x="468" y="489" type="qcurve" smooth="yes"/>
      <point x="468" y="599"/>
      <point x="562" y="778"/>
      <point x="724" y="883"/>
      <point x="823" y="883" type="qcurve" smooth="yes"/>
      <point x="961" y="883"/>
      <point x="1055" y="777" type="qcurve"/>
      <point x="1059" y="857" type="line"/>
      <point x="1185" y="857" type="line"/>
      <point x="1161" y="411" type="line"/>
      <point x="1158" y="328"/>
      <point x="1209" y="254"/>
      <point x="1279" y="254" type="qcurve" smooth="yes"/>
      <point x="1338" y="254"/>
      <point x="1432" y="333"/>
      <point x="1487" y="477"/>
      <point x="1487" y="573" type="qcurve" smooth="yes"/>
      <point x="1487" y="736"/>
      <point x="1333" y="985"/>
      <point x="1060" y="1125"/>
      <point x="881" y="1125" type="qcurve" smooth="yes"/>
      <point x="741" y="1125"/>
      <point x="504" y="1029"/>
      <point x="326" y="856"/>
      <point x="228" y="624"/>
      <point x="228" y="487" type="qcurve" smooth="yes"/>
      <point x="228" y="308"/>
      <point x="389" y="36"/>
      <point x="678" y="-116"/>
      <point x="870" y="-116" type="qcurve" smooth="yes"/>
      <point x="963" y="-116"/>
      <point x="1147" y="-78"/>
      <point x="1305" y="-10"/>
      <point x="1362" y="36" type="qcurve"/>
      <point x="1414" y="-74" type="line"/>
      <point x="1348" y="-123"/>
      <point x="1169" y="-195"/>
      <point x="964" y="-234"/>
    </contour>
    <contour>
      <point x="804" y="269" type="qcurve" smooth="yes"/>
      <point x="908" y="269"/>
      <point x="1025" y="412"/>
      <point x="1025" y="538" type="qcurve" smooth="yes"/>
      <point x="1025" y="641"/>
      <point x="928" y="751"/>
      <point x="836" y="751" type="qcurve" smooth="yes"/>
      <point x="734" y="751"/>
      <point x="615" y="610"/>
      <point x="615" y="486" type="qcurve" smooth="yes"/>
      <point x="615" y="382"/>
      <point x="713" y="269"/>
    </contour>
  </outline>
</glyph>
<glyph name="A" format="2">
  <advance width="1376"/>
  <unicode hex="0041"/>
  <anchor x="680" y="1400" name="top"/>
  <anchor x="680" y="-0" name="bottom"/>
  <outline>
    <contour>
      <point x="25" y="0" type="line"/>
      <point x="573" y="1400" type="line"/>
      <point x="787" y="1400" type="line"/>
      <point x="1351" y="0" type="line"/>
      <point x="1123" y="0" type="line"/>
      <point x="988" y="344" type="line"/>
      <point x="376" y="344" type="line"/>
      <point x="247" y="0" type="line"/>
    </contour>
    <contour>
      <point x="432" y="520" type="line"/>
      <point x="931" y="520" type="line"/>
      <point x="675" y="1155" type="line"/>
    </contour>
  </outline>
</glyph>
<glyph name="B" format="2">
  <advance width="1260"/>
  <unicode hex="0042"/>
  <outline>
    <contour>
      <point x="187" y="0" type="line"/>
      <point x="187" y="1400" type="line"/>
      <point x="655" y="1400" type="line" smooth="yes"/>
      <point x="854" y="1400"/>
      <point x="1099" y="1221"/>
      <point x="1099" y="1047" type="qcurve" smooth="yes"/>
      <point x="1099" y="980"/>
      <point x="1035" y="859"/>
      <point x="933" y="768"/>
      <point x="878" y="747" type="qcurve"/>
      <point x="993" y="713"/>
      <point x="1148" y="528"/>
      <point x="1148" y="390" type="qcurve" smooth="yes"/>
      <point x="1148" y="276"/>
      <point x="1034" y="101"/>
      <point x="823" y="0"/>
      <point x="679" y="0" type="qcurve" smooth="yes"/>
    </contour>
    <contour>
      <point x="389" y="163" type="line"/>
      <point x="643" y="163" type="line" smooth="yes"/>
      <point x="794" y="163"/>
      <point x="940" y="280"/>
      <point x="940" y="400" type="qcurve" smooth="yes"/>
      <point x="940" y="518"/>
      <point x="792" y="641"/>
      <point x="636" y="641" type="qcurve" smooth="yes"/>
      <point x="389" y="641" type="line"/>
    </contour>
    <contour>
      <point x="389" y="797" type="line"/>
      <point x="622" y="797" type="line" smooth="yes"/>
      <point x="707" y="797"/>
      <point x="832" y="852"/>
      <point x="901" y="954"/>
      <point x="901" y="1026" type="qcurve" smooth="yes"/>
      <point x="901" y="1129"/>
      <point x="755" y="1237"/>
      <point x="619" y="1237" type="qcurve" smooth="yes"/>
      <point x="389" y="1237" type="line"/>
    </contour>
  </outline>
</glyph>
<glyph name="C" format="2">
  <advance width="1396"/>
  <unicode hex="0043"/>
  <anchor x="782" y="1400" name="top"/>
  <anchor x="782" y="0" name="bottom"/>
  <outline>
    <contour>
      <point x="822" y="-30" type="qcurve" smooth="yes"/>
      <point x="605" y="-30"/>
      <point x="279" y="151"/>
      <point x="99" y="479"/>
      <point x="99" y="700" type="qcurve" smooth="yes"/>
      <point x="99" y="859"/>
      <point x="206" y="1126"/>
      <point x="401" y="1322"/>
      <point x="666" y="1430"/>
      <point x="824" y="1430" type="qcurve" smooth="yes"/>
      <point x="980" y="1430"/>
      <point x="1213" y="1351"/>
      <point x="1298" y="1279" type="qcurve"/>
      <point x="1191" y="1114" type="line"/>
      <point x="1124" y="1175"/>
      <point x="946" y="1235"/>
      <point x="838" y="1235" type="qcurve" smooth="yes"/>
      <point x="718" y="1235"/>
      <point x="523" y="1161"/>
      <point x="385" y="1021"/>
      <point x="311" y="825"/>
      <point x="311" y="701" type="qcurve" smooth="yes"/>
      <point x="311" y="532"/>
      <point x="442" y="293"/>
      <point x="684" y="167"/>
      <point x="849" y="167" type="qcurve" smooth="yes"/>
      <point x="957" y="167"/>
      <point x="1157" y="231"/>
      <point x="1244" y="304" type="qcurve"/>
      <point x="1338" y="132" type="line"/>
      <point x="1236" y="52"/>
      <point x="980" y="-30"/>
    </contour>
  </outline>
</glyph>
<glyph name="D" format="2">
  <advance width="1421"/>
  <unicode hex="0044"/>
  <anchor x="690" y="1400" name="top"/>
  <anchor x="437" y="733" name="strokeshort"/>
  <outline>
    <contour>
      <point x="187" y="0" type="line"/>
      <point x="187" y="1400" type="line"/>
      <point x="616" y="1400" type="line" smooth="yes"/>
      <point x="823" y="1400"/>
      <point x="1141" y="1221"/>
      <point x="1322" y="905"/>
      <point x="1322" y="699" type="qcurve" smooth="yes"/>
      <point x="1322" y="546"/>
      <point x="1219" y="289"/>
      <point x="1030" y="103"/>
      <point x="771" y="0"/>
      <point x="616" y="0" type="qcurve" smooth="yes"/>
    </contour>
    <contour>
      <point x="389" y="188" type="line"/>
      <point x="587" y="188" type="line" smooth="yes"/>
      <point x="705" y="188"/>
      <point x="897" y="259"/>
      <point x="1036" y="392"/>
      <point x="1111" y="581"/>
      <point x="1111" y="699" type="qcurve" smooth="yes"/>
      <point x="1111" y="857"/>
      <point x="980" y="1087"/>
      <point x="745" y="1212"/>
      <point x="587" y="1212" type="qcurve" smooth="yes"/>
      <point x="389" y="1212" type="line"/>
    </contour>
  </outline>
</glyph>
<glyph name="E" format="2">
  <advance width="1219"/>
  <unicode hex="0045"/>
  <anchor x="623" y="1400" name="top"/>
  <anchor x="623" y="0" name="bottom"/>
  <outline>
    <contour>
      <point x="186" y="0" type="line"/>
      <point x="186" y="1400" type="line"/>
      <point x="1077" y="1400" type="line"/>
      <point x="1077" y="1217" type="line"/>
      <point x="392" y="1217" type="line"/>
      <point x="392" y="819" type="line"/>
      <point x="987" y="819" type="line"/>
      <point x="987" y="646" type="line"/>
      <point x="392" y="646" type="line"/>
      <point x="392" y="184" type="line"/>
      <point x="1084" y="184" type="line"/>
      <point x="1084" y="0" type="line"/>
    </contour>
  </outline>
</glyph>
<glyph name="F" format="2">
  <advance width="1158"/>
  <unicode hex="0046"/>
  <outline>
    <contour>
      <point x="186" y="0" type="line"/>
      <point x="186" y="1400" type="line"/>
      <point x="1042" y="1400" type="line"/>
      <point x="1042" y="1211" type="line"/>
      <point x="392" y="1211" type="line"/>
      <point x="392" y="789" type="line"/>
      <point x="981" y="789" type="line"/>
      <point x="981" y="605" type="line"/>
      <point x="392" y="605" type="line"/>
      <point x="392" y="0" type="line"/>
    </contour>
  </outline>
</glyph>
<glyph name="G" format="2">
  <advance width="1504"/>
  <unicode hex="0047"/>
  <anchor x="797" y="1400" name="top"/>
  <anchor x="857" y="0" name="bottom"/>
  <outline>
    <contour>
      <point x="879" y="-30" type="qcurve" smooth="yes"/>
      <point x="712" y="-30"/>
      <point x="428" y="72"/>
      <point x="216" y="263"/>
      <point x="99" y="531"/>
      <point x="99" y="697" type="qcurve" smooth="yes"/>
      <point x="99" y="863"/>
      <point x="212" y="1132"/>
      <point x="416" y="1326"/>
      <point x="693" y="1430"/>
      <point x="857" y="1430" type="qcurve" smooth="yes"/>
      <point x="933" y="1430"/>
      <point x="1088" y="1405"/>
      <point x="1236" y="1351"/>
      <point x="1302" y="1305" type="qcurve"/>
      <point x="1211" y="1142" type="line"/>
      <point x="1134" y="1191"/>
      <point x="954" y="1240"/>
      <point x="860" y="1240" type="qcurve" smooth="yes"/>
      <point x="735" y="1240"/>
      <point x="532" y="1165"/>
      <point x="388" y="1023"/>
      <point x="311" y="824"/>
      <point x="311" y="699" type="qcurve" smooth="yes"/>
      <point x="311" y="525"/>
      <point x="458" y="280"/>
      <point x="718" y="153"/>
      <point x="889" y="153" type="qcurve" smooth="yes"/>
      <point x="975" y="153"/>
      <point x="1111" y="186"/>
      <point x="1151" y="208" type="qcurve"/>
      <point x="1151" y="561" type="line"/>
      <point x="829" y="561" type="line"/>
      <point x="829" y="734" type="line"/>
      <point x="1338" y="734" type="line"/>
      <point x="1338" y="90" type="line"/>
      <point x="1284" y="52"/>
      <point x="1120" y="-2"/>
      <point x="947" y="-30"/>
    </contour>
  </outline>
</glyph>
<glyph name="H" format="2">
  <advance width="1484"/>
  <unicode hex="0048"/>
  <anchor x="742" y="1400" name="top"/>
  <outline>
    <contour>
      <point x="186" y="0" type="line"/>
      <point x="186" y="1400" type="line"/>
      <point x="392" y="1400" type="line"/>
      <point x="392" y="837" type="line"/>
      <point x="1091" y="837" type="line"/>
      <point x="1091" y="1400" type="line"/>
      <point x="1297" y="1400" type="line"/>
      <point x="1297" y="0" type="line"/>
      <point x="1091" y="0" type="line"/>
      <point x="1091" y="648" type="line"/>
      <point x="392" y="648" type="line"/>
      <point x="392" y="0" type="line"/>
    </contour>
  </outline>
</glyph>
<glyph name="I" format="2">
  <advance width="579"/>
  <unicode hex="0049"/>
  <anchor x="289" y="1400" name="top"/>
  <anchor x="289" y="0" name="bottom"/>
  <outline>
    <contour>
      <point x="186" y="0" type="line"/>
      <point x="186" y="1400" type="line"/>
      <point x="392" y="1400" type="line"/>
      <point x="392" y="0" type="line"/>
    </contour>
  </outline>
</glyph>
<glyph name="J" format="2">
  <advance width="997"/>
  <unicode hex="004A"/>
  <anchor x="710" y="1400" name="top"/>
  <outline>
    <contour>
      <point x="364" y="-30" type="qcurve" smooth="yes"/>
      <point x="273" y="-30"/>
      <point x="109" y="17"/>
      <point x="35" y="60" type="qcurve"/>
      <point x="104" y="230" type="line"/>
      <point x="162" y="196"/>
      <point x="279" y="159"/>
      <point x="339" y="159" type="qcurve" smooth="yes"/>
      <point x="469" y="159"/>
      <point x="607" y="282"/>
      <point x="607" y="420" type="qcurve" smooth="yes"/>
      <point x="607" y="1400" type="line"/>
      <point x="813" y="1400" type="line"/>
      <point x="813" y="389" type="line" smooth="yes"/>
      <point x="813" y="262"/>
      <point x="708" y="73"/>
      <point x="508" y="-30"/>
    </contour>
  </outline>
</glyph>
<glyph name="K" format="2">
  <advance width="1376"/>
  <unicode hex="004B"/>
  <anchor x="722" y="-0" name="bottom"/>
  <outline>
    <contour>
      <point x="187" y="0" type="line"/>
      <point x="187" y="1400" type="line"/>
      <point x="389" y="1400" type="line"/>
      <point x="389" y="659" type="line"/>
      <point x="988" y="1400" type="line"/>
      <point x="1237" y="1400" type="line"/>
      <point x="726" y="768" type="line"/>
      <point x="1316" y="0" type="line"/>
      <point x="1055" y="0" type="line"/>
      <point x="593" y="613" type="line"/>
      <point x="389" y="369" type="line"/>
      <point x="389" y="0" type="line"/>
    </contour>
  </outline>
</glyph>
<glyph name="L" format="2">
  <advance width="1083"/>
  <unicode hex="004C"/>
  <anchor x="288" y="1400" name="top"/>
  <anchor x="389" y="1440" name="Anchor_2"/>
  <anchor x="599" y="-0" name="bottom"/>
  <outline>
    <contour>
      <point x="187" y="0" type="line"/>
      <point x="187" y="1400" type="line"/>
      <point x="389" y="1400" type="line"/>
      <point x="389" y="186" type="line"/>
      <point x="1009" y="186" type="line"/>
      <point x="1009" y="0" type="line"/>
    </contour>
  </outline>
</glyph>
<glyph name="M" format="2">
  <advance width="1821"/>
  <unicode hex="004D"/>
  <outline>
    <contour>
      <point x="187" y="0" type="line"/>
      <point x="187" y="1400" type="line"/>
      <point x="383" y="1400" type="line"/>
      <point x="962" y="461" type="line"/>
      <point x="884" y="461" type="line"/>
      <point x="1442" y="1400" type="line"/>
      <point x="1634" y="1400" type="line"/>
      <point x="1634" y="0" type="line"/>
      <point x="1436" y="0" type="line"/>
      <point x="1439" y="1127" type="line"/>
      <point x="1478" y="1114" type="line"/>
      <point x="987" y="309" type="line"/>
      <point x="835" y="309" type="line"/>
      <point x="337" y="1114" type="line"/>
      <point x="370" y="1127" type="line"/>
      <point x="372" y="0" type="line"/>
    </contour>
  </outline>
</glyph>
<glyph name="O" format="2">
  <advance width="1668"/>
  <unicode hex="004F"/>
  <anchor x="834" y="1400" name="top"/>
  <anchor x="1236" y="1400" name="horn"/>
  <anchor x="834" y="0" name="bottom"/>
  <outline>
    <contour>
      <point x="834" y="-30" type="qcurve" smooth="yes"/>
      <point x="677" y="-30"/>
      <point x="409" y="81"/>
      <point x="210" y="279"/>
      <point x="99" y="545"/>
      <point x="99" y="700" type="qcurve" smooth="yes"/>
      <point x="99" y="856"/>
      <point x="210" y="1122"/>
      <point x="409" y="1320"/>
      <point x="677" y="1430"/>
      <point x="834" y="1430" type="qcurve" smooth="yes"/>
      <point x="990" y="1430"/>
      <point x="1257" y="1318"/>
      <point x="1457" y="1118"/>
      <point x="1568" y="853"/>
      <point x="1568" y="700" type="qcurve" smooth="yes"/>
      <point x="1568" y="545"/>
      <point x="1457" y="279"/>
      <point x="1257" y="81"/>
      <point x="990" y="-30"/>
    </contour>
    <contour>
      <point x="834" y="162" type="qcurve" smooth="yes"/>
      <point x="944" y="162"/>
      <point x="1134" y="238"/>
      <point x="1277" y="380"/>
      <point x="1357" y="578"/>
      <point x="1357" y="700" type="qcurve" smooth="yes"/>
      <point x="1357" y="863"/>
      <point x="1218" y="1105"/>
      <point x="981" y="1238"/>
      <point x="834" y="1238" type="qcurve" smooth="yes"/>
      <point x="724" y="1238"/>
      <point x="533" y="1162"/>
      <point x="391" y="1020"/>
      <point x="311" y="822"/>
      <point x="311" y="700" type="qcurve" smooth="yes"/>
      <point x="311" y="537"/>
      <point x="450" y="295"/>
      <point x="687" y="162"/>
    </contour>
  </outline>
</glyph>
<glyph name="P" format="2">
  <advance width="1260"/>
  <unicode hex="0050"/>
  <outline>
    <contour>
      <point x="187" y="0" type="line"/>
      <point x="187" y="1400" type="line"/>
      <point x="683" y="1400" type="line" smooth="yes"/>
      <point x="830" y="1400"/>
      <point x="1056" y="1299"/>
      <point x="1185" y="1108"/>
      <point x="1185" y="975" type="qcurve" smooth="yes"/>
      <point x="1185" y="838"/>
      <point x="1066" y="650"/>
      <point x="840" y="552"/>
      <point x="678" y="552" type="qcurve" smooth="yes"/>
      <point x="389" y="552" type="line"/>
      <point x="389" y="0" type="line"/>
    </contour>
    <contour>
      <point x="389" y="728" type="line"/>
      <point x="683" y="728" type="line" smooth="yes"/>
      <point x="825" y="728"/>
      <point x="982" y="849"/>
      <point x="982" y="970" type="qcurve" smooth="yes"/>
      <point x="982" y="1090"/>
      <point x="822" y="1221"/>
      <point x="685" y="1221" type="qcurve" smooth="yes"/>
      <point x="389" y="1221" type="line"/>
    </contour>
  </outline>
</glyph>
<glyph name="Q" format="2">
  <advance width="1667"/>
  <unicode hex="0051"/>
  <outline>
    <contour>
      <point x="1328" y="0" type="line"/>
      <point x="1248" y="95" type="line"/>
      <point x="1159" y="37"/>
      <point x="946" y="-30"/>
      <point x="829" y="-30" type="qcurve" smooth="yes"/>
      <point x="675" y="-30"/>
      <point x="409" y="80"/>
      <point x="210" y="277"/>
      <point x="99" y="544"/>
      <point x="99" y="700" type="qcurve" smooth="yes"/>
      <point x="99" y="856"/>
      <point x="210" y="1122"/>
      <point x="409" y="1320"/>
      <point x="677" y="1430"/>
      <point x="834" y="1430" type="qcurve" smooth="yes"/>
      <point x="988" y="1430"/>
      <point x="1255" y="1319"/>
      <point x="1456" y="1121"/>
      <point x="1568" y="856"/>
      <point x="1568" y="703" type="qcurve" smooth="yes"/>
      <point x="1568" y="554"/>
      <point x="1464" y="296"/>
      <point x="1372" y="199" type="qcurve"/>
      <point x="1547" y="0" type="line"/>
    </contour>
    <contour>
      <point x="834" y="152" type="qcurve" smooth="yes"/>
      <point x="915" y="152"/>
      <point x="1064" y="197"/>
      <point x="1125" y="239" type="qcurve"/>
      <point x="864" y="542" type="line"/>
      <point x="1070" y="542" type="line"/>
      <point x="1243" y="344" type="line"/>
      <point x="1300" y="411"/>
      <point x="1366" y="592"/>
      <point x="1366" y="700" type="qcurve" smooth="yes"/>
      <point x="1366" y="864"/>
      <point x="1223" y="1108"/>
      <point x="982" y="1243"/>
      <point x="834" y="1243" type="qcurve" smooth="yes"/>
      <point x="723" y="1243"/>
      <point x="531" y="1166"/>
      <point x="387" y="1023"/>
      <point x="306" y="823"/>
      <point x="306" y="700" type="qcurve" smooth="yes"/>
      <point x="306" y="536"/>
      <point x="447" y="289"/>
      <point x="686" y="152"/>
    </contour>
  </outline>
</glyph>
<glyph name="R" format="2">
  <advance width="1322"/>
  <unicode hex="0052"/>
  <anchor x="633" y="1400" name="top"/>
  <anchor x="699" y="-0" name="bottom"/>
  <outline>
    <contour>
      <point x="187" y="0" type="line"/>
      <point x="187" y="1400" type="line"/>
      <point x="708" y="1400" type="line" smooth="yes"/>
      <point x="851" y="1400"/>
      <point x="1061" y="1299"/>
      <point x="1175" y="1114"/>
      <point x="1175" y="988" type="qcurve" smooth="yes"/>
      <point x="1175" y="883"/>
      <point x="1084" y="723"/>
      <point x="920" y="620"/>
      <point x="810" y="603" type="qcurve"/>
      <point x="1242" y="0" type="line"/>
      <point x="995" y="0" type="line"/>
      <point x="593" y="574" type="line"/>
      <point x="389" y="574" type="line"/>
      <point x="389" y="0" type="line"/>
    </contour>
    <contour>
      <point x="389" y="745" type="line"/>
      <point x="672" y="745" type="line" smooth="yes"/>
      <point x="813" y="745"/>
      <point x="971" y="868"/>
      <point x="971" y="979" type="qcurve" smooth="yes"/>
      <point x="971" y="1095"/>
      <point x="831" y="1226"/>
      <point x="689" y="1226" type="qcurve" smooth="yes"/>
      <point x="389" y="1226" type="line"/>
    </contour>
  </outline>
</glyph>
<glyph name="S" format="2">
  <advance width="1254"/>
  <unicode hex="0053"/>
  <anchor x="655" y="1400" name="top"/>
  <anchor x="636" y="0" name="bottom"/>
  <outline>
    <contour>
      <point x="636" y="-30" type="qcurve" smooth="yes"/>
      <point x="493" y="-30"/>
      <point x="221" y="51"/>
      <point x="127" y="127" type="qcurve"/>
      <point x="230" y="286" type="line"/>
      <point x="280" y="243"/>
      <point x="413" y="182"/>
      <point x="562" y="149"/>
      <point x="638" y="149" type="qcurve" smooth="yes"/>
      <point x="780" y="149"/>
      <point x="955" y="259"/>
      <point x="955" y="365" type="qcurve" smooth="yes"/>
      <point x="955" y="444"/>
      <point x="837" y="553"/>
      <point x="678" y="599" type="qcurve" smooth="yes"/>
      <point x="530" y="642" type="line" smooth="yes"/>
      <point x="334" y="698"/>
      <point x="155" y="883"/>
      <point x="155" y="1022" type="qcurve" smooth="yes"/>
      <point x="155" y="1114"/>
      <point x="229" y="1264"/>
      <point x="365" y="1372"/>
      <point x="549" y="1429"/>
      <point x="659" y="1429" type="qcurve" smooth="yes"/>
      <point x="798" y="1429"/>
      <point x="1035" y="1349"/>
      <point x="1112" y="1281" type="qcurve"/>
      <point x="1007" y="1128" type="line"/>
      <point x="963" y="1166"/>
      <point x="847" y="1222"/>
      <point x="715" y="1252"/>
      <point x="648" y="1252" type="qcurve" smooth="yes"/>
      <point x="560" y="1252"/>
      <point x="426" y="1200"/>
      <point x="351" y="1103"/>
      <point x="351" y="1033" type="qcurve" smooth="yes"/>
      <point x="351" y="983"/>
      <point x="400" y="907"/>
      <point x="521" y="845"/>
      <point x="627" y="814" type="qcurve" smooth="yes"/>
      <point x="784" y="767" type="line" smooth="yes"/>
      <point x="975" y="711"/>
      <point x="1153" y="530"/>
      <point x="1153" y="385" type="qcurve" smooth="yes"/>
      <point x="1153" y="262"/>
      <point x="1031" y="75"/>
      <point x="800" y="-30"/>
    </contour>
  </outline>
</glyph>
<glyph name="T" format="2">
  <advance width="1115"/>
  <unicode hex="0054"/>
  <anchor x="557" y="1400" name="top"/>
  <anchor x="557" y="-0" name="bottom"/>
  <anchor x="558" y="699" name="strokeshort"/>
  <outline>
    <contour>
      <point x="456" y="0" type="line"/>
      <point x="456" y="1214" type="line"/>
      <point x="58" y="1214" type="line"/>
      <point x="58" y="1400" type="line"/>
      <point x="1057" y="1400" type="line"/>
      <point x="1057" y="1214" type="line"/>
      <point x="659" y="1214" type="line"/>
      <point x="659" y="0" type="line"/>
    </contour>
  </outline>
</glyph>
<glyph name="U" format="2">
  <advance width="1475"/>
  <unicode hex="0055"/>
  <anchor x="737" y="1400" name="top"/>
  <anchor x="1297" y="1400" name="horn"/>
  <anchor x="737" y="0" name="bottom"/>
  <outline>
    <contour>
      <point x="737" y="-30" type="qcurve" smooth="yes"/>
      <point x="552" y="-30"/>
      <point x="303" y="122"/>
      <point x="177" y="380"/>
      <point x="177" y="541" type="qcurve" smooth="yes"/>
      <point x="177" y="1400" type="line"/>
      <point x="383" y="1400" type="line"/>
      <point x="383" y="545" type="line" smooth="yes"/>
      <point x="383" y="354"/>
      <point x="575" y="165"/>
      <point x="737" y="165" type="qcurve" smooth="yes"/>
      <point x="900" y="165"/>
      <point x="1091" y="354"/>
      <point x="1091" y="545" type="qcurve" smooth="yes"/>
      <point x="1091" y="1400" type="line"/>
      <point x="1297" y="1400" type="line"/>
      <point x="1297" y="541" type="line" smooth="yes"/>
      <point x="1297" y="381"/>
      <point x="1172" y="122"/>
      <point x="923" y="-30"/>
    </contour>
  </outline>
</glyph>
<glyph name="V" format="2">
  <advance width="1311"/>
  <unicode hex="0056"/>
  <outline>
    <contour>
      <point x="558" y="0" type="line"/>
      <point x="16" y="1400" type="line"/>
      <point x="243" y="1400" type="line"/>
      <point x="667" y="274" type="line"/>
      <point x="1073" y="1400" type="line"/>
      <point x="1296" y="1400" type="line"/>
      <point x="769" y="0" type="line"/>
    </contour>
  </outline>
</glyph>
<glyph name="W" format="2">
  <advance width="2031"/>
  <unicode hex="0057"/>
  <anchor x="1017" y="1400" name="top"/>
  <outline>
    <contour>
      <point x="472" y="0" type="line"/>
      <point x="51" y="1400" type="line"/>
      <point x="264" y="1400" type="line"/>
      <point x="581" y="274" type="line"/>
      <point x="913" y="1400" type="line"/>
      <point x="1126" y="1400" type="line"/>
      <point x="1456" y="275" type="line"/>
      <point x="1773" y="1400" type="line"/>
      <point x="1980" y="1400" type="line"/>
      <point x="1561" y="0" type="line"/>
      <point x="1341" y="0" type="line"/>
      <point x="1018" y="1094" type="line"/>
      <point x="690" y="0" type="line"/>
    </contour>
  </outline>
</glyph>
<glyph name="X" format="2">
  <advance width="1332"/>
  <unicode hex="0058"/>
  <outline>
    <contour>
      <point x="59" y="0" type="line"/>
      <point x="517" y="718" type="line"/>
      <point x="84" y="1400" type="line"/>
      <point x="326" y="1400" type="line"/>
      <point x="663" y="866" type="line"/>
      <point x="1025" y="1400" type="line"/>
      <point x="1258" y="1400" type="line"/>
      <point x="801" y="712" type="line"/>
      <point x="1273" y="0" type="line"/>
      <point x="1030" y="0" type="line"/>
      <point x="654" y="569" type="line"/>
      <point x="294" y="0" type="line"/>
    </contour>
  </outline>
</glyph>
<glyph name="Y" format="2">
  <advance width="1231"/>
  <unicode hex="0059"/>
  <anchor x="615" y="1400" name="top"/>
  <anchor x="616" y="0" name="bottom"/>
  <outline>
    <contour>
      <point x="512" y="0" type="line"/>
      <point x="512" y="608" type="line"/>
      <point x="17" y="1400" type="line"/>
      <point x="254" y="1400" type="line"/>
      <point x="620" y="807" type="line"/>
      <point x="983" y="1400" type="line"/>
      <point x="1214" y="1400" type="line"/>
      <point x="719" y="607" type="line"/>
      <point x="719" y="0" type="line"/>
    </contour>
  </outline>
</glyph>
<glyph name="Z" format="2">
  <advance width="1166"/>
  <unicode hex="005A"/>
  <anchor x="590" y="1400" name="top"/>
  <outline>
    <contour>
      <point x="95" y="0" type="line"/>
      <point x="95" y="169" type="line"/>
      <point x="830" y="1214" type="line"/>
      <point x="118" y="1214" type="line"/>
      <point x="118" y="1400" type="line"/>
      <point x="1074" y="1400" type="line"/>
      <point x="1074" y="1231" type="line"/>
      <point x="341" y="186" type="line"/>
      <point x="1081" y="186" type="line"/>
      <point x="1081" y="0" type="line"/>
    </contour>
  </outline>
</glyph>
<glyph name="bracketleft" format="2">
  <advance width="686"/>
  <unicode hex="005B"/>
  <outline>
    <contour>
      <point x="202" y="-220" type="line"/>
      <point x="202" y="1600" type="line"/>
      <point x="572" y="1600" type="line"/>
      <point x="572" y="1453" type="line"/>
      <point x="367" y="1453" type="line"/>
      <point x="367" y="-73" type="line"/>
      <point x="572" y="-73" type="line"/>
      <point x="572" y="-220" type="line"/>
    </contour>
  </outline>
</glyph>
<glyph name="backslash" format="2">
  <advance width="909"/>
  <unicode hex="005C"/>
  <outline>
    <contour>
      <point x="737" y="-230" type="line"/>
      <point x="5" y="1544" type="line"/>
      <point x="172" y="1610" type="line"/>
      <point x="904" y="-164" type="line"/>
    </contour>
  </outline>
</glyph>
<glyph name="bracketright" format="2">
  <advance width="686"/>
  <unicode hex="005D"/>
  <outline>
    <contour>
      <point x="484" y="-220" type="line"/>
      <point x="114" y="-220" type="line"/>
      <point x="114" y="-73" type="line"/>
      <point x="319" y="-73" type="line"/>
      <point x="319" y="1453" type="line"/>
      <point x="114" y="1453" type="line"/>
      <point x="114" y="1600" type="line"/>
      <point x="484" y="1600" type="line"/>
    </contour>
  </outline>
</glyph>
<glyph name="asciicircum" format="2">
  <advance width="1296"/>
  <unicode hex="005E"/>
  <outline>
    <contour>
      <point x="193" y="830" type="line"/>
      <point x="549" y="1400" type="line"/>
      <point x="747" y="1400" type="line"/>
      <point x="1103" y="830" type="line"/>
      <point x="915" y="830" type="line"/>
      <point x="648" y="1257" type="line"/>
      <point x="381" y="830" type="line"/>
    </contour>
  </outline>
</glyph>
<glyph name="underscore" format="2">
  <advance width="1085"/>
  <unicode hex="005F"/>
  <outline>
    <contour>
      <point x="27" y="-321" type="line"/>
      <point x="27" y="-159" type="line"/>
      <point x="1058" y="-159" type="line"/>
      <point x="1058" y="-321" type="line"/>
    </contour>
  </outline>
</glyph>
<glyph name="b" format="2">
  <advance width="1287"/>
  <unicode hex="0062"/>
  <outline>
    <contour>
      <point x="722" y="-30" type="qcurve" smooth="yes"/>
      <point x="622" y="-30"/>
      <point x="463" y="29"/>
      <point x="346" y="132"/>
      <point x="309" y="199" type="qcurve"/>
      <point x="338" y="243" type="line"/>
      <point x="338" y="0" type="line"/>
      <point x="157" y="0" type="line"/>
      <point x="157" y="1440" type="line"/>
      <point x="355" y="1440" type="line"/>
      <point x="355" y="756" type="line"/>
      <point x="315" y="801" type="line"/>
      <point x="381" y="897"/>
      <point x="581" y="1014"/>
      <point x="719" y="1014" type="qcurve" smooth="yes"/>
      <point x="866" y="1014"/>
      <point x="1090" y="874"/>
      <point x="1216" y="636"/>
      <point x="1216" y="492" type="qcurve" smooth="yes"/>
      <point x="1216" y="381"/>
      <point x="1144" y="190"/>
      <point x="1012" y="49"/>
      <point x="831" y="-30"/>
    </contour>
    <contour>
      <point x="685" y="148" type="qcurve" smooth="yes"/>
      <point x="781" y="148"/>
      <point x="930" y="232"/>
      <point x="1016" y="386"/>
      <point x="1016" y="492" type="qcurve" smooth="yes"/>
      <point x="1016" y="598"/>
      <point x="931" y="753"/>
      <point x="782" y="836"/>
      <point x="685" y="836" type="qcurve" smooth="yes"/>
      <point x="589" y="836"/>
      <point x="440" y="753"/>
      <point x="355" y="598"/>
      <point x="355" y="492" type="qcurve" smooth="yes"/>
      <point x="355" y="386"/>
      <point x="440" y="232"/>
      <point x="590" y="148"/>
    </contour>
  </outline>
</glyph>
<glyph name="c" format="2">
  <advance width="1025"/>
  <unicode hex="0063"/>
  <anchor x="577" y="984" name="top"/>
  <anchor x="565" y="0" name="bottom"/>
  <outline>
    <contour>
      <point x="605" y="-30" type="qcurve" smooth="yes"/>
      <point x="450" y="-30"/>
      <point x="209" y="106"/>
      <point x="71" y="342"/>
      <point x="71" y="492" type="qcurve" smooth="yes"/>
      <point x="71" y="606"/>
      <point x="153" y="796"/>
      <point x="301" y="937"/>
      <point x="502" y="1014"/>
      <point x="620" y="1014" type="qcurve" smooth="yes"/>
      <point x="718" y="1014"/>
      <point x="884" y="963"/>
      <point x="954" y="910" type="qcurve"/>
      <point x="855" y="757" type="line"/>
      <point x="810" y="797"/>
      <point x="690" y="836"/>
      <point x="623" y="836" type="qcurve" smooth="yes"/>
      <point x="515" y="836"/>
      <point x="359" y="755"/>
      <point x="273" y="602"/>
      <point x="273" y="493" type="qcurve" smooth="yes"/>
      <point x="273" y="331"/>
      <point x="461" y="148"/>
      <point x="622" y="148" type="qcurve" smooth="yes"/>
      <point x="698" y="148"/>
      <point x="830" y="202"/>
      <point x="873" y="247" type="qcurve"/>
      <point x="972" y="96" type="line"/>
      <point x="894" y="37"/>
      <point x="706" y="-30"/>
    </contour>
  </outline>
</glyph>
<glyph name="e" format="2">
  <advance width="1138"/>
  <unicode hex="0065"/>
  <anchor x="585" y="984" name="top"/>
  <anchor x="568" y="0" name="bottom"/>
  <outline>
    <contour>
      <point x="603" y="-30" type="qcurve" smooth="yes"/>
      <point x="445" y="-30"/>
      <point x="206" y="100"/>
      <point x="71" y="334"/>
      <point x="71" y="490" type="qcurve" smooth="yes"/>
      <point x="71" y="603"/>
      <point x="148" y="795"/>
      <point x="289" y="936"/>
      <point x="477" y="1014"/>
      <point x="589" y="1014" type="qcurve" smooth="yes"/>
      <point x="709" y="1014"/>
      <point x="898" y="929"/>
      <point x="1023" y="776"/>
      <point x="1076" y="570"/>
      <point x="1060" y="450" type="qcurve"/>
      <point x="265" y="450" type="line"/>
      <point x="262" y="356"/>
      <point x="346" y="215"/>
      <point x="506" y="136"/>
      <point x="615" y="136" type="qcurve" smooth="yes"/>
      <point x="697" y="136"/>
      <point x="854" y="187"/>
      <point x="916" y="237" type="qcurve"/>
      <point x="996" y="92" type="line"/>
      <point x="948" y="53"/>
      <point x="815" y="-2"/>
      <point x="671" y="-30"/>
    </contour>
    <contour>
      <point x="276" y="601" type="qcurve"/>
      <point x="863" y="601" type="line"/>
      <point x="859" y="720"/>
      <point x="717" y="854"/>
      <point x="585" y="854" type="qcurve" smooth="yes"/>
      <point x="457" y="854"/>
      <point x="289" y="720"/>
    </contour>
  </outline>
</glyph>
<glyph name="f" format="2">
  <advance width="767"/>
  <unicode hex="0066"/>
  <outline>
    <contour>
      <point x="256" y="0" type="line"/>
      <point x="256" y="1159" type="line" smooth="yes"/>
      <point x="256" y="1304"/>
      <point x="423" y="1470"/>
      <point x="569" y="1470" type="qcurve" smooth="yes"/>
      <point x="623" y="1470"/>
      <point x="711" y="1447"/>
      <point x="747" y="1427" type="qcurve"/>
      <point x="708" y="1266" type="line"/>
      <point x="679" y="1282"/>
      <point x="624" y="1294"/>
      <point x="599" y="1294" type="qcurve" smooth="yes"/>
      <point x="536" y="1294"/>
      <point x="457" y="1230"/>
      <point x="457" y="1151" type="qcurve" smooth="yes"/>
      <point x="457" y="985" type="line"/>
      <point x="718" y="985" type="line"/>
      <point x="718" y="816" type="line"/>
      <point x="457" y="816" type="line"/>
      <point x="457" y="0" type="line"/>
    </contour>
    <contour>
      <point x="54" y="816" type="line"/>
      <point x="54" y="985" type="line"/>
      <point x="284" y="985" type="line"/>
      <point x="284" y="816" type="line"/>
    </contour>
  </outline>
</glyph>
<glyph name="g" format="2">
  <advance width="1193"/>
  <unicode hex="0067"/>
  <anchor x="579" y="984" name="top"/>
  <outline>
    <contour>
      <point x="545" y="-450" type="qcurve" smooth="yes"/>
      <point x="435" y="-450"/>
      <point x="259" y="-411"/>
      <point x="135" y="-337"/>
      <point x="69" y="-233"/>
      <point x="69" y="-169" type="qcurve" smooth="yes"/>
      <point x="69" y="-117"/>
      <point x="125" y="-28"/>
      <point x="234" y="37"/>
      <point x="315" y="54" type="qcurve"/>
      <point x="256" y="83"/>
      <point x="198" y="158"/>
      <point x="198" y="206" type="qcurve" smooth="yes"/>
      <point x="198" y="248"/>
      <point x="246" y="320"/>
      <point x="335" y="378"/>
      <point x="457" y="415"/>
      <point x="530" y="420" type="qcurve"/>
      <point x="577" y="329" type="line"/>
      <point x="514" y="330"/>
      <point x="423" y="308"/>
      <point x="374" y="269"/>
      <point x="374" y="241" type="qcurve" smooth="yes"/>
      <point x="374" y="205"/>
      <point x="456" y="174"/>
      <point x="528" y="168" type="qcurve" smooth="yes"/>
      <point x="696" y="155" type="line" smooth="yes"/>
      <point x="821" y="145"/>
      <point x="997" y="84"/>
      <point x="1090" y="-28"/>
      <point x="1090" y="-113" type="qcurve" smooth="yes"/>
      <point x="1090" y="-184"/>
      <point x="1012" y="-308"/>
      <point x="867" y="-399"/>
      <point x="667" y="-450"/>
    </contour>
    <contour>
      <point x="563" y="-309" type="qcurve" smooth="yes"/>
      <point x="718" y="-309"/>
      <point x="895" y="-214"/>
      <point x="895" y="-140" type="qcurve" smooth="yes"/>
      <point x="895" y="-83"/>
      <point x="775" y="-19"/>
      <point x="653" y="-10" type="qcurve" smooth="yes"/>
      <point x="473" y="3" type="line"/>
      <point x="405" y="-2"/>
      <point x="308" y="-42"/>
      <point x="257" y="-105"/>
      <point x="257" y="-146" type="qcurve" smooth="yes"/>
      <point x="257" y="-194"/>
      <point x="331" y="-268"/>
      <point x="468" y="-309"/>
    </contour>
    <contour>
      <point x="557" y="313" type="qcurve" smooth="yes"/>
      <point x="435" y="313"/>
      <point x="241" y="406"/>
      <point x="127" y="565"/>
      <point x="127" y="664" type="qcurve" smooth="yes"/>
      <point x="127" y="762"/>
      <point x="241" y="920"/>
      <point x="436" y="1014"/>
      <point x="557" y="1014" type="qcurve" smooth="yes"/>
      <point x="678" y="1014"/>
      <point x="872" y="921"/>
      <point x="986" y="762"/>
      <point x="986" y="664" type="qcurve" smooth="yes"/>
      <point x="986" y="566"/>
      <point x="873" y="407"/>
      <point x="679" y="313"/>
    </contour>
    <contour>
      <point x="557" y="467" type="qcurve" smooth="yes"/>
      <point x="629" y="467"/>
      <point x="739" y="516"/>
      <point x="801" y="605"/>
      <point x="801" y="664" type="qcurve" smooth="yes"/>
      <point x="801" y="752"/>
      <point x="665" y="861"/>
      <point x="557" y="861" type="qcurve" smooth="yes"/>
      <point x="485" y="861"/>
      <point x="375" y="811"/>
      <point x="313" y="722"/>
      <point x="313" y="664" type="qcurve" smooth="yes"/>
      <point x="313" y="576"/>
      <point x="449" y="467"/>
    </contour>
    <contour>
      <point x="712" y="824" type="line"/>
      <point x="638" y="965" type="line"/>
      <point x="1154" y="984" type="line"/>
      <point x="1152" y="818" type="line"/>
    </contour>
  </outline>
</glyph>
<glyph name="h" format="2">
  <advance width="1220"/>
  <unicode hex="0068"/>
  <anchor x="258" y="1440" name="top"/>
  <anchor x="362" y="1210" name="strokeshort"/>
  <outline>
    <contour>
      <point x="157" y="0" type="line"/>
      <point x="157" y="1440" type="line"/>
      <point x="359" y="1440" type="line"/>
      <point x="359" y="787" type="line"/>
      <point x="318" y="831" type="line"/>
      <point x="384" y="925"/>
      <point x="570" y="1015"/>
      <point x="672" y="1015" type="qcurve" smooth="yes"/>
      <point x="806" y="1015"/>
      <point x="984" y="907"/>
      <point x="1073" y="737"/>
      <point x="1073" y="646" type="qcurve" smooth="yes"/>
      <point x="1073" y="0" type="line"/>
      <point x="871" y="0" type="line"/>
      <point x="871" y="588" type="line" smooth="yes"/>
      <point x="871" y="695"/>
      <point x="737" y="828"/>
      <point x="621" y="828" type="qcurve" smooth="yes"/>
      <point x="545" y="829"/>
      <point x="427" y="762"/>
      <point x="359" y="640"/>
      <point x="359" y="559" type="qcurve" smooth="yes"/>
      <point x="359" y="0" type="line"/>
    </contour>
  </outline>
</glyph>
<glyph name="k" format="2">
  <advance width="1100"/>
  <unicode hex="006B"/>
  <anchor x="591" y="0" name="bottom"/>
  <outline>
    <contour>
      <point x="157" y="0" type="line"/>
      <point x="157" y="1440" type="line"/>
      <point x="356" y="1440" type="line"/>
      <point x="356" y="569" type="line"/>
      <point x="762" y="984" type="line"/>
      <point x="998" y="984" type="line"/>
      <point x="650" y="612" type="line"/>
      <point x="1054" y="0" type="line"/>
      <point x="815" y="0" type="line"/>
      <point x="505" y="483" type="line"/>
      <point x="356" y="332" type="line"/>
      <point x="356" y="0" type="line"/>
    </contour>
  </outline>
</glyph>
<glyph name="l" format="2">
  <advance width="643"/>
  <unicode hex="006C"/>
  <anchor x="258" y="1440" name="top"/>
  <anchor x="359" y="1440" name="Anchor_2"/>
  <anchor x="258" y="0" name="bottom"/>
  <outline>
    <contour>
      <point x="424" y="-28" type="qcurve" smooth="yes"/>
      <point x="346" y="-28"/>
      <point x="225" y="29"/>
      <point x="157" y="150"/>
      <point x="157" y="244" type="qcurve" smooth="yes"/>
      <point x="157" y="1440" type="line"/>
      <point x="359" y="1440" type="line"/>
      <point x="359" y="309" type="line" smooth="yes"/>
      <point x="359" y="220"/>
      <point x="409" y="151"/>
      <point x="468" y="151" type="qcurve" smooth="yes"/>
      <point x="490" y="151"/>
      <point x="539" y="163"/>
      <point x="565" y="174" type="qcurve"/>
      <point x="602" y="7" type="line"/>
      <point x="557" y="-9"/>
      <point x="466" y="-28"/>
    </contour>
  </outline>
</glyph>
<glyph name="m" format="2">
  <advance width="1880"/>
  <unicode hex="006D"/>
  <outline>
    <contour>
      <point x="157" y="0" type="line"/>
      <point x="157" y="984" type="line"/>
      <point x="356" y="984" type="line"/>
      <point x="356" y="846" type="line"/>
      <point x="397" y="905"/>
      <point x="501" y="979"/>
      <point x="618" y="1014"/>
      <point x="677" y="1014" type="qcurve" smooth="yes"/>
      <point x="801" y="1014"/>
      <point x="961" y="907"/>
      <point x="995" y="824" type="qcurve"/>
      <point x="1071" y="934"/>
      <point x="1266" y="1014"/>
      <point x="1362" y="1014" type="qcurve" smooth="yes"/>
      <point x="1498" y="1014"/>
      <point x="1661" y="906"/>
      <point x="1733" y="739"/>
      <point x="1733" y="651" type="qcurve" smooth="yes"/>
      <point x="1733" y="0" type="line"/>
      <point x="1535" y="0" type="line"/>
      <point x="1535" y="593" type="line" smooth="yes"/>
      <point x="1535" y="699"/>
      <point x="1418" y="830"/>
      <point x="1305" y="830" type="qcurve" smooth="yes"/>
      <point x="1231" y="830"/>
      <point x="1113" y="765"/>
      <point x="1044" y="650"/>
      <point x="1044" y="575" type="qcurve" smooth="yes"/>
      <point x="1044" y="0" type="line"/>
      <point x="846" y="0" type="line"/>
      <point x="846" y="593" type="line" smooth="yes"/>
      <point x="846" y="699"/>
      <point x="729" y="830"/>
      <point x="616" y="830" type="qcurve" smooth="yes"/>
      <point x="543" y="830"/>
      <point x="424" y="765"/>
      <point x="356" y="650"/>
      <point x="356" y="575" type="qcurve" smooth="yes"/>
      <point x="356" y="0" type="line"/>
    </contour>
  </outline>
</glyph>
<glyph name="n" format="2">
  <advance width="1218"/>
  <unicode hex="006E"/>
  <anchor x="621" y="984" name="top"/>
  <anchor x="614" y="0" name="bottom"/>
  <outline>
    <contour>
      <point x="157" y="0" type="line"/>
      <point x="157" y="984" type="line"/>
      <point x="356" y="984" type="line"/>
      <point x="356" y="854" type="line"/>
      <point x="418" y="939"/>
      <point x="585" y="1014"/>
      <point x="673" y="1014" type="qcurve" smooth="yes"/>
      <point x="807" y="1014"/>
      <point x="983" y="906"/>
      <point x="1070" y="739"/>
      <point x="1070" y="651" type="qcurve" smooth="yes"/>
      <point x="1070" y="0" type="line"/>
      <point x="872" y="0" type="line"/>
      <point x="872" y="589" type="line" smooth="yes"/>
      <point x="872" y="698"/>
      <point x="738" y="830"/>
      <point x="621" y="830" type="qcurve" smooth="yes"/>
      <point x="546" y="830"/>
      <point x="425" y="763"/>
      <point x="356" y="640"/>
      <point x="356" y="560" type="qcurve" smooth="yes"/>
      <point x="356" y="0" type="line"/>
    </contour>
  </outline>
</glyph>
<glyph name="o" format="2">
  <advance width="1203"/>
  <unicode hex="006F"/>
  <anchor x="602" y="984" name="top"/>
  <anchor x="993" y="984" name="horn"/>
  <anchor x="602" y="0" name="bottom"/>
  <outline>
    <contour>
      <point x="602" y="-30" type="qcurve" smooth="yes"/>
      <point x="448" y="-30"/>
      <point x="208" y="112"/>
      <point x="71" y="350"/>
      <point x="71" y="492" type="qcurve" smooth="yes"/>
      <point x="71" y="597"/>
      <point x="150" y="786"/>
      <point x="293" y="931"/>
      <point x="486" y="1014"/>
      <point x="602" y="1014" type="qcurve" smooth="yes"/>
      <point x="755" y="1014"/>
      <point x="995" y="872"/>
      <point x="1132" y="634"/>
      <point x="1132" y="492" type="qcurve" smooth="yes"/>
      <point x="1132" y="387"/>
      <point x="1054" y="198"/>
      <point x="911" y="53"/>
      <point x="717" y="-30"/>
    </contour>
    <contour>
      <point x="602" y="148" type="qcurve" smooth="yes"/>
      <point x="698" y="148"/>
      <point x="847" y="232"/>
      <point x="932" y="386"/>
      <point x="932" y="492" type="qcurve" smooth="yes"/>
      <point x="932" y="598"/>
      <point x="847" y="753"/>
      <point x="698" y="836"/>
      <point x="602" y="836" type="qcurve" smooth="yes"/>
      <point x="505" y="836"/>
      <point x="356" y="753"/>
      <point x="271" y="598"/>
      <point x="271" y="492" type="qcurve" smooth="yes"/>
      <point x="271" y="386"/>
      <point x="357" y="232"/>
      <point x="506" y="148"/>
    </contour>
  </outline>
</glyph>
<glyph name="q" format="2">
  <advance width="1287"/>
  <unicode hex="0071"/>
  <outline>
    <contour>
      <point x="932" y="-420" type="line"/>
      <point x="932" y="222" type="line"/>
      <point x="972" y="178" type="line"/>
      <point x="906" y="82"/>
      <point x="706" y="-30"/>
      <point x="568" y="-30" type="qcurve" smooth="yes"/>
      <point x="421" y="-30"/>
      <point x="197" y="111"/>
      <point x="71" y="348"/>
      <point x="71" y="492" type="qcurve" smooth="yes"/>
      <point x="71" y="603"/>
      <point x="143" y="794"/>
      <point x="275" y="935"/>
      <point x="456" y="1014"/>
      <point x="565" y="1014" type="qcurve" smooth="yes"/>
      <point x="670" y="1014"/>
      <point x="827" y="958"/>
      <point x="940" y="859"/>
      <point x="978" y="796" type="qcurve"/>
      <point x="949" y="751" type="line"/>
      <point x="949" y="984" type="line"/>
      <point x="1130" y="984" type="line"/>
      <point x="1130" y="-420" type="line"/>
    </contour>
    <contour>
      <point x="602" y="148" type="qcurve" smooth="yes"/>
      <point x="698" y="148"/>
      <point x="847" y="232"/>
      <point x="932" y="386"/>
      <point x="932" y="492" type="qcurve" smooth="yes"/>
      <point x="932" y="598"/>
      <point x="847" y="753"/>
      <point x="698" y="836"/>
      <point x="602" y="836" type="qcurve" smooth="yes"/>
      <point x="506" y="836"/>
      <point x="357" y="753"/>
      <point x="271" y="598"/>
      <point x="271" y="492" type="qcurve" smooth="yes"/>
      <point x="271" y="386"/>
      <point x="356" y="232"/>
      <point x="505" y="148"/>
    </contour>
  </outline>
</glyph>
<glyph name="r" format="2">
  <advance width="810"/>
  <unicode hex="0072"/>
  <anchor x="468" y="984" name="top"/>
  <anchor x="257" y="0" name="bottom"/>
  <outline>
    <contour>
      <point x="157" y="0" type="line"/>
      <point x="157" y="984" type="line"/>
      <point x="356" y="984" type="line"/>
      <point x="356" y="844" type="line"/>
      <point x="414" y="939"/>
      <point x="575" y="1015"/>
      <point x="667" y="1015" type="qcurve" smooth="yes"/>
      <point x="697" y="1015"/>
      <point x="751" y="1009"/>
      <point x="776" y="1003" type="qcurve"/>
      <point x="749" y="798" type="line"/>
      <point x="720" y="807"/>
      <point x="660" y="816"/>
      <point x="631" y="816" type="qcurve" smooth="yes"/>
      <point x="511" y="816"/>
      <point x="356" y="668"/>
      <point x="356" y="542" type="qcurve" smooth="yes"/>
      <point x="356" y="0" type="line"/>
    </contour>
  </outline>
</glyph>
<glyph name="s" format="2">
  <advance width="979"/>
  <unicode hex="0073"/>
  <anchor x="494" y="984" name="top"/>
  <anchor x="481" y="0" name="bottom"/>
  <outline>
    <contour>
      <point x="481" y="-29" type="qcurve" smooth="yes"/>
      <point x="362" y="-29"/>
      <point x="153" y="40"/>
      <point x="82" y="99" type="qcurve"/>
      <point x="161" y="246" type="line"/>
      <point x="227" y="192"/>
      <point x="397" y="131"/>
      <point x="481" y="131" type="qcurve" smooth="yes"/>
      <point x="582" y="131"/>
      <point x="695" y="204"/>
      <point x="695" y="269" type="qcurve" smooth="yes"/>
      <point x="695" y="331"/>
      <point x="598" y="390"/>
      <point x="464" y="422" type="qcurve"/>
      <point x="281" y="462"/>
      <point x="116" y="602"/>
      <point x="116" y="725" type="qcurve" smooth="yes"/>
      <point x="116" y="813"/>
      <point x="213" y="948"/>
      <point x="383" y="1024"/>
      <point x="494" y="1024" type="qcurve" smooth="yes"/>
      <point x="603" y="1024"/>
      <point x="794" y="962"/>
      <point x="864" y="904" type="qcurve"/>
      <point x="790" y="755" type="line"/>
      <point x="754" y="789"/>
      <point x="658" y="837"/>
      <point x="550" y="864"/>
      <point x="495" y="864" type="qcurve" smooth="yes"/>
      <point x="408" y="864"/>
      <point x="299" y="795"/>
      <point x="299" y="733" type="qcurve" smooth="yes"/>
      <point x="299" y="670"/>
      <point x="404" y="610"/>
      <point x="529" y="581" type="qcurve"/>
      <point x="716" y="539"/>
      <point x="879" y="402"/>
      <point x="879" y="279" type="qcurve" smooth="yes"/>
      <point x="879" y="186"/>
      <point x="779" y="47"/>
      <point x="600" y="-29"/>
    </contour>
  </outline>
</glyph>
<glyph name="t" format="2">
  <advance width="854"/>
  <unicode hex="0074"/>
  <anchor x="458" y="1440" name="Anchor_2"/>
  <anchor x="528" y="0" name="bottom"/>
  <anchor x="401" y="524" name="strokeshort"/>
  <outline>
    <contour>
      <point x="568" y="-30" type="qcurve" smooth="yes"/>
      <point x="426" y="-30"/>
      <point x="256" y="134"/>
      <point x="256" y="304" type="qcurve" smooth="yes"/>
      <point x="256" y="1274" type="line"/>
      <point x="458" y="1274" type="line"/>
      <point x="458" y="985" type="line"/>
      <point x="739" y="985" type="line"/>
      <point x="739" y="816" type="line"/>
      <point x="458" y="816" type="line"/>
      <point x="458" y="351" type="line" smooth="yes"/>
      <point x="458" y="243"/>
      <point x="538" y="155"/>
      <point x="613" y="155" type="qcurve" smooth="yes"/>
      <point x="648" y="155"/>
      <point x="710" y="171"/>
      <point x="735" y="184" type="qcurve"/>
      <point x="774" y="19" type="line"/>
      <point x="731" y="-2"/>
      <point x="624" y="-30"/>
    </contour>
    <contour>
      <point x="35" y="816" type="line"/>
      <point x="35" y="985" type="line"/>
      <point x="284" y="985" type="line"/>
      <point x="284" y="816" type="line"/>
    </contour>
  </outline>
</glyph>
<glyph name="v" format="2">
  <advance width="1030"/>
  <unicode hex="0076"/>
  <outline>
    <contour>
      <point x="405" y="0" type="line"/>
      <point x="32" y="984" type="line"/>
      <point x="251" y="984" type="line"/>
      <point x="536" y="170" type="line"/>
      <point x="504" y="170" type="line"/>
      <point x="784" y="984" type="line"/>
      <point x="997" y="984" type="line"/>
      <point x="630" y="0" type="line"/>
    </contour>
  </outline>
</glyph>
<glyph name="w" format="2">
  <advance width="1563"/>
  <unicode hex="0077"/>
  <anchor x="782" y="982" name="top"/>
  <outline>
    <contour>
      <point x="344" y="0" type="line"/>
      <point x="32" y="984" type="line"/>
      <point x="232" y="984" type="line"/>
      <point x="453" y="230" type="line"/>
      <point x="694" y="984" type="line"/>
      <point x="891" y="984" type="line"/>
      <point x="1116" y="230" type="line"/>
      <point x="1342" y="984" type="line"/>
      <point x="1531" y="984" type="line"/>
      <point x="1219" y="0" type="line"/>
      <point x="1012" y="0" type="line"/>
      <point x="786" y="729" type="line"/>
      <point x="551" y="0" type="line"/>
    </contour>
  </outline>
</glyph>
<glyph name="x" format="2">
  <advance width="1042"/>
  <unicode hex="0078"/>
  <outline>
    <contour>
      <point x="33" y="-1" type="line"/>
      <point x="389" y="496" type="line"/>
      <point x="53" y="984" type="line"/>
      <point x="304" y="984" type="line"/>
      <point x="524" y="640" type="line"/>
      <point x="738" y="984" type="line"/>
      <point x="980" y="984" type="line"/>
      <point x="655" y="502" type="line"/>
      <point x="1009" y="0" type="line"/>
      <point x="755" y="0" type="line"/>
      <point x="517" y="360" type="line"/>
      <point x="275" y="1" type="line"/>
    </contour>
  </outline>
</glyph>
<glyph name="y" format="2">
  <advance width="1046"/>
  <unicode hex="0079"/>
  <anchor x="523" y="984" name="top"/>
  <anchor x="847" y="0" name="bottom"/>
  <outline>
    <contour>
      <point x="229" y="-449" type="qcurve" smooth="yes"/>
      <point x="179" y="-449"/>
      <point x="80" y="-426"/>
      <point x="31" y="-397" type="qcurve"/>
      <point x="77" y="-226" type="line"/>
      <point x="108" y="-246"/>
      <point x="181" y="-266"/>
      <point x="209" y="-266" type="qcurve" smooth="yes"/>
      <point x="282" y="-266"/>
      <point x="363" y="-196"/>
      <point x="388" y="-124" type="qcurve" smooth="yes"/>
      <point x="424" y="-18" type="line"/>
      <point x="35" y="984" type="line"/>
      <point x="253" y="984" type="line"/>
      <point x="536" y="203" type="line"/>
      <point x="813" y="984" type="line"/>
      <point x="1023" y="984" type="line"/>
      <point x="595" y="-151" type="line"/>
      <point x="550" y="-268"/>
      <point x="440" y="-397"/>
      <point x="308" y="-449"/>
    </contour>
  </outline>
</glyph>
<glyph name="z" format="2">
  <advance width="966"/>
  <unicode hex="007A"/>
  <anchor x="483" y="984" name="top"/>
  <outline>
    <contour>
      <point x="94" y="0" type="line"/>
      <point x="94" y="145" type="line"/>
      <point x="620" y="806" type="line"/>
      <point x="104" y="806" type="line"/>
      <point x="104" y="984" type="line"/>
      <point x="864" y="984" type="line"/>
      <point x="864" y="839" type="line"/>
      <point x="347" y="178" type="line"/>
      <point x="872" y="178" type="line"/>
      <point x="872" y="0" type="line"/>
    </contour>
  </outline>
</glyph>
<glyph name="braceleft" format="2">
  <advance width="686"/>
  <unicode hex="007B"/>
  <outline>
    <contour>
      <point x="572" y="-225" type="line"/>
      <point x="381" y="-248"/>
      <point x="205" y="-101"/>
      <point x="228" y="54" type="qcurve"/>
      <point x="285" y="465" type="line" smooth="yes"/>
      <point x="294" y="527"/>
      <point x="273" y="594"/>
      <point x="194" y="618"/>
      <point x="114" y="618" type="qcurve"/>
      <point x="114" y="765" type="line"/>
      <point x="194" y="765"/>
      <point x="273" y="790"/>
      <point x="294" y="856"/>
      <point x="285" y="917" type="qcurve" smooth="yes"/>
      <point x="230" y="1322" type="line"/>
      <point x="206" y="1480"/>
      <point x="383" y="1628"/>
      <point x="572" y="1605" type="qcurve"/>
      <point x="572" y="1458" type="line"/>
      <point x="469" y="1467"/>
      <point x="393" y="1404"/>
      <point x="403" y="1327" type="qcurve" smooth="yes"/>
      <point x="456" y="925" type="line"/>
      <point x="471" y="821"/>
      <point x="405" y="708"/>
      <point x="318" y="692" type="qcurve"/>
      <point x="318" y="690" type="line"/>
      <point x="407" y="673"/>
      <point x="472" y="560"/>
      <point x="457" y="456" type="qcurve"/>
      <point x="403" y="53" type="line" smooth="yes"/>
      <point x="393" y="-23"/>
      <point x="468" y="-86"/>
      <point x="572" y="-78" type="qcurve"/>
    </contour>
  </outline>
</glyph>
<glyph name="braceright" format="2">
  <advance width="686"/>
  <unicode hex="007D"/>
  <outline>
    <contour>
      <point x="114" y="-225" type="qcurve"/>
      <point x="114" y="-78" type="line"/>
      <point x="219" y="-86"/>
      <point x="294" y="-23"/>
      <point x="283" y="53" type="qcurve" smooth="yes"/>
      <point x="229" y="456" type="line" smooth="yes"/>
      <point x="215" y="560"/>
      <point x="279" y="673"/>
      <point x="367" y="690" type="qcurve"/>
      <point x="367" y="692" type="line"/>
      <point x="282" y="708"/>
      <point x="216" y="821"/>
      <point x="230" y="925" type="qcurve"/>
      <point x="283" y="1327" type="line" smooth="yes"/>
      <point x="293" y="1404"/>
      <point x="217" y="1467"/>
      <point x="114" y="1458" type="qcurve"/>
      <point x="114" y="1605" type="line"/>
      <point x="303" y="1628"/>
      <point x="480" y="1480"/>
      <point x="456" y="1322" type="qcurve"/>
      <point x="401" y="917" type="line" smooth="yes"/>
      <point x="392" y="856"/>
      <point x="413" y="790"/>
      <point x="492" y="765"/>
      <point x="572" y="765" type="qcurve"/>
      <point x="572" y="618" type="line"/>
      <point x="492" y="618"/>
      <point x="413" y="594"/>
      <point x="392" y="527"/>
      <point x="401" y="465" type="qcurve" smooth="yes"/>
      <point x="458" y="54" type="line"/>
      <point x="481" y="-101"/>
      <point x="306" y="-248"/>
    </contour>
  </outline>
</glyph>
<glyph name="asciitilde" format="2">
  <advance width="1296"/>
  <unicode hex="007E"/>
  <outline>
    <contour>
      <point x="875" y="515" type="qcurve" smooth="yes"/>
      <point x="815" y="515"/>
      <point x="692" y="560"/>
      <point x="574" y="618"/>
      <point x="468" y="663"/>
      <point x="425" y="663" type="qcurve" smooth="yes"/>
      <point x="368" y="663"/>
      <point x="258" y="593"/>
      <point x="215" y="531" type="qcurve"/>
      <point x="133" y="646" type="line"/>
      <point x="192" y="731"/>
      <point x="341" y="814"/>
      <point x="421" y="814" type="qcurve" smooth="yes"/>
      <point x="482" y="814"/>
      <point x="605" y="769"/>
      <point x="722" y="711"/>
      <point x="828" y="666"/>
      <point x="871" y="666" type="qcurve" smooth="yes"/>
      <point x="928" y="666"/>
      <point x="1038" y="736"/>
      <point x="1081" y="804" type="qcurve"/>
      <point x="1162" y="682" type="line"/>
      <point x="1102" y="596"/>
      <point x="953" y="515"/>
    </contour>
  </outline>
</glyph>
<glyph name="exclamdown" format="2">
  <advance width="664"/>
  <unicode hex="00A1"/>
  <outline>
    <contour>
      <point x="207" y="-409" type="line"/>
      <point x="239" y="522" type="line"/>
      <point x="411" y="522" type="line"/>
      <point x="443" y="-409" type="line"/>
    </contour>
    <contour>
      <point x="325" y="742" type="qcurve" smooth="yes"/>
      <point x="265" y="742"/>
      <point x="178" y="819"/>
      <point x="178" y="882" type="qcurve" smooth="yes"/>
      <point x="178" y="923"/>
      <point x="217" y="986"/>
      <point x="284" y="1021"/>
      <point x="325" y="1021" type="qcurve" smooth="yes"/>
      <point x="386" y="1021"/>
      <point x="472" y="944"/>
      <point x="472" y="882" type="qcurve" smooth="yes"/>
      <point x="472" y="840"/>
      <point x="433" y="777"/>
      <point x="366" y="742"/>
    </contour>
  </outline>
</glyph>
<glyph name="cent" format="2">
  <advance width="1296"/>
  <unicode hex="00A2"/>
  <outline>
    <contour>
      <point x="628" y="-160" type="line"/>
      <point x="628" y="6" type="line"/>
      <point x="504" y="23"/>
      <point x="313" y="155"/>
      <point x="205" y="362"/>
      <point x="205" y="492" type="qcurve" smooth="yes"/>
      <point x="205" y="622"/>
      <point x="314" y="827"/>
      <point x="505" y="957"/>
      <point x="628" y="976" type="qcurve"/>
      <point x="628" y="1144" type="line"/>
      <point x="776" y="1144" type="line"/>
      <point x="776" y="981" type="line"/>
      <point x="852" y="976"/>
      <point x="988" y="926"/>
      <point x="1046" y="882" type="qcurve"/>
      <point x="955" y="755" type="line"/>
      <point x="918" y="782"/>
      <point x="826" y="814"/>
      <point x="774" y="817" type="qcurve"/>
      <point x="774" y="169" type="line"/>
      <point x="834" y="175"/>
      <point x="939" y="219"/>
      <point x="974" y="249" type="qcurve"/>
      <point x="1056" y="116" type="line"/>
      <point x="994" y="68"/>
      <point x="856" y="12"/>
      <point x="776" y="4" type="qcurve"/>
      <point x="776" y="-160" type="line"/>
    </contour>
    <contour>
      <point x="629" y="173" type="qcurve"/>
      <point x="629" y="813" type="line"/>
      <point x="548" y="803"/>
      <point x="431" y="721"/>
      <point x="368" y="585"/>
      <point x="368" y="493" type="qcurve" smooth="yes"/>
      <point x="368" y="355"/>
      <point x="508" y="190"/>
    </contour>
  </outline>
</glyph>
<glyph name="sterling" format="2">
  <advance width="1296"/>
  <unicode hex="00A3"/>
  <outline>
    <contour>
      <point x="177" y="0" type="line"/>
      <point x="177" y="159" type="line"/>
      <point x="270" y="185"/>
      <point x="391" y="259"/>
      <point x="451" y="369"/>
      <point x="451" y="449" type="qcurve" smooth="yes"/>
      <point x="451" y="514"/>
      <point x="406" y="658"/>
      <point x="346" y="811"/>
      <point x="301" y="966"/>
      <point x="301" y="1041" type="qcurve" smooth="yes"/>
      <point x="301" y="1157"/>
      <point x="419" y="1332"/>
      <point x="625" y="1430"/>
      <point x="759" y="1430" type="qcurve" smooth="yes"/>
      <point x="835" y="1430"/>
      <point x="979" y="1394"/>
      <point x="1100" y="1331"/>
      <point x="1142" y="1292" type="qcurve"/>
      <point x="1059" y="1156" type="line"/>
      <point x="990" y="1215"/>
      <point x="842" y="1265"/>
      <point x="758" y="1265" type="qcurve" smooth="yes"/>
      <point x="623" y="1265"/>
      <point x="494" y="1125"/>
      <point x="494" y="1020" type="qcurve" smooth="yes"/>
      <point x="494" y="956"/>
      <point x="532" y="809"/>
      <point x="582" y="657"/>
      <point x="621" y="509"/>
      <point x="621" y="443" type="qcurve" smooth="yes"/>
      <point x="621" y="371"/>
      <point x="561" y="227"/>
      <point x="471" y="162" type="qcurve"/>
      <point x="1176" y="162" type="line"/>
      <point x="1176" y="0" type="line"/>
    </contour>
    <contour>
      <point x="156" y="615" type="line"/>
      <point x="156" y="760" type="line"/>
      <point x="1017" y="760" type="line"/>
      <point x="1017" y="615" type="line"/>
    </contour>
  </outline>
</glyph>
<glyph name="currency" format="2">
  <advance width="1296"/>
  <unicode hex="00A4"/>
  <outline>
    <contour>
      <point x="268" y="128" type="line"/>
      <point x="153" y="241" type="line"/>
      <point x="306" y="393" type="line"/>
      <point x="269" y="445"/>
      <point x="235" y="561"/>
      <point x="235" y="620" type="qcurve" smooth="yes"/>
      <point x="235" y="681"/>
      <point x="271" y="799"/>
      <point x="306" y="849" type="qcurve"/>
      <point x="153" y="1001" type="line"/>
      <point x="268" y="1115" type="line"/>
      <point x="420" y="962" type="line"/>
      <point x="472" y="1001"/>
      <point x="588" y="1034"/>
      <point x="648" y="1034" type="qcurve" smooth="yes"/>
      <point x="710" y="1034"/>
      <point x="826" y="999"/>
      <point x="876" y="962" type="qcurve"/>
      <point x="1028" y="1115" type="line"/>
      <point x="1143" y="1001" type="line"/>
      <point x="990" y="849" type="line"/>
      <point x="1026" y="799"/>
      <point x="1063" y="682"/>
      <point x="1063" y="620" type="qcurve" smooth="yes"/>
      <point x="1063" y="560"/>
      <point x="1026" y="443"/>
      <point x="990" y="393" type="qcurve"/>
      <point x="1143" y="241" type="line"/>
      <point x="1028" y="128" type="line"/>
      <point x="876" y="281" type="line"/>
      <point x="824" y="243"/>
      <point x="709" y="209"/>
      <point x="648" y="209" type="qcurve" smooth="yes"/>
      <point x="585" y="209"/>
      <point x="471" y="244"/>
      <point x="420" y="281" type="qcurve"/>
    </contour>
    <contour>
      <point x="648" y="367" type="qcurve" smooth="yes"/>
      <point x="722" y="367"/>
      <point x="838" y="433"/>
      <point x="903" y="547"/>
      <point x="903" y="620" type="qcurve" smooth="yes"/>
      <point x="903" y="694"/>
      <point x="837" y="810"/>
      <point x="721" y="875"/>
      <point x="648" y="875" type="qcurve" smooth="yes"/>
      <point x="575" y="875"/>
      <point x="460" y="810"/>
      <point x="393" y="694"/>
      <point x="393" y="620" type="qcurve" smooth="yes"/>
      <point x="393" y="547"/>
      <point x="459" y="433"/>
      <point x="575" y="367"/>
    </contour>
  </outline>
</glyph>
<glyph name="yen" format="2">
  <advance width="1296"/>
  <unicode hex="00A5"/>
  <outline>
    <contour>
      <point x="551" y="0" type="line"/>
      <point x="551" y="296" type="line"/>
      <point x="169" y="296" type="line"/>
      <point x="169" y="434" type="line"/>
      <point x="551" y="434" type="line"/>
      <point x="551" y="613" type="line"/>
      <point x="169" y="613" type="line"/>
      <point x="169" y="751" type="line"/>
      <point x="473" y="751" type="line"/>
      <point x="67" y="1400" type="line"/>
      <point x="278" y="1400" type="line"/>
      <point x="646" y="789" type="line"/>
      <point x="1026" y="1400" type="line"/>
      <point x="1229" y="1400" type="line"/>
      <point x="820" y="751" type="line"/>
      <point x="1123" y="751" type="line"/>
      <point x="1123" y="613" type="line"/>
      <point x="740" y="613" type="line"/>
      <point x="740" y="434" type="line"/>
      <point x="1123" y="434" type="line"/>
      <point x="1123" y="296" type="line"/>
      <point x="740" y="296" type="line"/>
      <point x="740" y="0" type="line"/>
    </contour>
  </outline>
</glyph>
<glyph name="section" format="2">
  <advance width="1253"/>
  <unicode hex="00A7"/>
  <outline>
    <contour>
      <point x="608" y="-450" type="qcurve" smooth="yes"/>
      <point x="473" y="-450"/>
      <point x="231" y="-360"/>
      <point x="158" y="-295" type="qcurve"/>
      <point x="244" y="-142" type="line"/>
      <point x="317" y="-212"/>
      <point x="516" y="-285"/>
      <point x="615" y="-285" type="qcurve" smooth="yes"/>
      <point x="741" y="-285"/>
      <point x="894" y="-182"/>
      <point x="894" y="-90" type="qcurve" smooth="yes"/>
      <point x="894" y="-34"/>
      <point x="842" y="40"/>
      <point x="714" y="97"/>
      <point x="601" y="128" type="qcurve"/>
      <point x="450" y="166"/>
      <point x="257" y="267"/>
      <point x="162" y="409"/>
      <point x="162" y="510" type="qcurve" smooth="yes"/>
      <point x="162" y="588"/>
      <point x="236" y="716"/>
      <point x="367" y="810"/>
      <point x="539" y="860"/>
      <point x="637" y="859" type="qcurve"/>
      <point x="631" y="735" type="line"/>
      <point x="550" y="735"/>
      <point x="417" y="683"/>
      <point x="338" y="586"/>
      <point x="338" y="520" type="qcurve" smooth="yes"/>
      <point x="338" y="418"/>
      <point x="509" y="316"/>
      <point x="669" y="277" type="qcurve"/>
      <point x="874" y="229"/>
      <point x="1069" y="67"/>
      <point x="1069" y="-84" type="qcurve" smooth="yes"/>
      <point x="1069" y="-195"/>
      <point x="953" y="-360"/>
      <point x="745" y="-450"/>
    </contour>
    <contour>
      <point x="641" y="127" type="qcurve"/>
      <point x="641" y="250" type="line"/>
      <point x="728" y="250"/>
      <point x="866" y="309"/>
      <point x="947" y="418"/>
      <point x="947" y="496" type="qcurve" smooth="yes"/>
      <point x="947" y="556"/>
      <point x="882" y="633"/>
      <point x="736" y="691"/>
      <point x="616" y="721" type="qcurve" smooth="yes"/>
      <point x="408" y="774"/>
      <point x="223" y="938"/>
      <point x="223" y="1081" type="qcurve" smooth="yes"/>
      <point x="223" y="1181"/>
      <point x="334" y="1339"/>
      <point x="529" y="1430"/>
      <point x="656" y="1430" type="qcurve" smooth="yes"/>
      <point x="781" y="1430"/>
      <point x="1000" y="1355"/>
      <point x="1082" y="1283" type="qcurve"/>
      <point x="1002" y="1128" type="line"/>
      <point x="956" y="1173"/>
      <point x="839" y="1234"/>
      <point x="709" y="1266"/>
      <point x="644" y="1266" type="qcurve" smooth="yes"/>
      <point x="532" y="1266"/>
      <point x="391" y="1168"/>
      <point x="391" y="1086" type="qcurve" smooth="yes"/>
      <point x="391" y="1022"/>
      <point x="455" y="946"/>
      <point x="589" y="896"/>
      <point x="694" y="869" type="qcurve"/>
      <point x="907" y="819"/>
      <point x="1130" y="656"/>
      <point x="1130" y="510" type="qcurve" smooth="yes"/>
      <point x="1130" y="394"/>
      <point x="1001" y="222"/>
      <point x="780" y="127"/>
    </contour>
  </outline>
</glyph>
<glyph name="copyright" format="2">
  <advance width="1676"/>
  <unicode hex="00A9"/>
  <outline>
    <contour>
      <point x="838" y="-35" type="qcurve" smooth="yes"/>
      <point x="680" y="-35"/>
      <point x="411" y="76"/>
      <point x="211" y="274"/>
      <point x="100" y="540"/>
      <point x="100" y="695" type="qcurve" smooth="yes"/>
      <point x="100" y="850"/>
      <point x="211" y="1116"/>
      <point x="412" y="1314"/>
      <point x="681" y="1425"/>
      <point x="838" y="1425" type="qcurve" smooth="yes"/>
      <point x="995" y="1425"/>
      <point x="1263" y="1312"/>
      <point x="1464" y="1112"/>
      <point x="1576" y="847"/>
      <point x="1576" y="695" type="qcurve" smooth="yes"/>
      <point x="1576" y="540"/>
      <point x="1464" y="274"/>
      <point x="1263" y="76"/>
      <point x="995" y="-35"/>
    </contour>
    <contour>
      <point x="838" y="73" type="qcurve" smooth="yes"/>
      <point x="962" y="73"/>
      <point x="1185" y="161"/>
      <point x="1358" y="326"/>
      <point x="1457" y="554"/>
      <point x="1457" y="695" type="qcurve" smooth="yes"/>
      <point x="1457" y="836"/>
      <point x="1357" y="1063"/>
      <point x="1184" y="1228"/>
      <point x="962" y="1316"/>
      <point x="838" y="1316" type="qcurve" smooth="yes"/>
      <point x="714" y="1316"/>
      <point x="492" y="1228"/>
      <point x="319" y="1063"/>
      <point x="219" y="836"/>
      <point x="219" y="695" type="qcurve" smooth="yes"/>
      <point x="219" y="554"/>
      <point x="319" y="326"/>
      <point x="491" y="161"/>
      <point x="714" y="73"/>
    </contour>
    <contour>
      <point x="862" y="287" type="qcurve" smooth="yes"/>
      <point x="736" y="287"/>
      <point x="547" y="387"/>
      <point x="441" y="570"/>
      <point x="441" y="694" type="qcurve" smooth="yes"/>
      <point x="441" y="813"/>
      <point x="549" y="997"/>
      <point x="740" y="1103"/>
      <point x="863" y="1103" type="qcurve" smooth="yes"/>
      <point x="956" y="1103"/>
      <point x="1092" y="1058"/>
      <point x="1142" y="1016" type="qcurve"/>
      <point x="1073" y="906" type="line"/>
      <point x="1035" y="941"/>
      <point x="934" y="974"/>
      <point x="872" y="974" type="qcurve" smooth="yes"/>
      <point x="739" y="974"/>
      <point x="580" y="824"/>
      <point x="580" y="695" type="qcurve" smooth="yes"/>
      <point x="580" y="563"/>
      <point x="741" y="415"/>
      <point x="879" y="415" type="qcurve" smooth="yes"/>
      <point x="936" y="415"/>
      <point x="1051" y="450"/>
      <point x="1103" y="490" type="qcurve"/>
      <point x="1165" y="377" type="line"/>
      <point x="1106" y="334"/>
      <point x="957" y="287"/>
    </contour>
  </outline>
</glyph>
<glyph name="ordfeminine" format="2">
  <advance width="798"/>
  <unicode hex="00AA"/>
  <anchor x="382" y="1368" name="top"/>
  <anchor x="382" y="722" name="bottom"/>
  <outline>
    <contour>
      <point x="317" y="702" type="qcurve" smooth="yes"/>
      <point x="216" y="702"/>
      <point x="86" y="814"/>
      <point x="86" y="908" type="qcurve" smooth="yes"/>
      <point x="86" y="979"/>
      <point x="185" y="1081"/>
      <point x="397" y="1126"/>
      <point x="566" y="1110" type="qcurve"/>
      <point x="569" y="1006" type="line"/>
      <point x="453" y="1022"/>
      <point x="301" y="1008"/>
      <point x="226" y="955"/>
      <point x="226" y="914" type="qcurve" smooth="yes"/>
      <point x="226" y="869"/>
      <point x="297" y="819"/>
      <point x="356" y="819" type="qcurve" smooth="yes"/>
      <point x="431" y="819"/>
      <point x="533" y="899"/>
      <point x="533" y="963" type="qcurve" smooth="yes"/>
      <point x="533" y="1133" type="line" smooth="yes"/>
      <point x="533" y="1195"/>
      <point x="452" y="1271"/>
      <point x="360" y="1271" type="qcurve" smooth="yes"/>
      <point x="308" y="1271"/>
      <point x="207" y="1240"/>
      <point x="164" y="1209" type="qcurve"/>
      <point x="122" y="1316" type="line"/>
      <point x="173" y="1351"/>
      <point x="307" y="1394"/>
      <point x="383" y="1394" type="qcurve" smooth="yes"/>
      <point x="526" y="1394"/>
      <point x="680" y="1265"/>
      <point x="680" y="1134" type="qcurve" smooth="yes"/>
      <point x="680" y="722" type="line"/>
      <point x="544" y="722" type="line"/>
      <point x="544" y="798" type="line"/>
      <point x="509" y="750"/>
      <point x="389" y="702"/>
    </contour>
  </outline>
</glyph>
<glyph name="logicalnot" format="2">
  <advance width="1296"/>
  <unicode hex="00AC"/>
  <outline>
    <contour>
      <point x="994" y="406" type="line"/>
      <point x="994" y="777" type="line"/>
      <point x="145" y="777" type="line"/>
      <point x="145" y="926" type="line"/>
      <point x="1151" y="926" type="line"/>
      <point x="1151" y="406" type="line"/>
    </contour>
  </outline>
</glyph>
<glyph name="registered" format="2">
  <advance width="1223"/>
  <unicode hex="00AE"/>
  <anchor x="615" y="1166" name="top"/>
  <anchor x="634" y="806" name="bottom"/>
  <outline>
    <contour>
      <point x="612" y="476" type="qcurve" smooth="yes"/>
      <point x="462" y="476"/>
      <point x="225" y="611"/>
      <point x="88" y="842"/>
      <point x="88" y="986" type="qcurve" smooth="yes"/>
      <point x="88" y="1132"/>
      <point x="226" y="1364"/>
      <point x="463" y="1498"/>
      <point x="612" y="1498" type="qcurve" smooth="yes"/>
      <point x="759" y="1498"/>
      <point x="997" y="1361"/>
      <point x="1136" y="1129"/>
      <point x="1136" y="986" type="qcurve" smooth="yes"/>
      <point x="1136" y="842"/>
      <point x="997" y="611"/>
      <point x="760" y="476"/>
    </contour>
    <contour>
      <point x="612" y="551" type="qcurve" smooth="yes"/>
      <point x="729" y="551"/>
      <point x="929" y="660"/>
      <point x="1051" y="856"/>
      <point x="1051" y="986" type="qcurve" smooth="yes"/>
      <point x="1051" y="1117"/>
      <point x="929" y="1313"/>
      <point x="729" y="1422"/>
      <point x="612" y="1422" type="qcurve" smooth="yes"/>
      <point x="494" y="1422"/>
      <point x="294" y="1313"/>
      <point x="172" y="1117"/>
      <point x="172" y="986" type="qcurve" smooth="yes"/>
      <point x="172" y="856"/>
      <point x="294" y="660"/>
      <point x="494" y="551"/>
    </contour>
    <contour>
      <point x="425" y="712" type="line"/>
      <point x="425" y="1260" type="line"/>
      <point x="644" y="1260" type="line" smooth="yes"/>
      <point x="732" y="1260"/>
      <point x="840" y="1173"/>
      <point x="840" y="1096" type="qcurve" smooth="yes"/>
      <point x="840" y="1036"/>
      <point x="759" y="958"/>
      <point x="695" y="946" type="qcurve"/>
      <point x="868" y="712" type="line"/>
      <point x="755" y="712" type="line"/>
      <point x="596" y="930" type="line"/>
      <point x="518" y="930" type="line"/>
      <point x="518" y="712" type="line"/>
    </contour>
    <contour>
      <point x="518" y="1007" type="line"/>
      <point x="628" y="1007" type="line" smooth="yes"/>
      <point x="683" y="1007"/>
      <point x="744" y="1052"/>
      <point x="744" y="1093" type="qcurve" smooth="yes"/>
      <point x="744" y="1135"/>
      <point x="690" y="1183"/>
      <point x="635" y="1183" type="qcurve" smooth="yes"/>
      <point x="518" y="1183" type="line"/>
    </contour>
  </outline>
</glyph>
<glyph name="degree" format="2">
  <advance width="915"/>
  <unicode hex="00B0"/>
  <outline>
    <contour>
      <point x="459" y="679" type="qcurve" smooth="yes"/>
      <point x="354" y="679"/>
      <point x="182" y="778"/>
      <point x="79" y="947"/>
      <point x="79" y="1050" type="qcurve" smooth="yes"/>
      <point x="79" y="1153"/>
      <point x="182" y="1320"/>
      <point x="354" y="1420"/>
      <point x="459" y="1420" type="qcurve" smooth="yes"/>
      <point x="564" y="1420"/>
      <point x="735" y="1320"/>
      <point x="836" y="1153"/>
      <point x="836" y="1050" type="qcurve" smooth="yes"/>
      <point x="836" y="948"/>
      <point x="735" y="779"/>
      <point x="564" y="679"/>
    </contour>
    <contour>
      <point x="459" y="820" type="qcurve" smooth="yes"/>
      <point x="527" y="820"/>
      <point x="632" y="878"/>
      <point x="689" y="982"/>
      <point x="689" y="1050" type="qcurve" smooth="yes"/>
      <point x="689" y="1153"/>
      <point x="563" y="1279"/>
      <point x="459" y="1279" type="qcurve" smooth="yes"/>
      <point x="390" y="1279"/>
      <point x="285" y="1221"/>
      <point x="226" y="1118"/>
      <point x="226" y="1050" type="qcurve" smooth="yes"/>
      <point x="226" y="949"/>
      <point x="356" y="820"/>
    </contour>
  </outline>
</glyph>
<glyph name="twosuperior" format="2">
  <advance width="830"/>
  <unicode hex="00B2"/>
  <outline>
    <contour>
      <point x="99" y="722" type="line"/>
      <point x="99" y="829" type="line"/>
      <point x="303" y="1009" type="line" smooth="yes"/>
      <point x="396" y="1092"/>
      <point x="515" y="1214"/>
      <point x="570" y="1314"/>
      <point x="570" y="1366" type="qcurve" smooth="yes"/>
      <point x="570" y="1439"/>
      <point x="464" y="1521"/>
      <point x="371" y="1521" type="qcurve" smooth="yes"/>
      <point x="309" y="1521"/>
      <point x="195" y="1479"/>
      <point x="155" y="1438" type="qcurve"/>
      <point x="100" y="1549" type="line"/>
      <point x="157" y="1599"/>
      <point x="306" y="1652"/>
      <point x="389" y="1652" type="qcurve" smooth="yes"/>
      <point x="534" y="1652"/>
      <point x="712" y="1503"/>
      <point x="712" y="1380" type="qcurve" smooth="yes"/>
      <point x="712" y="1317"/>
      <point x="658" y="1198"/>
      <point x="537" y="1062"/>
      <point x="439" y="975" type="qcurve" smooth="yes"/>
      <point x="297" y="850" type="line"/>
      <point x="735" y="850" type="line"/>
      <point x="735" y="722" type="line"/>
    </contour>
  </outline>
</glyph>
<glyph name="threesuperior" format="2">
  <advance width="819"/>
  <unicode hex="00B3"/>
  <outline>
    <contour>
      <point x="373" y="702" type="qcurve" smooth="yes"/>
      <point x="283" y="702"/>
      <point x="119" y="757"/>
      <point x="76" y="796" type="qcurve"/>
      <point x="126" y="919" type="line"/>
      <point x="170" y="880"/>
      <point x="300" y="835"/>
      <point x="364" y="835" type="qcurve" smooth="yes"/>
      <point x="457" y="835"/>
      <point x="571" y="924"/>
      <point x="571" y="999" type="qcurve" smooth="yes"/>
      <point x="571" y="1075"/>
      <point x="454" y="1160"/>
      <point x="358" y="1160" type="qcurve" smooth="yes"/>
      <point x="334" y="1160"/>
      <point x="277" y="1153"/>
      <point x="247" y="1146" type="qcurve"/>
      <point x="203" y="1245" type="line"/>
      <point x="495" y="1505" type="line"/>
      <point x="84" y="1505" type="line"/>
      <point x="84" y="1632" type="line"/>
      <point x="676" y="1632" type="line"/>
      <point x="676" y="1516" type="line"/>
      <point x="397" y="1256" type="line"/>
      <point x="481" y="1257"/>
      <point x="627" y="1198"/>
      <point x="717" y="1079"/>
      <point x="717" y="990" type="qcurve" smooth="yes"/>
      <point x="717" y="904"/>
      <point x="629" y="775"/>
      <point x="474" y="702"/>
    </contour>
  </outline>
</glyph>
<glyph name="mu" format="2">
  <advance width="1225"/>
  <unicode hex="00B5"/>
  <outline>
    <contour>
      <point x="157" y="-420" type="line"/>
      <point x="157" y="984" type="line"/>
      <point x="356" y="984" type="line"/>
      <point x="356" y="418" type="line" smooth="yes"/>
      <point x="356" y="339"/>
      <point x="424" y="220"/>
      <point x="540" y="154"/>
      <point x="613" y="154" type="qcurve" smooth="yes"/>
      <point x="685" y="154"/>
      <point x="801" y="220"/>
      <point x="869" y="339"/>
      <point x="869" y="418" type="qcurve" smooth="yes"/>
      <point x="869" y="984" type="line"/>
      <point x="1068" y="984" type="line"/>
      <point x="1068" y="0" type="line"/>
      <point x="887" y="0" type="line"/>
      <point x="887" y="119" type="line"/>
      <point x="832" y="46"/>
      <point x="683" y="-30"/>
      <point x="593" y="-30" type="qcurve" smooth="yes"/>
      <point x="509" y="-30"/>
      <point x="375" y="22"/>
      <point x="329" y="77" type="qcurve"/>
      <point x="351" y="-420" type="line"/>
    </contour>
  </outline>
</glyph>
<glyph name="paragraph" format="2">
  <advance width="1274"/>
  <unicode hex="00B6"/>
  <outline>
    <contour>
      <point x="511" y="-420" type="line"/>
      <point x="511" y="661" type="line"/>
      <point x="543" y="621" type="line"/>
      <point x="399" y="621"/>
      <point x="189" y="720"/>
      <point x="74" y="896"/>
      <point x="74" y="1010" type="qcurve" smooth="yes"/>
      <point x="74" y="1125"/>
      <point x="189" y="1301"/>
      <point x="399" y="1400"/>
      <point x="543" y="1400" type="qcurve" smooth="yes"/>
      <point x="1216" y="1400" type="line"/>
      <point x="1216" y="1264" type="line"/>
      <point x="1000" y="1264" type="line"/>
      <point x="1000" y="-420" type="line"/>
      <point x="847" y="-420" type="line"/>
      <point x="847" y="1264" type="line"/>
      <point x="664" y="1264" type="line"/>
      <point x="664" y="-420" type="line"/>
    </contour>
  </outline>
</glyph>
<glyph name="onesuperior" format="2">
  <advance width="631"/>
  <unicode hex="00B9"/>
  <outline>
    <contour>
      <point x="327" y="722" type="line"/>
      <point x="327" y="1471" type="line"/>
      <point x="84" y="1387" type="line"/>
      <point x="44" y="1504" type="line"/>
      <point x="456" y="1652" type="line"/>
      <point x="467" y="1652" type="line"/>
      <point x="467" y="722" type="line"/>
    </contour>
  </outline>
</glyph>
<glyph name="ordmasculine" format="2">
  <advance width="851"/>
  <unicode hex="00BA"/>
  <anchor x="425" y="1367" name="top"/>
  <anchor x="689" y="1367" name="horn"/>
  <anchor x="425" y="722" name="bottom"/>
  <outline>
    <contour>
      <point x="425" y="702" type="qcurve" smooth="yes"/>
      <point x="321" y="702"/>
      <point x="159" y="796"/>
      <point x="65" y="952"/>
      <point x="65" y="1045" type="qcurve" smooth="yes"/>
      <point x="65" y="1136"/>
      <point x="159" y="1293"/>
      <point x="321" y="1387"/>
      <point x="425" y="1387" type="qcurve" smooth="yes"/>
      <point x="530" y="1387"/>
      <point x="693" y="1293"/>
      <point x="786" y="1137"/>
      <point x="786" y="1045" type="qcurve" smooth="yes"/>
      <point x="786" y="953"/>
      <point x="693" y="797"/>
      <point x="530" y="702"/>
    </contour>
    <contour>
      <point x="425" y="834" type="qcurve" smooth="yes"/>
      <point x="486" y="834"/>
      <point x="581" y="886"/>
      <point x="636" y="980"/>
      <point x="636" y="1045" type="qcurve" smooth="yes"/>
      <point x="636" y="1141"/>
      <point x="516" y="1255"/>
      <point x="425" y="1255" type="qcurve" smooth="yes"/>
      <point x="364" y="1255"/>
      <point x="270" y="1204"/>
      <point x="215" y="1109"/>
      <point x="215" y="1045" type="qcurve" smooth="yes"/>
      <point x="215" y="948"/>
      <point x="334" y="834"/>
    </contour>
  </outline>
</glyph>
<glyph name="guillemotright" format="2">
  <advance width="1059"/>
  <unicode hex="00BB"/>
  <outline>
    <contour>
      <point x="254" y="928" type="line"/>
      <point x="573" y="510" type="line"/>
      <point x="254" y="91" type="line"/>
      <point x="111" y="188" type="line"/>
      <point x="358" y="510" type="line"/>
      <point x="112" y="830" type="line"/>
    </contour>
    <contour>
      <point x="687" y="928" type="line"/>
      <point x="1006" y="510" type="line"/>
      <point x="687" y="91" type="line"/>
      <point x="544" y="188" type="line"/>
      <point x="791" y="510" type="line"/>
      <point x="545" y="830" type="line"/>
    </contour>
  </outline>
</glyph>
<glyph name="onequarter" format="2">
  <advance width="1824"/>
  <unicode hex="00BC"/>
  <outline>
    <contour>
      <point x="326" y="490" type="line"/>
      <point x="326" y="1237" type="line"/>
      <point x="85" y="1153" type="line"/>
      <point x="44" y="1272" type="line"/>
      <point x="457" y="1420" type="line"/>
      <point x="469" y="1420" type="line"/>
      <point x="469" y="490" type="line"/>
    </contour>
    <contour>
      <point x="1488" y="0" type="line"/>
      <point x="1488" y="185" type="line"/>
      <point x="1022" y="185" type="line"/>
      <point x="1022" y="300" type="line"/>
      <point x="1356" y="910" type="line"/>
      <point x="1513" y="910" type="line"/>
      <point x="1184" y="312" type="line"/>
      <point x="1488" y="312" type="line"/>
      <point x="1488" y="512" type="line"/>
      <point x="1621" y="512" type="line"/>
      <point x="1621" y="312" type="line"/>
      <point x="1764" y="312" type="line"/>
      <point x="1764" y="185" type="line"/>
      <point x="1621" y="185" type="line"/>
      <point x="1621" y="0" type="line"/>
    </contour>
    <contour>
      <point x="495" y="-33" type="line"/>
      <point x="381" y="35" type="line"/>
      <point x="1163" y="1433" type="line"/>
      <point x="1277" y="1370" type="line"/>
    </contour>
  </outline>
</glyph>
<glyph name="onehalf" format="2">
  <advance width="1857"/>
  <unicode hex="00BD"/>
  <outline>
    <contour>
      <point x="326" y="490" type="line"/>
      <point x="326" y="1237" type="line"/>
      <point x="85" y="1153" type="line"/>
      <point x="44" y="1272" type="line"/>
      <point x="401" y="1400" type="line"/>
      <point x="469" y="1400" type="line"/>
      <point x="469" y="490" type="line"/>
    </contour>
    <contour>
      <point x="1125" y="0" type="line"/>
      <point x="1125" y="108" type="line"/>
      <point x="1328" y="288" type="line" smooth="yes"/>
      <point x="1422" y="371"/>
      <point x="1540" y="492"/>
      <point x="1595" y="592"/>
      <point x="1595" y="643" type="qcurve" smooth="yes"/>
      <point x="1595" y="716"/>
      <point x="1490" y="797"/>
      <point x="1397" y="797" type="qcurve" smooth="yes"/>
      <point x="1337" y="797"/>
      <point x="1223" y="756"/>
      <point x="1181" y="714" type="qcurve"/>
      <point x="1125" y="826" type="line"/>
      <point x="1183" y="877"/>
      <point x="1332" y="930"/>
      <point x="1415" y="930" type="qcurve" smooth="yes"/>
      <point x="1560" y="930"/>
      <point x="1739" y="781"/>
      <point x="1739" y="658" type="qcurve" smooth="yes"/>
      <point x="1739" y="595"/>
      <point x="1685" y="476"/>
      <point x="1564" y="340"/>
      <point x="1466" y="254" type="qcurve" smooth="yes"/>
      <point x="1325" y="130" type="line"/>
      <point x="1762" y="130" type="line"/>
      <point x="1762" y="0" type="line"/>
    </contour>
    <contour>
      <point x="495" y="-33" type="line"/>
      <point x="381" y="35" type="line"/>
      <point x="1163" y="1433" type="line"/>
      <point x="1277" y="1370" type="line"/>
    </contour>
  </outline>
</glyph>
<glyph name="threequarters" format="2">
  <advance width="2012"/>
  <unicode hex="00BE"/>
  <outline>
    <contour>
      <point x="373" y="470" type="qcurve" smooth="yes"/>
      <point x="282" y="470"/>
      <point x="119" y="525"/>
      <point x="76" y="564" type="qcurve"/>
      <point x="126" y="689" type="line"/>
      <point x="170" y="650"/>
      <point x="300" y="604"/>
      <point x="364" y="604" type="qcurve" smooth="yes"/>
      <point x="457" y="604"/>
      <point x="570" y="693"/>
      <point x="570" y="767" type="qcurve" smooth="yes"/>
      <point x="570" y="843"/>
      <point x="454" y="927"/>
      <point x="358" y="927" type="qcurve" smooth="yes"/>
      <point x="334" y="927"/>
      <point x="277" y="920"/>
      <point x="247" y="914" type="qcurve"/>
      <point x="202" y="1014" type="line"/>
      <point x="493" y="1271" type="line"/>
      <point x="84" y="1271" type="line"/>
      <point x="84" y="1400" type="line"/>
      <point x="676" y="1400" type="line"/>
      <point x="676" y="1282" type="line"/>
      <point x="399" y="1024" type="line"/>
      <point x="482" y="1025"/>
      <point x="627" y="966"/>
      <point x="717" y="847"/>
      <point x="717" y="758" type="qcurve" smooth="yes"/>
      <point x="717" y="673"/>
      <point x="629" y="543"/>
      <point x="474" y="470"/>
    </contour>
    <contour>
      <point x="1676" y="0" type="line"/>
      <point x="1676" y="185" type="line"/>
      <point x="1210" y="185" type="line"/>
      <point x="1210" y="300" type="line"/>
      <point x="1544" y="910" type="line"/>
      <point x="1700" y="910" type="line"/>
      <point x="1371" y="312" type="line"/>
      <point x="1676" y="312" type="line"/>
      <point x="1676" y="512" type="line"/>
      <point x="1808" y="512" type="line"/>
      <point x="1808" y="312" type="line"/>
      <point x="1951" y="312" type="line"/>
      <point x="1951" y="185" type="line"/>
      <point x="1808" y="185" type="line"/>
      <point x="1808" y="0" type="line"/>
    </contour>
    <contour>
      <point x="683" y="-33" type="line"/>
      <point x="568" y="35" type="line"/>
      <point x="1350" y="1433" type="line"/>
      <point x="1465" y="1370" type="line"/>
    </contour>
  </outline>
</glyph>
<glyph name="questiondown" format="2">
  <advance width="968"/>
  <unicode hex="00BF"/>
  <outline>
    <contour>
      <point x="534" y="-439" type="qcurve" smooth="yes"/>
      <point x="406" y="-439"/>
      <point x="207" y="-357"/>
      <point x="92" y="-202"/>
      <point x="92" y="-95" type="qcurve" smooth="yes"/>
      <point x="92" y="-35"/>
      <point x="135" y="74"/>
      <point x="238" y="181"/>
      <point x="330" y="242" type="qcurve" smooth="yes"/>
      <point x="395" y="284"/>
      <point x="458" y="363"/>
      <point x="466" y="476"/>
      <point x="451" y="569" type="qcurve"/>
      <point x="641" y="569" type="line"/>
      <point x="667" y="456"/>
      <point x="653" y="314"/>
      <point x="571" y="212"/>
      <point x="493" y="162" type="qcurve" smooth="yes"/>
      <point x="388" y="94"/>
      <point x="316" y="-3"/>
      <point x="316" y="-61" type="qcurve" smooth="yes"/>
      <point x="316" y="-156"/>
      <point x="449" y="-251"/>
      <point x="569" y="-251" type="qcurve" smooth="yes"/>
      <point x="653" y="-251"/>
      <point x="787" y="-203"/>
      <point x="841" y="-163" type="qcurve"/>
      <point x="897" y="-329" type="line"/>
      <point x="862" y="-359"/>
      <point x="753" y="-409"/>
      <point x="614" y="-439"/>
    </contour>
    <contour>
      <point x="536" y="742" type="qcurve" smooth="yes"/>
      <point x="475" y="742"/>
      <point x="388" y="819"/>
      <point x="388" y="882" type="qcurve" smooth="yes"/>
      <point x="388" y="923"/>
      <point x="428" y="986"/>
      <point x="495" y="1021"/>
      <point x="536" y="1021" type="qcurve" smooth="yes"/>
      <point x="597" y="1021"/>
      <point x="683" y="944"/>
      <point x="683" y="882" type="qcurve" smooth="yes"/>
      <point x="683" y="840"/>
      <point x="643" y="777"/>
      <point x="576" y="742"/>
    </contour>
  </outline>
</glyph>
<glyph name="AE" format="2">
  <advance width="1773"/>
  <unicode hex="00C6"/>
  <anchor x="1145" y="1400" name="top"/>
  <outline>
    <contour>
      <point x="-37" y="0" type="line"/>
      <point x="643" y="1400" type="line"/>
      <point x="1629" y="1400" type="line"/>
      <point x="1629" y="1220" type="line"/>
      <point x="977" y="1220" type="line"/>
      <point x="977" y="818" type="line"/>
      <point x="1557" y="818" type="line"/>
      <point x="1557" y="647" type="line"/>
      <point x="977" y="647" type="line"/>
      <point x="977" y="181" type="line"/>
      <point x="1637" y="181" type="line"/>
      <point x="1637" y="0" type="line"/>
      <point x="774" y="0" type="line"/>
      <point x="774" y="341" type="line"/>
      <point x="340" y="341" type="line"/>
      <point x="180" y="0" type="line"/>
    </contour>
    <contour>
      <point x="411" y="509" type="line"/>
      <point x="774" y="509" type="line"/>
      <point x="774" y="1253" type="line"/>
    </contour>
  </outline>
</glyph>
<glyph name="Eth" format="2">
  <advance width="1461"/>
  <unicode hex="00D0"/>
  <anchor x="730" y="1400" name="top"/>
  <anchor x="477" y="733" name="strokeshort"/>
  <outline>
    <contour>
      <point x="38" y="656" type="line"/>
      <point x="38" y="810" type="line"/>
      <point x="881" y="810" type="line"/>
      <point x="881" y="656" type="line"/>
    </contour>
    <contour>
      <point x="227" y="0" type="line"/>
      <point x="227" y="1400" type="line"/>
      <point x="656" y="1400" type="line" smooth="yes"/>
      <point x="863" y="1400"/>
      <point x="1181" y="1221"/>
      <point x="1362" y="905"/>
      <point x="1362" y="699" type="qcurve" smooth="yes"/>
      <point x="1362" y="546"/>
      <point x="1259" y="289"/>
      <point x="1070" y="103"/>
      <point x="811" y="0"/>
      <point x="656" y="0" type="qcurve" smooth="yes"/>
    </contour>
    <contour>
      <point x="429" y="188" type="line"/>
      <point x="627" y="188" type="line" smooth="yes"/>
      <point x="745" y="188"/>
      <point x="937" y="259"/>
      <point x="1076" y="392"/>
      <point x="1151" y="581"/>
      <point x="1151" y="699" type="qcurve" smooth="yes"/>
      <point x="1151" y="857"/>
      <point x="1020" y="1087"/>
      <point x="785" y="1212"/>
      <point x="627" y="1212" type="qcurve" smooth="yes"/>
      <point x="429" y="1212" type="line"/>
    </contour>
  </outline>
</glyph>
<glyph name="multiply" format="2">
  <advance width="1296"/>
  <unicode hex="00D7"/>
  <outline>
    <contour>
      <point x="314" y="228" type="line"/>
      <point x="211" y="331" type="line"/>
      <point x="546" y="666" type="line"/>
      <point x="211" y="999" type="line"/>
      <point x="314" y="1102" type="line"/>
      <point x="648" y="767" type="line"/>
      <point x="983" y="1102" type="line"/>
      <point x="1085" y="998" type="line"/>
      <point x="751" y="664" type="line"/>
      <point x="1085" y="329" type="line"/>
      <point x="983" y="228" type="line"/>
      <point x="648" y="561" type="line"/>
    </contour>
  </outline>
</glyph>
<glyph name="Oslash" format="2">
  <advance width="1668"/>
  <unicode hex="00D8"/>
  <anchor x="834" y="1400" name="top"/>
  <outline>
    <contour>
      <point x="297" y="-72" type="line"/>
      <point x="170" y="41" type="line"/>
      <point x="296" y="192" type="line"/>
      <point x="204" y="290"/>
      <point x="99" y="549"/>
      <point x="99" y="700" type="qcurve" smooth="yes"/>
      <point x="99" y="856"/>
      <point x="211" y="1122"/>
      <point x="410" y="1320"/>
      <point x="678" y="1430"/>
      <point x="834" y="1430" type="qcurve" smooth="yes"/>
      <point x="946" y="1430"/>
      <point x="1146" y="1369"/>
      <point x="1229" y="1315" type="qcurve"/>
      <point x="1363" y="1477" type="line"/>
      <point x="1489" y="1365" type="line"/>
      <point x="1363" y="1213" type="line"/>
      <point x="1460" y="1115"/>
      <point x="1568" y="851"/>
      <point x="1568" y="700" type="qcurve" smooth="yes"/>
      <point x="1568" y="545"/>
      <point x="1456" y="279"/>
      <point x="1256" y="81"/>
      <point x="989" y="-30"/>
      <point x="834" y="-30" type="qcurve" smooth="yes"/>
      <point x="720" y="-30"/>
      <point x="516" y="32"/>
      <point x="430" y="88" type="qcurve"/>
    </contour>
    <contour>
      <point x="433" y="354" type="qcurve"/>
      <point x="1106" y="1163" type="line"/>
      <point x="1049" y="1202"/>
      <point x="909" y="1242"/>
      <point x="834" y="1242" type="qcurve" smooth="yes"/>
      <point x="723" y="1242"/>
      <point x="532" y="1166"/>
      <point x="388" y="1023"/>
      <point x="308" y="823"/>
      <point x="308" y="700" type="qcurve" smooth="yes"/>
      <point x="308" y="594"/>
      <point x="375" y="418"/>
    </contour>
    <contour>
      <point x="834" y="158" type="qcurve" smooth="yes"/>
      <point x="945" y="158"/>
      <point x="1137" y="235"/>
      <point x="1280" y="378"/>
      <point x="1360" y="578"/>
      <point x="1360" y="700" type="qcurve" smooth="yes"/>
      <point x="1360" y="809"/>
      <point x="1293" y="992"/>
      <point x="1231" y="1058" type="qcurve"/>
      <point x="551" y="239" type="line"/>
      <point x="611" y="200"/>
      <point x="755" y="158"/>
    </contour>
  </outline>
</glyph>
<glyph name="Thorn" format="2">
  <advance width="1277"/>
  <unicode hex="00DE"/>
  <outline>
    <contour>
      <point x="186" y="0" type="line"/>
      <point x="186" y="1400" type="line"/>
      <point x="392" y="1400" type="line"/>
      <point x="392" y="1145" type="line"/>
      <point x="703" y="1145" type="line" smooth="yes"/>
      <point x="851" y="1145"/>
      <point x="1078" y="1043"/>
      <point x="1206" y="852"/>
      <point x="1206" y="719" type="qcurve" smooth="yes"/>
      <point x="1206" y="582"/>
      <point x="1087" y="393"/>
      <point x="861" y="295"/>
      <point x="699" y="295" type="qcurve" smooth="yes"/>
      <point x="392" y="295" type="line"/>
      <point x="392" y="0" type="line"/>
    </contour>
    <contour>
      <point x="392" y="474" type="line"/>
      <point x="703" y="474" type="line" smooth="yes"/>
      <point x="844" y="474"/>
      <point x="1000" y="593"/>
      <point x="1000" y="714" type="qcurve" smooth="yes"/>
      <point x="1000" y="833"/>
      <point x="841" y="963"/>
      <point x="705" y="963" type="qcurve" smooth="yes"/>
      <point x="392" y="963" type="line"/>
    </contour>
  </outline>
</glyph>
<glyph name="germandbls" format="2">
  <advance width="1251"/>
  <unicode hex="00DF"/>
  <outline>
    <contour>
      <point x="776" y="-29" type="qcurve" smooth="yes"/>
      <point x="734" y="-29"/>
      <point x="604" y="-10"/>
      <point x="522" y="28" type="qcurve"/>
      <point x="580" y="185" type="line"/>
      <point x="632" y="156"/>
      <point x="715" y="135"/>
      <point x="759" y="135" type="qcurve" smooth="yes"/>
      <point x="856" y="135"/>
      <point x="967" y="218"/>
      <point x="967" y="291" type="qcurve" smooth="yes"/>
      <point x="967" y="361"/>
      <point x="876" y="447"/>
      <point x="817" y="486" type="qcurve" smooth="yes"/>
      <point x="775" y="514"/>
      <point x="686" y="583"/>
      <point x="624" y="674"/>
      <point x="624" y="734" type="qcurve" smooth="yes"/>
      <point x="624" y="779"/>
      <point x="663" y="853"/>
      <point x="717" y="916"/>
      <point x="741" y="945" type="qcurve"/>
      <point x="769" y="976"/>
      <point x="820" y="1033"/>
      <point x="851" y="1093"/>
      <point x="851" y="1130" type="qcurve" smooth="yes"/>
      <point x="851" y="1207"/>
      <point x="722" y="1294"/>
      <point x="621" y="1294" type="qcurve" smooth="yes"/>
      <point x="493" y="1294"/>
      <point x="359" y="1148"/>
      <point x="359" y="1018" type="qcurve" smooth="yes"/>
      <point x="359" y="0" type="line"/>
      <point x="157" y="0" type="line"/>
      <point x="157" y="1046" type="line" smooth="yes"/>
      <point x="157" y="1172"/>
      <point x="270" y="1363"/>
      <point x="479" y="1470"/>
      <point x="622" y="1470" type="qcurve" smooth="yes"/>
      <point x="750" y="1470"/>
      <point x="945" y="1392"/>
      <point x="1055" y="1253"/>
      <point x="1055" y="1159" type="qcurve" smooth="yes"/>
      <point x="1055" y="1102"/>
      <point x="1013" y="1014"/>
      <point x="951" y="941"/>
      <point x="920" y="905" type="qcurve" smooth="yes"/>
      <point x="889" y="869"/>
      <point x="832" y="798"/>
      <point x="832" y="756" type="qcurve" smooth="yes"/>
      <point x="832" y="704"/>
      <point x="921" y="632"/>
      <point x="972" y="598" type="qcurve" smooth="yes"/>
      <point x="1023" y="564"/>
      <point x="1119" y="484"/>
      <point x="1180" y="375"/>
      <point x="1180" y="296" type="qcurve" smooth="yes"/>
      <point x="1180" y="199"/>
      <point x="1077" y="52"/>
      <point x="895" y="-29"/>
    </contour>
  </outline>
</glyph>
<glyph name="ae" format="2">
  <advance width="1805"/>
  <unicode hex="00E6"/>
  <anchor x="880" y="985" name="top"/>
  <outline>
    <contour>
      <point x="442" y="-30" type="qcurve" smooth="yes"/>
      <point x="278" y="-30"/>
      <point x="86" y="139"/>
      <point x="86" y="282" type="qcurve" smooth="yes"/>
      <point x="86" y="389"/>
      <point x="232" y="545"/>
      <point x="547" y="613"/>
      <point x="802" y="586" type="qcurve"/>
      <point x="804" y="444" type="line"/>
      <point x="616" y="470"/>
      <point x="383" y="439"/>
      <point x="276" y="350"/>
      <point x="276" y="288" type="qcurve" smooth="yes"/>
      <point x="276" y="214"/>
      <point x="382" y="132"/>
      <point x="476" y="132" type="qcurve" smooth="yes"/>
      <point x="555" y="132"/>
      <point x="682" y="192"/>
      <point x="757" y="309"/>
      <point x="757" y="394" type="qcurve"/>
      <point x="757" y="637" type="line"/>
      <point x="757" y="737"/>
      <point x="626" y="854"/>
      <point x="493" y="854" type="qcurve" smooth="yes"/>
      <point x="421" y="854"/>
      <point x="267" y="807"/>
      <point x="198" y="756" type="qcurve"/>
      <point x="138" y="908" type="line"/>
      <point x="230" y="971"/>
      <point x="429" y="1022"/>
      <point x="520" y="1022" type="qcurve" smooth="yes"/>
      <point x="685" y="1022"/>
      <point x="897" y="894"/>
      <point x="933" y="765" type="qcurve"/>
      <point x="860" y="779" type="line"/>
      <point x="932" y="890"/>
      <point x="1151" y="1015"/>
      <point x="1283" y="1015" type="qcurve" smooth="yes"/>
      <point x="1434" y="1015"/>
      <point x="1648" y="865"/>
      <point x="1748" y="609"/>
      <point x="1728" y="449" type="qcurve"/>
      <point x="970" y="449" type="line"/>
      <point x="966" y="310"/>
      <point x="1146" y="138"/>
      <point x="1299" y="138" type="qcurve" smooth="yes"/>
      <point x="1376" y="138"/>
      <point x="1525" y="190"/>
      <point x="1584" y="240" type="qcurve"/>
      <point x="1665" y="93" type="line"/>
      <point x="1620" y="53"/>
      <point x="1497" y="-1"/>
      <point x="1360" y="-30"/>
      <point x="1292" y="-30" type="qcurve" smooth="yes"/>
      <point x="1120" y="-30"/>
      <point x="858" y="144"/>
      <point x="802" y="305" type="qcurve"/>
      <point x="871" y="315" type="line"/>
      <point x="860" y="215"/>
      <point x="744" y="59"/>
      <point x="557" y="-30"/>
    </contour>
    <contour>
      <point x="981" y="602" type="qcurve"/>
      <point x="1532" y="602" type="line"/>
      <point x="1527" y="720"/>
      <point x="1395" y="853"/>
      <point x="1272" y="853" type="qcurve" smooth="yes"/>
      <point x="1151" y="853"/>
      <point x="994" y="720"/>
    </contour>
  </outline>
</glyph>
<glyph name="eth" format="2">
  <advance width="1183"/>
  <unicode hex="00F0"/>
  <outline>
    <contour>
      <point x="582" y="-30" type="qcurve" smooth="yes"/>
      <point x="435" y="-30"/>
      <point x="204" y="104"/>
      <point x="71" y="330"/>
      <point x="71" y="467" type="qcurve" smooth="yes"/>
      <point x="71" y="568"/>
      <point x="146" y="745"/>
      <point x="281" y="880"/>
      <point x="463" y="958"/>
      <point x="569" y="958" type="qcurve" smooth="yes"/>
      <point x="621" y="958"/>
      <point x="726" y="936"/>
      <point x="822" y="890"/>
      <point x="862" y="855" type="qcurve"/>
      <point x="837" y="836" type="line"/>
      <point x="800" y="908"/>
      <point x="698" y="1047"/>
      <point x="566" y="1180"/>
      <point x="408" y="1302"/>
      <point x="315" y="1358" type="qcurve"/>
      <point x="475" y="1469" type="line"/>
      <point x="677" y="1338"/>
      <point x="960" y="1031"/>
      <point x="1107" y="691"/>
      <point x="1107" y="509" type="qcurve" smooth="yes"/>
      <point x="1107" y="397"/>
      <point x="1029" y="200"/>
      <point x="886" y="53"/>
      <point x="696" y="-30"/>
    </contour>
    <contour>
      <point x="582" y="147" type="qcurve" smooth="yes"/>
      <point x="674" y="147"/>
      <point x="817" y="228"/>
      <point x="897" y="374"/>
      <point x="897" y="473" type="qcurve" smooth="yes"/>
      <point x="897" y="572"/>
      <point x="817" y="719"/>
      <point x="674" y="799"/>
      <point x="582" y="799" type="qcurve" smooth="yes"/>
      <point x="492" y="799"/>
      <point x="353" y="719"/>
      <point x="274" y="572"/>
      <point x="274" y="473" type="qcurve" smooth="yes"/>
      <point x="274" y="374"/>
      <point x="353" y="228"/>
      <point x="492" y="147"/>
    </contour>
    <contour>
      <point x="310" y="1042" type="line"/>
      <point x="310" y="1178" type="line"/>
      <point x="612" y="1316" type="line"/>
      <point x="612" y="1322" type="line"/>
      <point x="902" y="1459" type="line"/>
      <point x="902" y="1324" type="line"/>
      <point x="612" y="1187" type="line"/>
      <point x="612" y="1181" type="line"/>
    </contour>
  </outline>
</glyph>
<glyph name="divide" format="2">
  <advance width="1296"/>
  <unicode hex="00F7"/>
  <outline>
    <contour>
      <point x="146" y="592" type="line"/>
      <point x="146" y="740" type="line"/>
      <point x="1160" y="740" type="line"/>
      <point x="1160" y="592" type="line"/>
    </contour>
    <contour>
      <point x="654" y="167" type="qcurve" smooth="yes"/>
      <point x="602" y="167"/>
      <point x="529" y="237"/>
      <point x="529" y="288" type="qcurve" smooth="yes"/>
      <point x="529" y="323"/>
      <point x="563" y="378"/>
      <point x="619" y="410"/>
      <point x="654" y="410" type="qcurve" smooth="yes"/>
      <point x="706" y="410"/>
      <point x="781" y="340"/>
      <point x="781" y="288" type="qcurve" smooth="yes"/>
      <point x="781" y="254"/>
      <point x="746" y="200"/>
      <point x="688" y="167"/>
    </contour>
    <contour>
      <point x="654" y="918" type="qcurve" smooth="yes"/>
      <point x="602" y="918"/>
      <point x="529" y="988"/>
      <point x="529" y="1039" type="qcurve" smooth="yes"/>
      <point x="529" y="1074"/>
      <point x="563" y="1129"/>
      <point x="619" y="1161"/>
      <point x="654" y="1161" type="qcurve" smooth="yes"/>
      <point x="708" y="1161"/>
      <point x="781" y="1091"/>
      <point x="781" y="1039" type="qcurve" smooth="yes"/>
      <point x="781" y="1006"/>
      <point x="747" y="951"/>
      <point x="690" y="918"/>
    </contour>
  </outline>
</glyph>
<glyph name="oslash" format="2">
  <advance width="1203"/>
  <unicode hex="00F8"/>
  <anchor x="602" y="984" name="top"/>
  <outline>
    <contour>
      <point x="229" y="-76" type="line"/>
      <point x="120" y="17" type="line"/>
      <point x="214" y="132" type="line"/>
      <point x="147" y="203"/>
      <point x="71" y="388"/>
      <point x="71" y="492" type="qcurve" smooth="yes"/>
      <point x="71" y="597"/>
      <point x="150" y="786"/>
      <point x="293" y="931"/>
      <point x="486" y="1014"/>
      <point x="602" y="1014" type="qcurve" smooth="yes"/>
      <point x="679" y="1014"/>
      <point x="817" y="976"/>
      <point x="875" y="940" type="qcurve"/>
      <point x="974" y="1061" type="line"/>
      <point x="1082" y="967" type="line"/>
      <point x="989" y="853" type="line"/>
      <point x="1056" y="782"/>
      <point x="1132" y="597"/>
      <point x="1132" y="492" type="qcurve" smooth="yes"/>
      <point x="1132" y="387"/>
      <point x="1054" y="198"/>
      <point x="911" y="53"/>
      <point x="717" y="-30"/>
      <point x="602" y="-30" type="qcurve" smooth="yes"/>
      <point x="525" y="-30"/>
      <point x="386" y="9"/>
      <point x="328" y="44" type="qcurve"/>
    </contour>
    <contour>
      <point x="333" y="271" type="qcurve"/>
      <point x="767" y="802" type="line"/>
      <point x="734" y="823"/>
      <point x="652" y="845"/>
      <point x="605" y="845" type="qcurve" smooth="yes"/>
      <point x="506" y="845"/>
      <point x="352" y="758"/>
      <point x="264" y="598"/>
      <point x="264" y="489" type="qcurve" smooth="yes"/>
      <point x="264" y="422"/>
      <point x="301" y="312"/>
    </contour>
    <contour>
      <point x="598" y="139" type="qcurve" smooth="yes"/>
      <point x="697" y="139"/>
      <point x="851" y="227"/>
      <point x="940" y="386"/>
      <point x="940" y="495" type="qcurve" smooth="yes"/>
      <point x="940" y="562"/>
      <point x="903" y="673"/>
      <point x="870" y="714" type="qcurve"/>
      <point x="435" y="182" type="line"/>
      <point x="469" y="162"/>
      <point x="551" y="139"/>
    </contour>
  </outline>
</glyph>
<glyph name="thorn" format="2">
  <advance width="1287"/>
  <unicode hex="00FE"/>
  <outline>
    <contour>
      <point x="157" y="-420" type="line"/>
      <point x="157" y="1440" type="line"/>
      <point x="355" y="1440" type="line"/>
      <point x="355" y="845" type="line"/>
      <point x="417" y="920"/>
      <point x="598" y="1014"/>
      <point x="719" y="1014" type="qcurve" smooth="yes"/>
      <point x="866" y="1014"/>
      <point x="1090" y="874"/>
      <point x="1216" y="636"/>
      <point x="1216" y="492" type="qcurve" smooth="yes"/>
      <point x="1216" y="384"/>
      <point x="1144" y="194"/>
      <point x="1012" y="51"/>
      <point x="830" y="-30"/>
      <point x="719" y="-30" type="qcurve" smooth="yes"/>
      <point x="598" y="-30"/>
      <point x="417" y="59"/>
      <point x="355" y="133" type="qcurve"/>
      <point x="355" y="-420" type="line"/>
    </contour>
    <contour>
      <point x="685" y="148" type="qcurve" smooth="yes"/>
      <point x="782" y="148"/>
      <point x="931" y="232"/>
      <point x="1016" y="386"/>
      <point x="1016" y="492" type="qcurve" smooth="yes"/>
      <point x="1016" y="598"/>
      <point x="931" y="753"/>
      <point x="782" y="836"/>
      <point x="685" y="836" type="qcurve" smooth="yes"/>
      <point x="589" y="836"/>
      <point x="440" y="753"/>
      <point x="355" y="598"/>
      <point x="355" y="492" type="qcurve" smooth="yes"/>
      <point x="355" y="386"/>
      <point x="440" y="232"/>
      <point x="589" y="148"/>
    </contour>
  </outline>
</glyph>
<glyph name="aogonek" format="2">
  <advance width="1095"/>
  <unicode hex="0105"/>
  <anchor x="518" y="984" name="top"/>
  <anchor x="518" y="0" name="bottom"/>
  <outline>
    <contour>
      <point x="763" y="-450" type="qcurve" smooth="yes"/>
      <point x="661" y="-450"/>
      <point x="547" y="-331"/>
      <point x="548" y="-244" type="qcurve" smooth="yes"/>
      <point x="550" y="-157"/>
      <point x="649" y="-22"/>
      <point x="814" y="66"/>
      <point x="916" y="82" type="qcurve"/>
      <point x="950" y="0" type="line"/>
      <point x="874" y="-13"/>
      <point x="764" y="-66"/>
      <point x="704" y="-148"/>
      <point x="702" y="-204" type="qcurve"/>
      <point x="702" y="-247"/>
      <point x="745" y="-305"/>
      <point x="794" y="-305" type="qcurve" smooth="yes"/>
      <point x="823" y="-305"/>
      <point x="876" y="-286"/>
      <point x="898" y="-271" type="qcurve"/>
      <point x="953" y="-397" type="line"/>
      <point x="911" y="-422"/>
      <point x="813" y="-450"/>
    </contour>
    <contour>
      <point x="430" y="-30" type="qcurve" smooth="yes"/>
      <point x="326" y="-30"/>
      <point x="171" y="47"/>
      <point x="86" y="186"/>
      <point x="86" y="281" type="qcurve" smooth="yes"/>
      <point x="86" y="361"/>
      <point x="167" y="491"/>
      <point x="340" y="576"/>
      <point x="613" y="605"/>
      <point x="806" y="585" type="qcurve"/>
      <point x="810" y="444" type="line"/>
      <point x="666" y="464"/>
      <point x="462" y="455"/>
      <point x="333" y="410"/>
      <point x="273" y="335"/>
      <point x="273" y="288" type="qcurve" smooth="yes"/>
      <point x="273" y="213"/>
      <point x="381" y="130"/>
      <point x="475" y="130" type="qcurve" smooth="yes"/>
      <point x="556" y="130"/>
      <point x="683" y="189"/>
      <point x="758" y="295"/>
      <point x="758" y="366" type="qcurve" smooth="yes"/>
      <point x="758" y="635" type="line" smooth="yes"/>
      <point x="758" y="703"/>
      <point x="699" y="804"/>
      <point x="583" y="858"/>
      <point x="497" y="858" type="qcurve" smooth="yes"/>
      <point x="419" y="858"/>
      <point x="267" y="812"/>
      <point x="198" y="761" type="qcurve"/>
      <point x="140" y="911" type="line"/>
      <point x="231" y="973"/>
      <point x="428" y="1024"/>
      <point x="519" y="1024" type="qcurve" smooth="yes"/>
      <point x="655" y="1024"/>
      <point x="848" y="938"/>
      <point x="950" y="766"/>
      <point x="950" y="637" type="qcurve" smooth="yes"/>
      <point x="950" y="0" type="line"/>
      <point x="770" y="0" type="line"/>
      <point x="770" y="119" type="line"/>
      <point x="719" y="47"/>
      <point x="540" y="-30"/>
    </contour>
  </outline>
</glyph>
<glyph name="dcroat" format="2">
  <advance width="1287"/>
  <unicode hex="0111"/>
  <anchor x="1130" y="1440" name="Anchor_2"/>
  <anchor x="980" y="1210" name="strokeshort"/>
  <outline>
    <contour>
      <point x="589" y="1142" type="line"/>
      <point x="589" y="1278" type="line"/>
      <point x="1263" y="1278" type="line"/>
      <point x="1263" y="1142" type="line"/>
    </contour>
    <contour>
      <point x="565" y="-30" type="qcurve" smooth="yes"/>
      <point x="420" y="-30"/>
      <point x="197" y="107"/>
      <point x="71" y="344"/>
      <point x="71" y="492" type="qcurve" smooth="yes"/>
      <point x="71" y="600"/>
      <point x="143" y="790"/>
      <point x="275" y="933"/>
      <point x="457" y="1014"/>
      <point x="568" y="1014" type="qcurve" smooth="yes"/>
      <point x="706" y="1014"/>
      <point x="906" y="902"/>
      <point x="972" y="806" type="qcurve"/>
      <point x="931" y="762" type="line"/>
      <point x="931" y="1440" type="line"/>
      <point x="1130" y="1440" type="line"/>
      <point x="1130" y="0" type="line"/>
      <point x="949" y="0" type="line"/>
      <point x="949" y="233" type="line"/>
      <point x="978" y="188" type="line"/>
      <point x="922" y="94"/>
      <point x="722" y="-30"/>
    </contour>
    <contour>
      <point x="602" y="148" type="qcurve" smooth="yes"/>
      <point x="698" y="148"/>
      <point x="847" y="232"/>
      <point x="932" y="386"/>
      <point x="932" y="492" type="qcurve" smooth="yes"/>
      <point x="932" y="598"/>
      <point x="847" y="753"/>
      <point x="698" y="836"/>
      <point x="602" y="836" type="qcurve" smooth="yes"/>
      <point x="505" y="836"/>
      <point x="356" y="753"/>
      <point x="271" y="598"/>
      <point x="271" y="492" type="qcurve" smooth="yes"/>
      <point x="271" y="386"/>
      <point x="357" y="232"/>
      <point x="506" y="148"/>
    </contour>
  </outline>
</glyph>
<glyph name="eogonek" format="2">
  <advance width="1138"/>
  <unicode hex="0119"/>
  <anchor x="585" y="984" name="top"/>
  <anchor x="568" y="-0" name="bottom"/>
  <outline>
    <contour>
      <point x="753" y="-450" type="qcurve" smooth="yes"/>
      <point x="651" y="-450"/>
      <point x="537" y="-331"/>
      <point x="538" y="-244" type="qcurve" smooth="yes"/>
      <point x="539" y="-157"/>
      <point x="638" y="-22"/>
      <point x="804" y="66"/>
      <point x="906" y="82" type="qcurve"/>
      <point x="940" y="0" type="line"/>
      <point x="864" y="-13"/>
      <point x="754" y="-66"/>
      <point x="694" y="-148"/>
      <point x="692" y="-204" type="qcurve"/>
      <point x="692" y="-247"/>
      <point x="734" y="-305"/>
      <point x="784" y="-305" type="qcurve" smooth="yes"/>
      <point x="812" y="-305"/>
      <point x="866" y="-286"/>
      <point x="887" y="-271" type="qcurve"/>
      <point x="943" y="-397" type="line"/>
      <point x="901" y="-422"/>
      <point x="803" y="-450"/>
    </contour>
    <contour>
      <point x="603" y="-30" type="qcurve" smooth="yes"/>
      <point x="445" y="-30"/>
      <point x="206" y="100"/>
      <point x="71" y="334"/>
      <point x="71" y="490" type="qcurve" smooth="yes"/>
      <point x="71" y="603"/>
      <point x="148" y="795"/>
      <point x="289" y="936"/>
      <point x="477" y="1014"/>
      <point x="589" y="1014" type="qcurve" smooth="yes"/>
      <point x="709" y="1014"/>
      <point x="898" y="929"/>
      <point x="1023" y="776"/>
      <point x="1076" y="570"/>
      <point x="1060" y="450" type="qcurve"/>
      <point x="265" y="450" type="line"/>
      <point x="262" y="356"/>
      <point x="346" y="215"/>
      <point x="506" y="136"/>
      <point x="615" y="136" type="qcurve" smooth="yes"/>
      <point x="697" y="136"/>
      <point x="854" y="187"/>
      <point x="916" y="237" type="qcurve"/>
      <point x="996" y="92" type="line"/>
      <point x="948" y="53"/>
      <point x="815" y="-2"/>
      <point x="671" y="-30"/>
    </contour>
    <contour>
      <point x="276" y="601" type="qcurve"/>
      <point x="863" y="601" type="line"/>
      <point x="859" y="720"/>
      <point x="717" y="854"/>
      <point x="585" y="854" type="qcurve" smooth="yes"/>
      <point x="457" y="854"/>
      <point x="289" y="720"/>
    </contour>
  </outline>
</glyph>
<glyph name="Hbar" format="2">
  <advance width="1524"/>
  <unicode hex="0126"/>
  <outline>
    <contour>
      <point x="1111" y="0" type="line"/>
      <point x="1111" y="1400" type="line"/>
      <point x="1317" y="1400" type="line"/>
      <point x="1317" y="0" type="line"/>
    </contour>
    <contour>
      <point x="206" y="0" type="line"/>
      <point x="206" y="1400" type="line"/>
      <point x="412" y="1400" type="line"/>
      <point x="412" y="0" type="line"/>
    </contour>
    <contour>
      <point x="384" y="596" type="line"/>
      <point x="384" y="785" type="line"/>
      <point x="1141" y="785" type="line"/>
      <point x="1141" y="596" type="line"/>
    </contour>
    <contour>
      <point x="19" y="1007" type="line"/>
      <point x="19" y="1164" type="line"/>
      <point x="1505" y="1164" type="line"/>
      <point x="1505" y="1007" type="line"/>
    </contour>
  </outline>
</glyph>
<glyph name="dotlessi" format="2">
  <advance width="513"/>
  <unicode hex="0131"/>
  <anchor x="257" y="984" name="top"/>
  <anchor x="257" y="0" name="bottom"/>
  <outline>
    <contour>
      <point x="157" y="0" type="line"/>
      <point x="157" y="984" type="line"/>
      <point x="356" y="984" type="line"/>
      <point x="356" y="0" type="line"/>
    </contour>
  </outline>
</glyph>
<glyph name="kgreenlandic" format="2">
  <advance width="1100"/>
  <unicode hex="0138"/>
  <outline>
    <contour>
      <point x="157" y="0" type="line"/>
      <point x="157" y="984" type="line"/>
      <point x="356" y="984" type="line"/>
      <point x="356" y="569" type="line"/>
      <point x="762" y="984" type="line"/>
      <point x="998" y="984" type="line"/>
      <point x="650" y="612" type="line"/>
      <point x="1054" y="0" type="line"/>
      <point x="815" y="0" type="line"/>
      <point x="505" y="483" type="line"/>
      <point x="356" y="332" type="line"/>
      <point x="356" y="0" type="line"/>
    </contour>
  </outline>
</glyph>
<glyph name="Lslash" format="2">
  <advance width="1123"/>
  <unicode hex="0141"/>
  <anchor x="328" y="1400" name="top"/>
  <anchor x="429" y="1440" name="Anchor_2"/>
  <anchor x="639" y="0" name="bottom"/>
  <outline>
    <contour>
      <point x="71" y="477" type="line"/>
      <point x="5" y="619" type="line"/>
      <point x="317" y="764" type="line"/>
      <point x="317" y="745" type="line"/>
      <point x="910" y="1022" type="line"/>
      <point x="976" y="881" type="line"/>
      <point x="317" y="572" type="line"/>
      <point x="317" y="591" type="line"/>
    </contour>
    <contour>
      <point x="227" y="0" type="line"/>
      <point x="227" y="1400" type="line"/>
      <point x="429" y="1400" type="line"/>
      <point x="429" y="186" type="line"/>
      <point x="1049" y="186" type="line"/>
      <point x="1049" y="0" type="line"/>
    </contour>
  </outline>
</glyph>
<glyph name="lslash" format="2">
  <advance width="710"/>
  <unicode hex="0142"/>
  <anchor x="336" y="1440" name="top"/>
  <anchor x="437" y="1440" name="Anchor_2"/>
  <anchor x="336" y="0" name="bottom"/>
  <outline>
    <component base="l" xOffset="78"/>
    <contour>
      <point x="87" y="462" type="line"/>
      <point x="19" y="606" type="line"/>
      <point x="334" y="756" type="line"/>
      <point x="334" y="736" type="line"/>
      <point x="580" y="851" type="line"/>
      <point x="649" y="707" type="line"/>
      <point x="334" y="560" type="line"/>
      <point x="334" y="580" type="line"/>
    </contour>
  </outline>
</glyph>
<glyph name="Eng" format="2">
  <advance width="1495"/>
  <unicode hex="014A"/>
  <outline>
    <contour>
      <point x="1128" y="-16" type="line"/>
      <point x="385" y="1061" type="line"/>
      <point x="385" y="0" type="line"/>
      <point x="187" y="0" type="line"/>
      <point x="187" y="1400" type="line"/>
      <point x="378" y="1400" type="line"/>
      <point x="1128" y="325" type="line"/>
    </contour>
    <contour>
      <point x="1022" y="-450" type="qcurve" smooth="yes"/>
      <point x="960" y="-450"/>
      <point x="864" y="-425"/>
      <point x="824" y="-404" type="qcurve"/>
      <point x="873" y="-250" type="line"/>
      <point x="898" y="-262"/>
      <point x="949" y="-277"/>
      <point x="986" y="-277" type="qcurve" smooth="yes"/>
      <point x="1054" y="-277"/>
      <point x="1110" y="-203"/>
      <point x="1110" y="-134" type="qcurve" smooth="yes"/>
      <point x="1110" y="1400" type="line"/>
      <point x="1308" y="1400" type="line"/>
      <point x="1308" y="-147" type="line" smooth="yes"/>
      <point x="1308" y="-240"/>
      <point x="1238" y="-376"/>
      <point x="1109" y="-450"/>
    </contour>
  </outline>
</glyph>
<glyph name="eng" format="2">
  <advance width="1210"/>
  <unicode hex="014B"/>
  <outline>
    <contour>
      <point x="779" y="-450" type="qcurve" smooth="yes"/>
      <point x="717" y="-450"/>
      <point x="621" y="-425"/>
      <point x="581" y="-404" type="qcurve"/>
      <point x="630" y="-250" type="line"/>
      <point x="654" y="-262"/>
      <point x="704" y="-277"/>
      <point x="741" y="-277" type="qcurve" smooth="yes"/>
      <point x="809" y="-277"/>
      <point x="864" y="-201"/>
      <point x="864" y="-126" type="qcurve" smooth="yes"/>
      <point x="864" y="589" type="line" smooth="yes"/>
      <point x="864" y="698"/>
      <point x="733" y="830"/>
      <point x="617" y="830" type="qcurve" smooth="yes"/>
      <point x="543" y="830"/>
      <point x="424" y="763"/>
      <point x="356" y="640"/>
      <point x="356" y="560" type="qcurve" smooth="yes"/>
      <point x="356" y="0" type="line"/>
      <point x="157" y="0" type="line"/>
      <point x="157" y="984" type="line"/>
      <point x="356" y="984" type="line"/>
      <point x="356" y="854" type="line"/>
      <point x="418" y="939"/>
      <point x="582" y="1014"/>
      <point x="669" y="1014" type="qcurve" smooth="yes"/>
      <point x="802" y="1014"/>
      <point x="976" y="906"/>
      <point x="1062" y="739"/>
      <point x="1062" y="651" type="qcurve" smooth="yes"/>
      <point x="1062" y="-147" type="line" smooth="yes"/>
      <point x="1062" y="-240"/>
      <point x="993" y="-376"/>
      <point x="865" y="-450"/>
    </contour>
  </outline>
</glyph>
<glyph name="OE" format="2">
  <advance width="2387"/>
  <unicode hex="0152"/>
  <outline>
    <contour>
      <point x="823" y="-30" type="qcurve" smooth="yes"/>
      <point x="668" y="-30"/>
      <point x="404" y="81"/>
      <point x="208" y="279"/>
      <point x="99" y="545"/>
      <point x="99" y="700" type="qcurve" smooth="yes"/>
      <point x="99" y="856"/>
      <point x="208" y="1122"/>
      <point x="404" y="1320"/>
      <point x="668" y="1430"/>
      <point x="823" y="1430" type="qcurve" smooth="yes"/>
      <point x="947" y="1430"/>
      <point x="1166" y="1354"/>
      <point x="1344" y="1216"/>
      <point x="1406" y="1123" type="qcurve"/>
      <point x="1366" y="1073" type="line"/>
      <point x="1366" y="1400" type="line"/>
      <point x="2244" y="1400" type="line"/>
      <point x="2244" y="1217" type="line"/>
      <point x="1559" y="1217" type="line"/>
      <point x="1559" y="819" type="line"/>
      <point x="2154" y="819" type="line"/>
      <point x="2154" y="646" type="line"/>
      <point x="1559" y="646" type="line"/>
      <point x="1559" y="184" type="line"/>
      <point x="2251" y="184" type="line"/>
      <point x="2251" y="0" type="line"/>
      <point x="1366" y="0" type="line"/>
      <point x="1366" y="326" type="line"/>
      <point x="1406" y="275" type="line"/>
      <point x="1313" y="136"/>
      <point x="1009" y="-30"/>
    </contour>
    <contour>
      <point x="834" y="165" type="qcurve" smooth="yes"/>
      <point x="943" y="165"/>
      <point x="1132" y="241"/>
      <point x="1274" y="382"/>
      <point x="1353" y="579"/>
      <point x="1353" y="700" type="qcurve" smooth="yes"/>
      <point x="1353" y="862"/>
      <point x="1215" y="1102"/>
      <point x="979" y="1235"/>
      <point x="834" y="1235" type="qcurve" smooth="yes"/>
      <point x="724" y="1235"/>
      <point x="535" y="1159"/>
      <point x="394" y="1018"/>
      <point x="314" y="822"/>
      <point x="314" y="700" type="qcurve" smooth="yes"/>
      <point x="314" y="538"/>
      <point x="452" y="298"/>
      <point x="688" y="165"/>
    </contour>
  </outline>
</glyph>
<glyph name="oe" format="2">
  <advance width="1998"/>
  <unicode hex="0153"/>
  <outline>
    <contour>
      <point x="599" y="-30" type="qcurve" smooth="yes"/>
      <point x="446" y="-30"/>
      <point x="207" y="112"/>
      <point x="71" y="350"/>
      <point x="71" y="493" type="qcurve" smooth="yes"/>
      <point x="71" y="598"/>
      <point x="149" y="787"/>
      <point x="291" y="932"/>
      <point x="484" y="1015"/>
      <point x="599" y="1015" type="qcurve" smooth="yes"/>
      <point x="750" y="1015"/>
      <point x="986" y="873"/>
      <point x="1121" y="635"/>
      <point x="1121" y="493" type="qcurve" smooth="yes"/>
      <point x="1121" y="387"/>
      <point x="1044" y="198"/>
      <point x="903" y="53"/>
      <point x="713" y="-30"/>
    </contour>
    <contour>
      <point x="602" y="151" type="qcurve" smooth="yes"/>
      <point x="697" y="151"/>
      <point x="846" y="235"/>
      <point x="930" y="388"/>
      <point x="930" y="493" type="qcurve" smooth="yes"/>
      <point x="930" y="597"/>
      <point x="846" y="751"/>
      <point x="698" y="835"/>
      <point x="602" y="835" type="qcurve" smooth="yes"/>
      <point x="507" y="835"/>
      <point x="359" y="751"/>
      <point x="274" y="597"/>
      <point x="274" y="493" type="qcurve" smooth="yes"/>
      <point x="274" y="388"/>
      <point x="359" y="235"/>
      <point x="507" y="151"/>
    </contour>
    <contour>
      <point x="1466" y="-30" type="qcurve" smooth="yes"/>
      <point x="1311" y="-30"/>
      <point x="1075" y="100"/>
      <point x="943" y="335"/>
      <point x="943" y="490" type="qcurve" smooth="yes"/>
      <point x="943" y="604"/>
      <point x="1019" y="796"/>
      <point x="1157" y="937"/>
      <point x="1343" y="1015"/>
      <point x="1453" y="1015" type="qcurve" smooth="yes"/>
      <point x="1612" y="1015"/>
      <point x="1838" y="866"/>
      <point x="1942" y="610"/>
      <point x="1921" y="449" type="qcurve"/>
      <point x="1127" y="449" type="line"/>
      <point x="1124" y="356"/>
      <point x="1208" y="216"/>
      <point x="1366" y="138"/>
      <point x="1475" y="138" type="qcurve" smooth="yes"/>
      <point x="1557" y="138"/>
      <point x="1714" y="190"/>
      <point x="1776" y="240" type="qcurve"/>
      <point x="1858" y="93" type="line"/>
      <point x="1809" y="53"/>
      <point x="1678" y="-1"/>
      <point x="1534" y="-30"/>
    </contour>
    <contour>
      <point x="1138" y="602" type="qcurve"/>
      <point x="1721" y="602" type="line"/>
      <point x="1716" y="720"/>
      <point x="1576" y="853"/>
      <point x="1445" y="853" type="qcurve" smooth="yes"/>
      <point x="1318" y="853"/>
      <point x="1152" y="720"/>
    </contour>
  </outline>
</glyph>
<glyph name="Uogonek" format="2">
  <advance width="1475"/>
  <unicode hex="0172"/>
  <anchor x="737" y="1400" name="top"/>
  <outline>
    <contour>
      <point x="896" y="-450" type="qcurve" smooth="yes"/>
      <point x="794" y="-450"/>
      <point x="680" y="-330"/>
      <point x="681" y="-244" type="qcurve" smooth="yes"/>
      <point x="682" y="-180"/>
      <point x="729" y="-73"/>
      <point x="770" y="-29" type="qcurve"/>
      <point x="583" y="-33"/>
      <point x="318" y="103"/>
      <point x="177" y="362"/>
      <point x="177" y="541" type="qcurve" smooth="yes"/>
      <point x="177" y="1400" type="line"/>
      <point x="383" y="1400" type="line"/>
      <point x="383" y="545" type="line" smooth="yes"/>
      <point x="383" y="354"/>
      <point x="575" y="165"/>
      <point x="737" y="165" type="qcurve" smooth="yes"/>
      <point x="900" y="165"/>
      <point x="1091" y="354"/>
      <point x="1091" y="545" type="qcurve" smooth="yes"/>
      <point x="1091" y="1400" type="line"/>
      <point x="1297" y="1400" type="line"/>
      <point x="1297" y="541" type="line" smooth="yes"/>
      <point x="1297" y="368"/>
      <point x="1151" y="94"/>
      <point x="1007" y="26" type="qcurve"/>
      <point x="931" y="-11"/>
      <point x="839" y="-124"/>
      <point x="836" y="-203" type="qcurve"/>
      <point x="836" y="-245"/>
      <point x="879" y="-303"/>
      <point x="928" y="-303" type="qcurve" smooth="yes"/>
      <point x="956" y="-303"/>
      <point x="1010" y="-285"/>
      <point x="1031" y="-270" type="qcurve"/>
      <point x="1088" y="-397" type="line"/>
      <point x="1045" y="-422"/>
      <point x="947" y="-450"/>
    </contour>
  </outline>
</glyph>
<glyph name="uogonek" format="2">
  <advance width="1197"/>
  <unicode hex="0173"/>
  <anchor x="594" y="984" name="top"/>
  <anchor x="1040" y="984" name="horn"/>
  <anchor x="585" y="0" name="bottom"/>
  <outline>
    <contour>
      <point x="853" y="-450" type="qcurve" smooth="yes"/>
      <point x="751" y="-450"/>
      <point x="637" y="-331"/>
      <point x="638" y="-244" type="qcurve" smooth="yes"/>
      <point x="639" y="-157"/>
      <point x="738" y="-22"/>
      <point x="904" y="66"/>
      <point x="1006" y="82" type="qcurve"/>
      <point x="1040" y="0" type="line"/>
      <point x="964" y="-13"/>
      <point x="854" y="-66"/>
      <point x="793" y="-148"/>
      <point x="792" y="-204" type="qcurve" smooth="yes"/>
      <point x="791" y="-247"/>
      <point x="834" y="-305"/>
      <point x="884" y="-305" type="qcurve" smooth="yes"/>
      <point x="912" y="-305"/>
      <point x="966" y="-286"/>
      <point x="987" y="-271" type="qcurve"/>
      <point x="1043" y="-397" type="line"/>
      <point x="1000" y="-422"/>
      <point x="903" y="-450"/>
    </contour>
    <contour>
      <point x="536" y="-30" type="qcurve" smooth="yes"/>
      <point x="404" y="-30"/>
      <point x="232" y="77"/>
      <point x="147" y="249"/>
      <point x="147" y="348" type="qcurve" smooth="yes"/>
      <point x="147" y="984" type="line"/>
      <point x="346" y="984" type="line"/>
      <point x="346" y="388" type="line" smooth="yes"/>
      <point x="346" y="283"/>
      <point x="473" y="154"/>
      <point x="585" y="154" type="qcurve" smooth="yes"/>
      <point x="657" y="154"/>
      <point x="773" y="220"/>
      <point x="841" y="339"/>
      <point x="841" y="418" type="qcurve" smooth="yes"/>
      <point x="841" y="984" type="line"/>
      <point x="1040" y="984" type="line"/>
      <point x="1040" y="0" type="line"/>
      <point x="859" y="0" type="line"/>
      <point x="859" y="119" type="line"/>
      <point x="800" y="46"/>
      <point x="638" y="-30"/>
    </contour>
  </outline>
</glyph>
<glyph name="Schwa" format="2">
  <advance width="1602"/>
  <unicode hex="018F"/>
  <outline>
    <contour>
      <point x="777" y="-30" type="qcurve" smooth="yes"/>
      <point x="618" y="-30"/>
      <point x="358" y="82"/>
      <point x="176" y="288"/>
      <point x="90" y="573"/>
      <point x="103" y="745" type="qcurve"/>
      <point x="1372" y="745" type="line"/>
      <point x="1370" y="578" type="line"/>
      <point x="225" y="578" type="line"/>
      <point x="311" y="654" type="line"/>
      <point x="310" y="539"/>
      <point x="377" y="354"/>
      <point x="502" y="223"/>
      <point x="674" y="153"/>
      <point x="778" y="153" type="qcurve" smooth="yes"/>
      <point x="899" y="153"/>
      <point x="1089" y="233"/>
      <point x="1222" y="381"/>
      <point x="1291" y="588"/>
      <point x="1291" y="714" type="qcurve" smooth="yes"/>
      <point x="1291" y="873"/>
      <point x="1164" y="1108"/>
      <point x="926" y="1236"/>
      <point x="762" y="1236" type="qcurve" smooth="yes"/>
      <point x="627" y="1236"/>
      <point x="389" y="1156"/>
      <point x="305" y="1079" type="qcurve"/>
      <point x="203" y="1238" type="line"/>
      <point x="304" y="1321"/>
      <point x="593" y="1430"/>
      <point x="770" y="1430" type="qcurve" smooth="yes"/>
      <point x="987" y="1430"/>
      <point x="1317" y="1254"/>
      <point x="1503" y="932"/>
      <point x="1503" y="714" type="qcurve" smooth="yes"/>
      <point x="1503" y="556"/>
      <point x="1399" y="286"/>
      <point x="1207" y="83"/>
      <point x="940" y="-30"/>
    </contour>
  </outline>
</glyph>
<glyph name="florin" format="2">
  <advance width="1296"/>
  <unicode hex="0192"/>
  <outline>
    <contour>
      <point x="185" y="-451" type="qcurve" smooth="yes"/>
      <point x="120" y="-451"/>
      <point x="11" y="-418"/>
      <point x="-34" y="-389" type="qcurve"/>
      <point x="11" y="-221" type="line"/>
      <point x="36" y="-244"/>
      <point x="123" y="-280"/>
      <point x="167" y="-280" type="qcurve" smooth="yes"/>
      <point x="250" y="-280"/>
      <point x="342" y="-190"/>
      <point x="367" y="-78" type="qcurve" smooth="yes"/>
      <point x="621" y="1064" type="line" smooth="yes"/>
      <point x="663" y="1250"/>
      <point x="851" y="1430"/>
      <point x="1002" y="1430" type="qcurve" smooth="yes"/>
      <point x="1068" y="1430"/>
      <point x="1176" y="1397"/>
      <point x="1220" y="1367" type="qcurve"/>
      <point x="1176" y="1200" type="line"/>
      <point x="1152" y="1223"/>
      <point x="1064" y="1258"/>
      <point x="1019" y="1258" type="qcurve" smooth="yes"/>
      <point x="937" y="1258"/>
      <point x="845" y="1169"/>
      <point x="819" y="1056" type="qcurve" smooth="yes"/>
      <point x="565" y="-85" type="line" smooth="yes"/>
      <point x="524" y="-270"/>
      <point x="334" y="-451"/>
    </contour>
    <contour>
      <point x="162" y="615" type="line"/>
      <point x="162" y="760" type="line"/>
      <point x="1130" y="760" type="line"/>
      <point x="1130" y="615" type="line"/>
    </contour>
  </outline>
</glyph>
<glyph name="Oogonek" format="2">
  <advance width="1668"/>
  <unicode hex="01EA"/>
  <anchor x="834" y="1400" name="top"/>
  <outline>
    <contour>
      <point x="873" y="-450" type="qcurve" smooth="yes"/>
      <point x="771" y="-450"/>
      <point x="658" y="-331"/>
      <point x="658" y="-244" type="qcurve" smooth="yes"/>
      <point x="660" y="-160"/>
      <point x="753" y="-29"/>
      <point x="909" y="59"/>
      <point x="1006" y="78" type="qcurve"/>
      <point x="1027" y="-5" type="line"/>
      <point x="930" y="-29"/>
      <point x="815" y="-125"/>
      <point x="812" y="-204" type="qcurve"/>
      <point x="812" y="-247"/>
      <point x="855" y="-305"/>
      <point x="904" y="-305" type="qcurve" smooth="yes"/>
      <point x="924" y="-305"/>
      <point x="960" y="-296"/>
      <point x="994" y="-281"/>
      <point x="1008" y="-271" type="qcurve"/>
      <point x="1063" y="-397" type="line"/>
      <point x="1021" y="-422"/>
      <point x="923" y="-450"/>
    </contour>
    <contour>
      <point x="834" y="-30" type="qcurve" smooth="yes"/>
      <point x="677" y="-30"/>
      <point x="409" y="81"/>
      <point x="210" y="279"/>
      <point x="99" y="545"/>
      <point x="99" y="700" type="qcurve" smooth="yes"/>
      <point x="99" y="856"/>
      <point x="210" y="1122"/>
      <point x="409" y="1320"/>
      <point x="677" y="1430"/>
      <point x="834" y="1430" type="qcurve" smooth="yes"/>
      <point x="990" y="1430"/>
      <point x="1257" y="1318"/>
      <point x="1457" y="1118"/>
      <point x="1568" y="853"/>
      <point x="1568" y="700" type="qcurve" smooth="yes"/>
      <point x="1568" y="545"/>
      <point x="1457" y="279"/>
      <point x="1257" y="81"/>
      <point x="990" y="-30"/>
    </contour>
    <contour>
      <point x="834" y="162" type="qcurve" smooth="yes"/>
      <point x="944" y="162"/>
      <point x="1134" y="238"/>
      <point x="1277" y="380"/>
      <point x="1357" y="578"/>
      <point x="1357" y="700" type="qcurve" smooth="yes"/>
      <point x="1357" y="863"/>
      <point x="1218" y="1105"/>
      <point x="981" y="1238"/>
      <point x="834" y="1238" type="qcurve" smooth="yes"/>
      <point x="724" y="1238"/>
      <point x="533" y="1162"/>
      <point x="391" y="1020"/>
      <point x="311" y="822"/>
      <point x="311" y="700" type="qcurve" smooth="yes"/>
      <point x="311" y="537"/>
      <point x="450" y="295"/>
      <point x="687" y="162"/>
    </contour>
  </outline>
</glyph>
<glyph name="oogonek" format="2">
  <advance width="1203"/>
  <unicode hex="01EB"/>
  <anchor x="602" y="984" name="top"/>
  <outline>
    <contour>
      <point x="648" y="-450" type="qcurve" smooth="yes"/>
      <point x="546" y="-450"/>
      <point x="432" y="-331"/>
      <point x="433" y="-244" type="qcurve" smooth="yes"/>
      <point x="434" y="-177"/>
      <point x="492" y="-67"/>
      <point x="540" y="-25" type="qcurve"/>
      <point x="403" y="-11"/>
      <point x="192" y="134"/>
      <point x="71" y="359"/>
      <point x="71" y="492" type="qcurve" smooth="yes"/>
      <point x="71" y="597"/>
      <point x="150" y="786"/>
      <point x="293" y="931"/>
      <point x="486" y="1014"/>
      <point x="602" y="1014" type="qcurve" smooth="yes"/>
      <point x="755" y="1014"/>
      <point x="995" y="872"/>
      <point x="1132" y="634"/>
      <point x="1132" y="492" type="qcurve" smooth="yes"/>
      <point x="1132" y="377"/>
      <point x="1039" y="175"/>
      <point x="872" y="26"/>
      <point x="760" y="-8" type="qcurve" smooth="yes"/>
      <point x="681" y="-33"/>
      <point x="589" y="-129"/>
      <point x="587" y="-204" type="qcurve"/>
      <point x="587" y="-247"/>
      <point x="629" y="-305"/>
      <point x="679" y="-305" type="qcurve" smooth="yes"/>
      <point x="707" y="-305"/>
      <point x="761" y="-286"/>
      <point x="782" y="-271" type="qcurve"/>
      <point x="838" y="-397" type="line"/>
      <point x="796" y="-422"/>
      <point x="698" y="-450"/>
    </contour>
    <contour>
      <point x="602" y="148" type="qcurve" smooth="yes"/>
      <point x="698" y="148"/>
      <point x="847" y="232"/>
      <point x="932" y="386"/>
      <point x="932" y="492" type="qcurve" smooth="yes"/>
      <point x="932" y="598"/>
      <point x="847" y="753"/>
      <point x="698" y="836"/>
      <point x="602" y="836" type="qcurve" smooth="yes"/>
      <point x="505" y="836"/>
      <point x="356" y="753"/>
      <point x="271" y="598"/>
      <point x="271" y="492" type="qcurve" smooth="yes"/>
      <point x="271" y="386"/>
      <point x="357" y="232"/>
      <point x="506" y="148"/>
    </contour>
  </outline>
</glyph>
<glyph name="dotlessj" format="2">
  <advance width="516"/>
  <unicode hex="0237"/>
  <anchor x="258" y="985" name="top"/>
  <outline>
    <contour>
      <point x="73" y="-450" type="qcurve" smooth="yes"/>
      <point x="10" y="-450"/>
      <point x="-86" y="-425"/>
      <point x="-126" y="-404" type="qcurve"/>
      <point x="-77" y="-247" type="line"/>
      <point x="-52" y="-259"/>
      <point x="-2" y="-275"/>
      <point x="34" y="-275" type="qcurve" smooth="yes"/>
      <point x="102" y="-275"/>
      <point x="157" y="-198"/>
      <point x="157" y="-124" type="qcurve" smooth="yes"/>
      <point x="157" y="985" type="line"/>
      <point x="359" y="985" type="line"/>
      <point x="359" y="-145" type="line" smooth="yes"/>
      <point x="359" y="-238"/>
      <point x="289" y="-375"/>
      <point x="160" y="-450"/>
    </contour>
  </outline>
</glyph>
<glyph name="schwa" format="2">
  <advance width="1137"/>
  <unicode hex="0259"/>
  <outline>
    <contour>
      <point x="558" y="-30" type="qcurve" smooth="yes"/>
      <point x="443" y="-30"/>
      <point x="252" y="54"/>
      <point x="119" y="207"/>
      <point x="61" y="417"/>
      <point x="77" y="544" type="qcurve"/>
      <point x="929" y="544" type="line"/>
      <point x="926" y="393" type="line"/>
      <point x="187" y="393" type="line"/>
      <point x="259" y="458" type="line"/>
      <point x="259" y="302"/>
      <point x="422" y="130"/>
      <point x="556" y="130" type="qcurve" smooth="yes"/>
      <point x="659" y="130"/>
      <point x="802" y="217"/>
      <point x="876" y="385"/>
      <point x="876" y="506" type="qcurve" smooth="yes"/>
      <point x="876" y="612"/>
      <point x="790" y="765"/>
      <point x="635" y="848"/>
      <point x="531" y="848" type="qcurve" smooth="yes"/>
      <point x="439" y="848"/>
      <point x="280" y="794"/>
      <point x="218" y="743" type="qcurve"/>
      <point x="142" y="884" type="line"/>
      <point x="189" y="923"/>
      <point x="316" y="982"/>
      <point x="460" y="1014"/>
      <point x="531" y="1014" type="qcurve" smooth="yes"/>
      <point x="694" y="1014"/>
      <point x="934" y="889"/>
      <point x="1066" y="661"/>
      <point x="1066" y="506" type="qcurve" smooth="yes"/>
      <point x="1066" y="389"/>
      <point x="991" y="192"/>
      <point x="855" y="49"/>
      <point x="670" y="-30"/>
    </contour>
  </outline>
</glyph>
<glyph name="gravecomb" format="2">
  <unicode hex="0300"/>
  <anchor x="-602" y="984" name="top"/>
  <outline>
    <contour>
      <point x="-674" y="1170" type="line"/>
      <point x="-879" y="1516" type="line"/>
      <point x="-670" y="1516" type="line"/>
      <point x="-486" y="1170" type="line"/>
    </contour>
  </outline>
</glyph>
<glyph name="acutecomb" format="2">
  <unicode hex="0301"/>
  <anchor x="-602" y="985" name="top"/>
  <outline>
    <contour>
      <point x="-709" y="1170" type="line"/>
      <point x="-522" y="1517" type="line"/>
      <point x="-316" y="1517" type="line"/>
      <point x="-523" y="1170" type="line"/>
    </contour>
  </outline>
</glyph>
<glyph name="circumflexcomb" format="2">
  <unicode hex="0302"/>
  <anchor x="-602" y="985" name="top"/>
  <anchor x="-602" y="1457" name="top.1"/>
  <outline>
    <contour>
      <point x="-968" y="1170" type="line"/>
      <point x="-693" y="1517" type="line"/>
      <point x="-501" y="1517" type="line"/>
      <point x="-236" y="1170" type="line"/>
      <point x="-435" y="1170" type="line"/>
      <point x="-600" y="1395" type="line"/>
      <point x="-772" y="1170" type="line"/>
    </contour>
  </outline>
</glyph>
<glyph name="tildecomb" format="2">
  <unicode hex="0303"/>
  <anchor x="-602" y="985" name="top"/>
  <anchor x="-602" y="1382" name="top.1"/>
  <outline>
    <contour>
      <point x="-885" y="1194" type="qcurve"/>
      <point x="-981" y="1274" type="line"/>
      <point x="-946" y="1365"/>
      <point x="-830" y="1473"/>
      <point x="-753" y="1473" type="qcurve" smooth="yes"/>
      <point x="-693" y="1473"/>
      <point x="-589" y="1419"/>
      <point x="-494" y="1366"/>
      <point x="-448" y="1366" type="qcurve" smooth="yes"/>
      <point x="-404" y="1366"/>
      <point x="-339" y="1432"/>
      <point x="-319" y="1494" type="qcurve"/>
      <point x="-224" y="1412" type="line"/>
      <point x="-251" y="1317"/>
      <point x="-370" y="1215"/>
      <point x="-445" y="1215" type="qcurve" smooth="yes"/>
      <point x="-505" y="1215"/>
      <point x="-611" y="1268"/>
      <point x="-708" y="1321"/>
      <point x="-754" y="1321" type="qcurve" smooth="yes"/>
      <point x="-798" y="1321"/>
      <point x="-863" y="1256"/>
    </contour>
  </outline>
</glyph>
<glyph name="macroncomb" format="2">
  <unicode hex="0304"/>
  <anchor x="-602" y="984" name="top"/>
  <outline>
    <contour>
      <point x="-920" y="1230" type="line"/>
      <point x="-920" y="1372" type="line"/>
      <point x="-284" y="1372" type="line"/>
      <point x="-284" y="1230" type="line"/>
    </contour>
  </outline>
</glyph>
<glyph name="brevecomb" format="2">
  <unicode hex="0306"/>
  <anchor x="-602" y="984" name="top"/>
  <anchor x="-602" y="1428" name="top.1"/>
  <outline>
    <contour>
      <point x="-602" y="1160" type="qcurve" smooth="yes"/>
      <point x="-710" y="1160"/>
      <point x="-875" y="1252"/>
      <point x="-965" y="1412"/>
      <point x="-961" y="1516" type="qcurve"/>
      <point x="-794" y="1516" type="line"/>
      <point x="-798" y="1420"/>
      <point x="-692" y="1302"/>
      <point x="-602" y="1302" type="qcurve" smooth="yes"/>
      <point x="-511" y="1302"/>
      <point x="-407" y="1420"/>
      <point x="-412" y="1516" type="qcurve"/>
      <point x="-243" y="1516" type="line"/>
      <point x="-241" y="1414"/>
      <point x="-332" y="1252"/>
      <point x="-496" y="1160"/>
    </contour>
  </outline>
</glyph>
<glyph name="dotaccentcomb" format="2">
  <unicode hex="0307"/>
  <anchor x="-602" y="984" name="top"/>
  <anchor x="-602" y="1344" name="top.1"/>
  <outline>
    <contour>
      <point x="-602" y="1166" type="qcurve" smooth="yes"/>
      <point x="-657" y="1166"/>
      <point x="-736" y="1238"/>
      <point x="-736" y="1295" type="qcurve" smooth="yes"/>
      <point x="-736" y="1352"/>
      <point x="-657" y="1424"/>
      <point x="-602" y="1424" type="qcurve" smooth="yes"/>
      <point x="-546" y="1424"/>
      <point x="-467" y="1352"/>
      <point x="-467" y="1295" type="qcurve" smooth="yes"/>
      <point x="-467" y="1238"/>
      <point x="-546" y="1166"/>
    </contour>
  </outline>
</glyph>
<glyph name="dieresiscomb" format="2">
  <unicode hex="0308"/>
  <anchor x="-602" y="984" name="top"/>
  <anchor x="-602" y="1344" name="top.1"/>
  <outline>
    <contour>
      <point x="-811" y="1164" type="qcurve" smooth="yes"/>
      <point x="-863" y="1164"/>
      <point x="-940" y="1236"/>
      <point x="-940" y="1291" type="qcurve" smooth="yes"/>
      <point x="-940" y="1329"/>
      <point x="-905" y="1386"/>
      <point x="-846" y="1418"/>
      <point x="-811" y="1418" type="qcurve" smooth="yes"/>
      <point x="-760" y="1418"/>
      <point x="-682" y="1347"/>
      <point x="-682" y="1291" type="qcurve" smooth="yes"/>
      <point x="-682" y="1254"/>
      <point x="-718" y="1197"/>
      <point x="-777" y="1164"/>
    </contour>
    <contour>
      <point x="-392" y="1164" type="qcurve" smooth="yes"/>
      <point x="-444" y="1164"/>
      <point x="-521" y="1236"/>
      <point x="-521" y="1291" type="qcurve" smooth="yes"/>
      <point x="-521" y="1329"/>
      <point x="-485" y="1386"/>
      <point x="-426" y="1418"/>
      <point x="-392" y="1418" type="qcurve" smooth="yes"/>
      <point x="-340" y="1418"/>
      <point x="-263" y="1347"/>
      <point x="-263" y="1291" type="qcurve" smooth="yes"/>
      <point x="-263" y="1254"/>
      <point x="-299" y="1197"/>
      <point x="-358" y="1164"/>
    </contour>
  </outline>
</glyph>
<glyph name="hookabovecomb" format="2">
  <unicode hex="0309"/>
  <anchor x="-599" y="984" name="top"/>
  <outline>
    <contour>
      <point x="-678" y="1170" type="line"/>
      <point x="-713" y="1237"/>
      <point x="-675" y="1328"/>
      <point x="-598" y="1356" type="qcurve" smooth="yes"/>
      <point x="-538" y="1378"/>
      <point x="-499" y="1408"/>
      <point x="-499" y="1437" type="qcurve" smooth="yes"/>
      <point x="-499" y="1473"/>
      <point x="-571" y="1513"/>
      <point x="-625" y="1513" type="qcurve" smooth="yes"/>
      <point x="-673" y="1513"/>
      <point x="-764" y="1491"/>
      <point x="-801" y="1472" type="qcurve"/>
      <point x="-841" y="1581" type="line"/>
      <point x="-790" y="1607"/>
      <point x="-662" y="1634"/>
      <point x="-598" y="1634" type="qcurve" smooth="yes"/>
      <point x="-484" y="1634"/>
      <point x="-340" y="1540"/>
      <point x="-340" y="1466" type="qcurve" smooth="yes"/>
      <point x="-340" y="1408"/>
      <point x="-399" y="1337"/>
      <point x="-476" y="1301" type="qcurve" smooth="yes"/>
      <point x="-539" y="1272"/>
      <point x="-564" y="1221"/>
      <point x="-542" y="1170" type="qcurve"/>
    </contour>
  </outline>
</glyph>
<glyph name="ringcomb" format="2">
  <unicode hex="030A"/>
  <anchor x="-602" y="984" name="top"/>
  <anchor x="-602" y="1500" name="top.1"/>
  <outline>
    <contour>
      <point x="-602" y="1103" type="qcurve" smooth="yes"/>
      <point x="-674" y="1103"/>
      <point x="-794" y="1168"/>
      <point x="-865" y="1279"/>
      <point x="-865" y="1349" type="qcurve" smooth="yes"/>
      <point x="-865" y="1418"/>
      <point x="-794" y="1530"/>
      <point x="-674" y="1596"/>
      <point x="-602" y="1596" type="qcurve" smooth="yes"/>
      <point x="-530" y="1596"/>
      <point x="-411" y="1530"/>
      <point x="-340" y="1418"/>
      <point x="-340" y="1349" type="qcurve" smooth="yes"/>
      <point x="-340" y="1279"/>
      <point x="-411" y="1168"/>
      <point x="-530" y="1103"/>
    </contour>
    <contour>
      <point x="-602" y="1218" type="qcurve" smooth="yes"/>
      <point x="-543" y="1218"/>
      <point x="-472" y="1294"/>
      <point x="-472" y="1349" type="qcurve" smooth="yes"/>
      <point x="-472" y="1404"/>
      <point x="-543" y="1480"/>
      <point x="-602" y="1480" type="qcurve" smooth="yes"/>
      <point x="-660" y="1480"/>
      <point x="-732" y="1404"/>
      <point x="-732" y="1349" type="qcurve" smooth="yes"/>
      <point x="-732" y="1294"/>
      <point x="-660" y="1218"/>
    </contour>
  </outline>
</glyph>
<glyph name="hungarumlautcomb" format="2">
  <unicode hex="030B"/>
  <anchor x="-602" y="984" name="top"/>
  <outline>
    <contour>
      <point x="-499" y="1170" type="line"/>
      <point x="-318" y="1516" type="line"/>
      <point x="-125" y="1516" type="line"/>
      <point x="-325" y="1170" type="line"/>
    </contour>
    <contour>
      <point x="-890" y="1170" type="line"/>
      <point x="-709" y="1516" type="line"/>
      <point x="-516" y="1516" type="line"/>
      <point x="-716" y="1170" type="line"/>
    </contour>
  </outline>
</glyph>
<glyph name="caroncomb" format="2">
  <unicode hex="030C"/>
  <anchor x="-602" y="985" name="top"/>
  <outline>
    <contour>
      <point x="-702" y="1170" type="line"/>
      <point x="-968" y="1517" type="line"/>
      <point x="-769" y="1517" type="line"/>
      <point x="-605" y="1291" type="line"/>
      <point x="-432" y="1517" type="line"/>
      <point x="-236" y="1517" type="line"/>
      <point x="-512" y="1170" type="line"/>
    </contour>
  </outline>
</glyph>
<glyph name="dblgravecomb" format="2">
  <unicode hex="030F"/>
  <anchor x="-602" y="984" name="top"/>
  <outline>
    <contour>
      <point x="-487" y="1170" type="line"/>
      <point x="-687" y="1516" type="line"/>
      <point x="-494" y="1516" type="line"/>
      <point x="-313" y="1170" type="line"/>
    </contour>
    <contour>
      <point x="-878" y="1170" type="line"/>
      <point x="-1078" y="1516" type="line"/>
      <point x="-885" y="1516" type="line"/>
      <point x="-704" y="1170" type="line"/>
    </contour>
  </outline>
</glyph>
<glyph name="breveinvertedcomb" format="2">
  <unicode hex="0311"/>
  <anchor x="-602" y="984" name="top"/>
  <outline>
    <contour>
      <point x="-961" y="1170" type="line"/>
      <point x="-965" y="1274"/>
      <point x="-875" y="1435"/>
      <point x="-710" y="1526"/>
      <point x="-602" y="1526" type="qcurve" smooth="yes"/>
      <point x="-496" y="1526"/>
      <point x="-332" y="1434"/>
      <point x="-241" y="1273"/>
      <point x="-243" y="1170" type="qcurve"/>
      <point x="-412" y="1170" type="line"/>
      <point x="-407" y="1266"/>
      <point x="-511" y="1384"/>
      <point x="-602" y="1384" type="qcurve" smooth="yes"/>
      <point x="-692" y="1384"/>
      <point x="-798" y="1266"/>
      <point x="-794" y="1170" type="qcurve"/>
    </contour>
  </outline>
</glyph>
<glyph name="commaturnedabovecomb" format="2">
  <unicode hex="0312"/>
  <anchor x="-602" y="984" name="top"/>
  <outline>
    <contour>
      <point x="-597" y="1223" type="qcurve" smooth="yes"/>
      <point x="-659" y="1223"/>
      <point x="-738" y="1307"/>
      <point x="-738" y="1375" type="qcurve" smooth="yes"/>
      <point x="-738" y="1435"/>
      <point x="-684" y="1547"/>
      <point x="-576" y="1650"/>
      <point x="-496" y="1697" type="qcurve"/>
      <point x="-430" y="1615" type="line"/>
      <point x="-490" y="1587"/>
      <point x="-592" y="1506"/>
      <point x="-608" y="1466" type="qcurve"/>
      <point x="-570" y="1468"/>
      <point x="-507" y="1439"/>
      <point x="-469" y="1383"/>
      <point x="-469" y="1345" type="qcurve" smooth="yes"/>
      <point x="-469" y="1292"/>
      <point x="-541" y="1223"/>
    </contour>
  </outline>
</glyph>
<glyph name="horncomb" format="2">
  <unicode hex="031B"/>
  <anchor x="-254" y="984" name="horn"/>
  <outline>
    <contour>
      <point x="-220" y="817" type="qcurve" smooth="yes"/>
      <point x="-261" y="817"/>
      <point x="-357" y="843"/>
      <point x="-464" y="878"/>
      <point x="-581" y="903"/>
      <point x="-643" y="903" type="qcurve"/>
      <point x="-644" y="1014" type="line"/>
      <point x="-558" y="1014"/>
      <point x="-408" y="979"/>
      <point x="-291" y="943"/>
      <point x="-254" y="943" type="qcurve" smooth="yes"/>
      <point x="-203" y="943"/>
      <point x="-157" y="984"/>
      <point x="-157" y="1015" type="qcurve" smooth="yes"/>
      <point x="-157" y="1042"/>
      <point x="-189" y="1109"/>
      <point x="-223" y="1146" type="qcurve"/>
      <point x="-93" y="1212" type="line"/>
      <point x="-44" y="1164"/>
      <point x="2" y="1057"/>
      <point x="2" y="1009" type="qcurve" smooth="yes"/>
      <point x="2" y="957"/>
      <point x="-50" y="869"/>
      <point x="-148" y="817"/>
    </contour>
  </outline>
</glyph>
<glyph name="dotbelowcomb" format="2">
  <unicode hex="0323"/>
  <anchor x="-602" y="0" name="bottom"/>
  <outline>
    <contour>
      <point x="-602" y="-498" type="qcurve" smooth="yes"/>
      <point x="-657" y="-498"/>
      <point x="-736" y="-425"/>
      <point x="-736" y="-368" type="qcurve" smooth="yes"/>
      <point x="-736" y="-311"/>
      <point x="-657" y="-239"/>
      <point x="-602" y="-239" type="qcurve" smooth="yes"/>
      <point x="-546" y="-239"/>
      <point x="-467" y="-311"/>
      <point x="-467" y="-368" type="qcurve" smooth="yes"/>
      <point x="-467" y="-425"/>
      <point x="-546" y="-498"/>
    </contour>
  </outline>
</glyph>
<glyph name="dieresisbelowcomb" format="2">
  <unicode hex="0324"/>
  <anchor x="-602" y="0" name="bottom"/>
  <outline>
    <contour>
      <point x="-392" y="-436" type="qcurve" smooth="yes"/>
      <point x="-444" y="-436"/>
      <point x="-522" y="-364"/>
      <point x="-522" y="-308" type="qcurve" smooth="yes"/>
      <point x="-522" y="-270"/>
      <point x="-486" y="-212"/>
      <point x="-426" y="-180"/>
      <point x="-392" y="-180" type="qcurve" smooth="yes"/>
      <point x="-339" y="-180"/>
      <point x="-261" y="-251"/>
      <point x="-261" y="-308" type="qcurve" smooth="yes"/>
      <point x="-261" y="-345"/>
      <point x="-297" y="-403"/>
      <point x="-357" y="-436"/>
    </contour>
    <contour>
      <point x="-813" y="-436" type="qcurve" smooth="yes"/>
      <point x="-865" y="-436"/>
      <point x="-943" y="-364"/>
      <point x="-943" y="-308" type="qcurve" smooth="yes"/>
      <point x="-943" y="-270"/>
      <point x="-907" y="-212"/>
      <point x="-848" y="-180"/>
      <point x="-813" y="-180" type="qcurve" smooth="yes"/>
      <point x="-761" y="-180"/>
      <point x="-683" y="-251"/>
      <point x="-683" y="-308" type="qcurve" smooth="yes"/>
      <point x="-683" y="-345"/>
      <point x="-719" y="-403"/>
      <point x="-778" y="-436"/>
    </contour>
  </outline>
</glyph>
<glyph name="commaaccentcomb" format="2">
  <unicode hex="0326"/>
  <anchor x="-602" y="-0" name="bottom"/>
  <outline>
    <contour>
      <point x="-709" y="-708" type="qcurve"/>
      <point x="-777" y="-622" type="line"/>
      <point x="-713" y="-595"/>
      <point x="-613" y="-516"/>
      <point x="-594" y="-476" type="qcurve"/>
      <point x="-633" y="-479"/>
      <point x="-699" y="-451"/>
      <point x="-739" y="-398"/>
      <point x="-739" y="-362" type="qcurve" smooth="yes"/>
      <point x="-739" y="-307"/>
      <point x="-664" y="-239"/>
      <point x="-606" y="-239" type="qcurve" smooth="yes"/>
      <point x="-541" y="-239"/>
      <point x="-460" y="-323"/>
      <point x="-460" y="-394" type="qcurve" smooth="yes"/>
      <point x="-460" y="-450"/>
      <point x="-516" y="-561"/>
      <point x="-628" y="-663"/>
    </contour>
  </outline>
</glyph>
<glyph name="cedillacomb" format="2">
  <unicode hex="0327"/>
  <anchor x="-608" y="0" name="bottom"/>
  <outline>
    <contour>
      <point x="-627" y="-450" type="qcurve" smooth="yes"/>
      <point x="-694" y="-450"/>
      <point x="-809" y="-416"/>
      <point x="-854" y="-388" type="qcurve"/>
      <point x="-808" y="-278" type="line"/>
      <point x="-783" y="-303"/>
      <point x="-680" y="-332"/>
      <point x="-634" y="-332" type="qcurve" smooth="yes"/>
      <point x="-590" y="-332"/>
      <point x="-519" y="-300"/>
      <point x="-519" y="-262" type="qcurve" smooth="yes"/>
      <point x="-519" y="-219"/>
      <point x="-620" y="-187"/>
      <point x="-680" y="-196" type="qcurve"/>
      <point x="-725" y="-113" type="line"/>
      <point x="-671" y="40" type="line"/>
      <point x="-552" y="40" type="line"/>
      <point x="-589" y="-81" type="line"/>
      <point x="-489" y="-89"/>
      <point x="-362" y="-178"/>
      <point x="-362" y="-259" type="qcurve" smooth="yes"/>
      <point x="-362" y="-328"/>
      <point x="-447" y="-412"/>
      <point x="-569" y="-450"/>
    </contour>
  </outline>
</glyph>
<glyph name="ogonekcomb" format="2">
  <unicode hex="0328"/>
  <outline>
    <contour>
      <point x="-664" y="-450" type="qcurve" smooth="yes"/>
      <point x="-766" y="-450"/>
      <point x="-880" y="-331"/>
      <point x="-879" y="-244" type="qcurve" smooth="yes"/>
      <point x="-878" y="-157"/>
      <point x="-779" y="-22"/>
      <point x="-613" y="66"/>
      <point x="-511" y="82" type="qcurve"/>
      <point x="-477" y="0" type="line"/>
      <point x="-553" y="-13"/>
      <point x="-664" y="-66"/>
      <point x="-724" y="-148"/>
      <point x="-725" y="-204" type="qcurve" smooth="yes"/>
      <point x="-726" y="-247"/>
      <point x="-683" y="-305"/>
      <point x="-633" y="-305" type="qcurve" smooth="yes"/>
      <point x="-605" y="-305"/>
      <point x="-552" y="-286"/>
      <point x="-530" y="-271" type="qcurve"/>
      <point x="-475" y="-397" type="line"/>
      <point x="-517" y="-422"/>
      <point x="-614" y="-450"/>
    </contour>
  </outline>
</glyph>
<glyph name="brevebelowcomb" format="2">
  <unicode hex="032E"/>
  <anchor x="-602" y="0" name="bottom"/>
  <outline>
    <contour>
      <point x="-602" y="-542" type="qcurve" smooth="yes"/>
      <point x="-712" y="-542"/>
      <point x="-877" y="-450"/>
      <point x="-967" y="-289"/>
      <point x="-963" y="-185" type="qcurve"/>
      <point x="-793" y="-185" type="line"/>
      <point x="-797" y="-280"/>
      <point x="-692" y="-397"/>
      <point x="-602" y="-397" type="qcurve" smooth="yes"/>
      <point x="-512" y="-397"/>
      <point x="-409" y="-280"/>
      <point x="-414" y="-185" type="qcurve"/>
      <point x="-243" y="-185" type="line"/>
      <point x="-240" y="-288"/>
      <point x="-331" y="-449"/>
      <point x="-496" y="-542"/>
    </contour>
  </outline>
</glyph>
<glyph name="macronbelowcomb" format="2">
  <unicode hex="0331"/>
  <anchor x="-602" y="0" name="bottom"/>
  <outline>
    <contour>
      <point x="-920" y="-388" type="line"/>
      <point x="-920" y="-246" type="line"/>
      <point x="-284" y="-246" type="line"/>
      <point x="-284" y="-388" type="line"/>
    </contour>
  </outline>
</glyph>
<glyph name="strokeshortcomb" format="2">
  <unicode hex="0335"/>
  <anchor x="-602" y="524" name="strokeshort"/>
  <outline>
    <contour>
      <point x="-939" y="456" type="line"/>
      <point x="-939" y="592" type="line"/>
      <point x="-265" y="592" type="line"/>
      <point x="-265" y="456" type="line"/>
    </contour>
  </outline>
</glyph>
<glyph name="lownumeralsign" format="2">
  <advance width="449"/>
  <unicode hex="0375"/>
  <outline>
    <contour>
      <point x="37" y="-420" type="line"/>
      <point x="168" y="75" type="line"/>
      <point x="314" y="75" type="line"/>
      <point x="222" y="-420" type="line"/>
    </contour>
  </outline>
</glyph>
<glyph name="tonos" format="2">
  <advance width="480"/>
  <unicode hex="0384"/>
  <outline>
    <contour>
      <point x="109" y="1170" type="line"/>
      <point x="242" y="1516" type="line"/>
      <point x="445" y="1516" type="line"/>
      <point x="293" y="1170" type="line"/>
    </contour>
  </outline>
</glyph>
<glyph name="dieresistonos" format="2">
  <unicode hex="0385"/>
  <outline>
    <contour>
      <point x="-685" y="1250" type="line"/>
      <point x="-623" y="1564" type="line"/>
      <point x="-453" y="1564" type="line"/>
      <point x="-545" y="1250" type="line"/>
    </contour>
    <contour>
      <point x="-866" y="1169" type="qcurve" smooth="yes"/>
      <point x="-917" y="1169"/>
      <point x="-987" y="1239"/>
      <point x="-987" y="1291" type="qcurve" smooth="yes"/>
      <point x="-987" y="1345"/>
      <point x="-917" y="1414"/>
      <point x="-866" y="1414" type="qcurve" smooth="yes"/>
      <point x="-816" y="1414"/>
      <point x="-745" y="1344"/>
      <point x="-745" y="1291" type="qcurve" smooth="yes"/>
      <point x="-745" y="1239"/>
      <point x="-816" y="1169"/>
    </contour>
    <contour>
      <point x="-323" y="1169" type="qcurve" smooth="yes"/>
      <point x="-374" y="1169"/>
      <point x="-444" y="1239"/>
      <point x="-444" y="1291" type="qcurve" smooth="yes"/>
      <point x="-444" y="1345"/>
      <point x="-374" y="1414"/>
      <point x="-323" y="1414" type="qcurve" smooth="yes"/>
      <point x="-272" y="1414"/>
      <point x="-202" y="1345"/>
      <point x="-202" y="1291" type="qcurve" smooth="yes"/>
      <point x="-202" y="1239"/>
      <point x="-272" y="1169"/>
    </contour>
  </outline>
</glyph>
<glyph name="Delta" format="2">
  <advance width="1363"/>
  <unicode hex="0394"/>
  <outline>
    <contour>
      <point x="47" y="0" type="line"/>
      <point x="47" y="169" type="line"/>
      <point x="568" y="1400" type="line"/>
      <point x="779" y="1400" type="line"/>
      <point x="1316" y="169" type="line"/>
      <point x="1316" y="0" type="line"/>
    </contour>
    <contour>
      <point x="267" y="186" type="line"/>
      <point x="1088" y="186" type="line"/>
      <point x="669" y="1143" type="line"/>
    </contour>
  </outline>
</glyph>
<glyph name="Theta" format="2">
  <advance width="1668"/>
  <unicode hex="0398"/>
  <outline>
    <contour>
      <point x="834" y="-30" type="qcurve" smooth="yes"/>
      <point x="677" y="-30"/>
      <point x="409" y="81"/>
      <point x="210" y="279"/>
      <point x="99" y="545"/>
      <point x="99" y="700" type="qcurve" smooth="yes"/>
      <point x="99" y="856"/>
      <point x="210" y="1122"/>
      <point x="409" y="1320"/>
      <point x="677" y="1430"/>
      <point x="834" y="1430" type="qcurve" smooth="yes"/>
      <point x="990" y="1430"/>
      <point x="1257" y="1318"/>
      <point x="1457" y="1118"/>
      <point x="1568" y="853"/>
      <point x="1568" y="700" type="qcurve" smooth="yes"/>
      <point x="1568" y="545"/>
      <point x="1457" y="279"/>
      <point x="1257" y="81"/>
      <point x="990" y="-30"/>
    </contour>
    <contour>
      <point x="532" y="623" type="line"/>
      <point x="532" y="783" type="line"/>
      <point x="1136" y="783" type="line"/>
      <point x="1136" y="623" type="line"/>
    </contour>
    <contour>
      <point x="834" y="159" type="qcurve" smooth="yes"/>
      <point x="946" y="159"/>
      <point x="1138" y="236"/>
      <point x="1280" y="378"/>
      <point x="1360" y="578"/>
      <point x="1360" y="700" type="qcurve" smooth="yes"/>
      <point x="1360" y="864"/>
      <point x="1222" y="1107"/>
      <point x="984" y="1241"/>
      <point x="834" y="1241" type="qcurve" smooth="yes"/>
      <point x="722" y="1241"/>
      <point x="530" y="1164"/>
      <point x="387" y="1022"/>
      <point x="308" y="823"/>
      <point x="308" y="700" type="qcurve" smooth="yes"/>
      <point x="308" y="536"/>
      <point x="446" y="293"/>
      <point x="684" y="159"/>
    </contour>
  </outline>
</glyph>
